<svg id="ag_logo" xmlns="http://www.w3.org/2000/svg" width="181.347" height="102.491" viewBox="0 0 181.347 102.491">
  <g id="组_40" data-name="组 40" transform="translate(0)">
    <path id="路径_123" data-name="路径 123" d="M186.353,174.7H95.894l15.9-90.244h90.459Z" transform="translate(-95.894 -72.212)" fill="#e54814"/>
    <path id="路径_124" data-name="路径 124" d="M277.4,159.834H186.937l15.9-90.244H293.3Z" transform="translate(-111.949 -69.59)" fill="#0075a9"/>
    <path id="路径_125" data-name="路径 125" d="M186.937,179.155l15.47,12.247,2.364-12.194Z" transform="translate(-111.949 -88.911)" fill="#9e0d1b"/>
  </g>
  <path id="路径_126" data-name="路径 126" d="M276.995,106.536H265.876s-3.061-11.6-17.887-11.6-25.3,14.664-26.267,21.432c0,0-4.629,20.864,15.148,23.689,16.921,2.417,24.656-10.474,24.656-10.474H242.993l1.772-9.992h29.813l-1.29,9.508S264.1,150.53,238.641,150.53c-21.11,0-29.49-16.6-27.073-31.908,2.124-13.455,8.965-25.218,27.234-32.069C250.406,82.2,273.611,84.619,276.995,106.536Z" transform="translate(-116.221 -72.264)" fill="#fff"/>
  <g id="组_41" data-name="组 41" transform="translate(6.768 20.413)">
    <path id="路径_127" data-name="路径 127" d="M156.324,94.373l-52.213,69.616h13.107l14.611-21.057h32.016l8.595,20.842,3.653-20.842ZM139.779,132.4,152.725,115l7.251,17.4Z" transform="translate(-104.111 -94.373)" fill="#fff"/>
  </g>
</svg>
