<?xml version="1.0" encoding="utf-8"?>
<!-- Generator: Adobe Illustrator 23.0.6, SVG Export Plug-In . SVG Version: 6.00 Build 0)  -->
<svg version="1.1" id="圖層_1" xmlns="http://www.w3.org/2000/svg" xmlns:xlink="http://www.w3.org/1999/xlink" x="0px" y="0px"
	 viewBox="0 0 196.2 195" style="enable-background:new 0 0 196.2 195;" xml:space="preserve">
<style type="text/css">
	.st0{fill:url(#SVGID_1_);stroke:url(#SVGID_2_);stroke-linecap:round;stroke-linejoin:round;stroke-miterlimit:10;}
</style>
<linearGradient id="SVGID_1_" gradientUnits="userSpaceOnUse" x1="98.5003" y1="60.8042" x2="98.5003" y2="141.9773">
	<stop  offset="0" style="stop-color:#CDBA8E"/>
	<stop  offset="5.322681e-02" style="stop-color:#D1BF93"/>
	<stop  offset="0.1247" style="stop-color:#DDCFA3"/>
	<stop  offset="0.2063" style="stop-color:#F0EABF"/>
	<stop  offset="0.2225" style="stop-color:#F4F0C6"/>
	<stop  offset="0.3625" style="stop-color:#D2C59A"/>
	<stop  offset="0.5946" style="stop-color:#9E8761"/>
	<stop  offset="0.7041" style="stop-color:#8A7250"/>
	<stop  offset="1" style="stop-color:#9C825E"/>
</linearGradient>
<linearGradient id="SVGID_2_" gradientUnits="userSpaceOnUse" x1="98.5003" y1="26.7948" x2="98.5003" y2="170.4565">
	<stop  offset="0" style="stop-color:#8B7351"/>
	<stop  offset="5.032493e-02" style="stop-color:#907855"/>
	<stop  offset="0.118" style="stop-color:#9D8761"/>
	<stop  offset="0.1951" style="stop-color:#B3A178"/>
	<stop  offset="0.2225" style="stop-color:#BCAD82"/>
	<stop  offset="0.495" style="stop-color:#9E8861"/>
	<stop  offset="0.7041" style="stop-color:#8A7250"/>
	<stop  offset="0.8224" style="stop-color:#A48E67"/>
	<stop  offset="1" style="stop-color:#CFC499"/>
</linearGradient>
<path class="st0" d="M153.7,56.4l-46.3-26.7c-5.5-3.2-12.4-3.2-17.9,0L43.3,56.4c-5.5,3.2-9,9.1-9,15.5v53.4c0,6.4,3.4,12.3,9,15.5
	l46.3,26.7c5.5,3.2,12.4,3.2,17.9,0l46.3-26.7c5.5-3.2,9-9.1,9-15.5V71.9C162.7,65.5,159.3,59.6,153.7,56.4z M64.6,57.8
	c3.2-5.5,9.1-9,15.5-9h36.8c2.3,0,4.6,0.5,6.7,1.3L96.6,97H43.9c0.2-2.5,1-5,2.3-7.3L64.6,57.8z M80.1,148.4c-6.4,0-12.3-3.4-15.5-9
	l-18.4-31.9c-1.1-1.8-1.7-3.8-2.1-5.8h52.5l26.3,45.6c-1.9,0.7-3.9,1.1-6,1.1H80.1z M150.8,107.6l-18.4,31.9
	c-1.3,2.3-3.1,4.2-5.2,5.7l-26.5-45.8l27-46.8c1.9,1.4,3.5,3.2,4.7,5.3l18.4,31.9C154,95.2,154,102,150.8,107.6z"/>
</svg>
