<?xml version="1.0" encoding="utf-8"?>
<!-- Generator: Adobe Illustrator 23.0.6, SVG Export Plug-In . SVG Version: 6.00 Build 0)  -->
<svg version="1.1" id="圖層_1" xmlns="http://www.w3.org/2000/svg" xmlns:xlink="http://www.w3.org/1999/xlink" x="0px" y="0px"
	 viewBox="0 0 205.1 204.1" style="enable-background:new 0 0 205.1 204.1;" xml:space="preserve">
<style type="text/css">
	.st0{fill:url(#SVGID_1_);}
	.st1{fill:url(#SVGID_2_);}
	.st2{fill:url(#SVGID_3_);}
	.st3{fill:url(#SVGID_4_);}
	.st4{fill:#C91A1D;}
	.st5{fill:#CCCCCC;}
	.st6{fill:#FFFFFF;}
	.st7{fill:url(#SVGID_5_);}
	.st8{fill:url(#SVGID_6_);}
	.st9{fill:url(#SVGID_7_);}
</style>
<g>
	<linearGradient id="SVGID_1_" gradientUnits="userSpaceOnUse" x1="49.8869" y1="54.1344" x2="157.6278" y2="147.7915">
		<stop  offset="0" style="stop-color:#DC8E63"/>
		<stop  offset="0.4243" style="stop-color:#BD1E21"/>
		<stop  offset="1" style="stop-color:#8E1E23"/>
	</linearGradient>
	<path class="st0" d="M31.3,137.3l-4-65.7c0,0-3.5-15.3,12.4-23.7c7.8-4.1,40.8-18.5,40.8-18.5s6.8-3.5,16.4-0.9
		s66.4,17.1,66.4,17.1s11,0.7,10.3,16.4c-0.3,7.5-1.6,64.8-1.6,64.8s0.7,12-6.1,17.8c-7.3,6.3-37.3,30.3-37.3,30.3s-9.6,8-25.8,2.1
		c-13.2-4.8-62.7-22.5-62.7-22.5S31.1,152.1,31.3,137.3z"/>
	<linearGradient id="SVGID_2_" gradientUnits="userSpaceOnUse" x1="41.5151" y1="68.749" x2="107.7089" y2="171.2085">
		<stop  offset="0" style="stop-color:#E0996B"/>
		<stop  offset="0.5665" style="stop-color:#C02324"/>
		<stop  offset="1" style="stop-color:#A42224"/>
	</linearGradient>
	<path class="st1" d="M37.4,59.1l65.5,21.1c0,0,12.9,2.8,12.9,17.1s0.2,71.8,0.2,71.8s-0.9,10.3-14.1,7.3l-61.7-22.1
		c0,0-9.6-3.1-9.6-18.5l-3.5-68.8C27.1,67.1,25.7,55.9,37.4,59.1z"/>
	<linearGradient id="SVGID_3_" gradientUnits="userSpaceOnUse" x1="33.9619" y1="51.9382" x2="167.1525" y2="51.9382">
		<stop  offset="0" style="stop-color:#DA865F"/>
		<stop  offset="1" style="stop-color:#BB1D21"/>
	</linearGradient>
	<path class="st2" d="M37.6,55.6l62,19c0,0,12,4.5,22.8-0.9s42-21.8,42-21.8s6.8-3.3-0.9-6.3L97,28.4c0,0-7.5-2.1-14.1,0.2
		S41.9,46.5,41.9,46.5s-7.5,4-7.9,6.4C33.7,54.9,35.4,54.9,37.6,55.6z"/>
	<linearGradient id="SVGID_4_" gradientUnits="userSpaceOnUse" x1="127.4178" y1="87.8921" x2="162.6272" y2="135.4248">
		<stop  offset="0" style="stop-color:#952023"/>
		<stop  offset="1" style="stop-color:#74171C"/>
	</linearGradient>
	<path class="st3" d="M169.1,54.7l-38.5,21.1c0,0-10.1,5.2-10.1,22.5s-1.2,66-1.2,66s-1.6,14.6,9.4,10.6l37.3-30.3
		c0,0,5.6-3.5,6.1-16.4c0.4-11,1.6-64.1,1.6-64.1S175.2,50.7,169.1,54.7z"/>
	<ellipse class="st4" cx="63.4" cy="49.6" rx="13.3" ry="5.9"/>
	<ellipse class="st5" cx="63.4" cy="50" rx="13.3" ry="5.5"/>
	<path class="st6" d="M76.4,51.2c0,1.2-4.2,4.3-12.9,4.3c-9,0-12.8-3.3-12.8-4.1c0-2.1,5.4-4.5,12.8-4.5S76.4,49.5,76.4,51.2z"/>
	<ellipse class="st4" cx="100.3" cy="49.6" rx="13.3" ry="5.9"/>
	<ellipse class="st5" cx="100.3" cy="50" rx="13.3" ry="5.5"/>
	<path class="st6" d="M113.3,51.2c0,1.2-4.2,4.3-12.9,4.3c-9,0.1-12.8-3.3-12.8-4.1c0-2.1,5.4-4.5,12.8-4.5S113.3,49.5,113.3,51.2z"
		/>
	<ellipse class="st4" cx="137" cy="49.6" rx="13.3" ry="5.9"/>
	<ellipse class="st5" cx="137" cy="50" rx="13.3" ry="5.5"/>
	<path class="st6" d="M150,51.2c0,1.2-4.1,4.2-12.9,4.3c-8.9,0.1-12.8-3.3-12.8-4.1c0-2.1,5.4-4.5,12.8-4.5S150,49.5,150,51.2z"/>
	<path class="st4" d="M43.6,75l11.4,3.9c0,0,2.9,0.3,3.2,5.3c0.3,5,2.9,58,2.9,58s0.5,5.6-6.2,3.4s-10.3-3.5-10.3-3.5
		s-3.2-0.2-3.1-5.5S39,77.8,39,77.8S38.8,74.1,43.6,75z"/>
	<path class="st4" d="M78.6,89.2L64.7,109c0,0-3.3,3.1-0.8,8.1c2.5,5,16.6,34,16.6,34s1.5,4.2,7.4,6.2l9.4,3.6c0,0,1.4,1,2.9,0.2
		c1.5-0.8,0-3.2-0.8-4.7c-0.8-1.5-17.4-34.6-17.4-34.6s-0.7-3.4,2.2-6.9c2.9-3.4,15.8-18.7,15.8-18.7s1.8-2.3-1.1-3.2
		c-2.8-0.9-15.6-4.8-15.6-4.8S80.7,87,78.6,89.2z"/>
	<path class="st4" d="M142.9,86.3l-13.2,69.3c0,0-1.1,5.5,1.3,3.6c2-1.5,4.5-4.7,4.5-4.7s1.6-0.6,2.2-5.1c0.6-4.5,3.1-18.7,3.1-18.7
		l12.6-7.6l2.2,13.6c0,0,0.1,2.9,1.7,1.9s6.4-4.9,6.4-4.9s1.3-0.9,1-2.9c-0.4-2-9.2-50.2-9.2-50.2s-0.3-4.1-4-2.9
		S144.1,80.8,142.9,86.3z"/>
	<linearGradient id="SVGID_5_" gradientUnits="userSpaceOnUse" x1="61.2364" y1="111.5715" x2="41.8712" y2="112.9799">
		<stop  offset="0" style="stop-color:#FFFFFF"/>
		<stop  offset="0.4623" style="stop-color:#FEFEFE"/>
		<stop  offset="0.6287" style="stop-color:#F8F9F9"/>
		<stop  offset="0.7474" style="stop-color:#EEEEEE"/>
		<stop  offset="0.8434" style="stop-color:#E0DFDF"/>
		<stop  offset="0.9245" style="stop-color:#CDCCCB"/>
		<stop  offset="0.9961" style="stop-color:#B6B5B5"/>
		<stop  offset="1" style="stop-color:#B4B4B4"/>
	</linearGradient>
	<path class="st7" d="M45.3,76.8l11.4,3.9c0,0,2.9,0.3,3.2,5.3c0.3,5,2.9,58,2.9,58s0.5,5.6-6.2,3.4s-10.3-3.5-10.3-3.5
		s-3.2-0.2-3.1-5.5s-2.6-58.9-2.6-58.9S40.4,75.8,45.3,76.8z"/>
	<linearGradient id="SVGID_6_" gradientUnits="userSpaceOnUse" x1="108.8684" y1="138.9816" x2="66.265" y2="105.8847">
		<stop  offset="0" style="stop-color:#FFFFFF"/>
		<stop  offset="0.4623" style="stop-color:#FEFEFE"/>
		<stop  offset="0.6287" style="stop-color:#F8F9F9"/>
		<stop  offset="0.7474" style="stop-color:#EEEEEE"/>
		<stop  offset="0.8434" style="stop-color:#E0DFDF"/>
		<stop  offset="0.9245" style="stop-color:#CDCCCB"/>
		<stop  offset="0.9961" style="stop-color:#B6B5B5"/>
		<stop  offset="1" style="stop-color:#B4B4B4"/>
	</linearGradient>
	<path class="st8" d="M78.8,90.9l-13.9,19.7c0,0-3.3,3.1-0.8,8.1s16.6,34,16.6,34s1.5,4.2,7.4,6.2l11.3,4.2c0,0,1.4,1,2.9,0.2
		c1.5-0.8,0-3.2-0.8-4.7s-17.4-34.6-17.4-34.6s-2.6-4,0.4-7.5c2.9-3.4,15.8-18.7,15.8-18.7s1.8-2.3-1.1-3.2
		c-2.8-0.9-15.6-4.8-15.6-4.8S80.9,88.6,78.8,90.9z"/>
	<g>
		<linearGradient id="SVGID_7_" gradientUnits="userSpaceOnUse" x1="120.708" y1="126.179" x2="162.9594" y2="113.1515">
			<stop  offset="0" style="stop-color:#FFFFFF"/>
			<stop  offset="0.4623" style="stop-color:#FEFEFE"/>
			<stop  offset="0.6287" style="stop-color:#F8F9F9"/>
			<stop  offset="0.7474" style="stop-color:#EEEEEE"/>
			<stop  offset="0.8434" style="stop-color:#E0DFDF"/>
			<stop  offset="0.9245" style="stop-color:#CDCCCB"/>
			<stop  offset="0.9961" style="stop-color:#B6B5B5"/>
			<stop  offset="1" style="stop-color:#B4B4B4"/>
		</linearGradient>
		<path class="st9" d="M164,132.3c-0.4-2-9.2-50.2-9.2-50.2s-0.3-4.1-4-2.9c-3.8,1.2-7.2,3.1-8.5,8.5l-13.2,69.3
			c0,0-1.1,5.5,1.3,3.6c2-1.5,6.2-4.7,6.2-4.7s1.6-0.6,2.2-5.1c0.6-4.5,3.1-18.7,3.1-18.7l10.8-7.7l2.2,13.6c0,0,0.1,2.9,1.7,1.9
			c1.6-1,6.4-4.9,6.4-4.9S164.4,134.4,164,132.3z M150,112.2c0,0-1.9,1.8-3.8,2.8c-1.8,1.1-1.1-1.2-1.1-1.2l3.2-18.6
			c0.1-1.1,0.6,1.5,0.6,1.5l1.8,12.4C151.1,112.1,150,112.2,150,112.2z"/>
	</g>
</g>
</svg>
