<svg xmlns="http://www.w3.org/2000/svg" xmlns:xlink="http://www.w3.org/1999/xlink" width="135.363" height="135.372" viewBox="0 0 135.363 135.372">
  <defs>
    <linearGradient id="linear-gradient" x1="0.75" y1="0.067" x2="0.25" y2="0.933" gradientUnits="objectBoundingBox">
      <stop offset="0" stop-color="#008bd1"/>
      <stop offset="1" stop-color="#4ca351"/>
    </linearGradient>
  </defs>
  <path id="mg_logo" d="M267.648,275.148a67.713,67.713,0,0,0-64.764,87.4q1.831-2.637,3.643-5.279,7.111-10.415,13.9-21.021l3.338-5.327q1.685-2.656,3.294-5.35c2.194-3.568,4.29-7.182,6.384-10.8,1.049-1.805,2.028-3.639,3.045-5.456,1.033-1.818,2.013-3.65,2.956-5.494s1.966-3.669,2.842-5.53l2.69-5.573.191-.392a6.2,6.2,0,0,1,8.2-2.817,6.646,6.646,0,0,1,3.5,6.176v0c0,3.211-.638,6.556-.842,9.847-.2,3.306-.43,6.615-.558,9.92-.262,6.615-.422,13.224-.334,19.8s.359,13.115,1.059,19.49a92.144,92.144,0,0,0,1.455,9.309,33.207,33.207,0,0,0,2.616,7.992,6.9,6.9,0,0,0,1.512,2.118c.394.27.126.139.324.16.025.031.163-.05.248-.034l.209-.074.109-.031.046-.005c.158-.069.339-.145.376-.171-.015-.014-.037,0-.037,0a5.614,5.614,0,0,0,.524-.347,18.5,18.5,0,0,0,2.7-2.565,63.843,63.843,0,0,0,5.458-7.329c1.734-2.662,3.393-5.445,4.99-8.278,3.2-5.674,6.187-11.554,9.036-17.514q2.136-4.466,4.173-9c1.348-3.007,2.7-6.076,3.942-9.051a6.093,6.093,0,0,1,11.631,1.361l.008.029c.029.788.124,1.781.21,2.69l.309,2.8c.224,1.874.5,3.745.813,5.616.633,3.729,1.413,7.451,2.415,11.1a75.45,75.45,0,0,0,3.713,10.676,42.162,42.162,0,0,0,5.708,9.632l.022.031a1.621,1.621,0,0,1-2.306,2.26,46.407,46.407,0,0,1-8.186-9.234,82.42,82.42,0,0,1-6.152-10.62c-1.2-2.44-2.271-4.93-3.29-7.445-.681,1.47-1.346,2.946-2.047,4.41-2.941,6.136-6.021,12.224-9.4,18.24-1.7,3.006-3.469,5.989-5.4,8.947a74.631,74.631,0,0,1-6.564,8.786,30.211,30.211,0,0,1-4.625,4.3c-.473.35-1.017.7-1.574,1.036-.373.205-.762.408-1.148.6l-.647.284-.076.023-.354.143-.247.083-.488.155c-.334.1-.649.208-1,.292a14.206,14.206,0,0,1-2.231.338,12.593,12.593,0,0,1-4.879-.6A13.149,13.149,0,0,1,254,383.533a18.526,18.526,0,0,1-4.528-5.836,44.743,44.743,0,0,1-3.731-11.048,102.5,102.5,0,0,1-1.666-10.56c-.765-6.963-1.055-13.83-1.146-20.673-.045-3.279-.031-6.543.018-9.8-1.216,2.328-2.442,4.653-3.7,6.953-1.016,1.893-2.047,3.785-3.1,5.648l-3.15,5.61q-6.366,11.188-13.108,22.109-4.352,7.075-8.822,14.045a67.68,67.68,0,1,0,56.579-104.829Z" transform="translate(-199.958 -275.148)" fill="url(#linear-gradient)"/>
</svg>
