<?xml version="1.0" encoding="utf-8"?>
<!-- Generator: Adobe Illustrator 23.0.6, SVG Export Plug-In . SVG Version: 6.00 Build 0)  -->
<svg version="1.1" id="圖層_1" xmlns="http://www.w3.org/2000/svg" xmlns:xlink="http://www.w3.org/1999/xlink" x="0px" y="0px"
	 viewBox="0 0 219.77 190.04" style="enable-background:new 0 0 219.77 190.04;" xml:space="preserve">
<style type="text/css">
	.st0{fill:url(#SVGID_1_);}
	.st1{fill:url(#SVGID_2_);}
	.st2{fill:url(#SVGID_3_);}
	.st3{fill:url(#SVGID_4_);}
</style>
<g>
	
		<linearGradient id="SVGID_1_" gradientUnits="userSpaceOnUse" x1="44.5431" y1="158.3657" x2="162.717" y2="69.9309" gradientTransform="matrix(1 0 0 -1 0 207.2756)">
		<stop  offset="0" style="stop-color:#F0DA82"/>
		<stop  offset="1" style="stop-color:#ECC045"/>
	</linearGradient>
	<path class="st0" d="M98.88,57.95l-6.46,16.24l-0.98,0.59L65.22,78.1c0,0-2.54,0.2-2.74,0.78c-0.2,0.59,0.39,1.37,2.93,2.74
		c2.54,1.37,95.67,57.13,95.67,57.13l8.41,32.87c0,0,1.37,1.76,0,2.93s-4.5-2.74-4.5-2.74L43.12,77.32L15.92,55.8
		c0,0-5.39-2.44-3.72-4.11c0.98-0.98,8.22-0.2,8.22-0.2l73.17,4.3l3.91,0.2C97.51,55.99,99.66,55.4,98.88,57.95z"/>
	
		<linearGradient id="SVGID_2_" gradientUnits="userSpaceOnUse" x1="174.0039" y1="147.8976" x2="162.2648" y2="71.9845" gradientTransform="matrix(1 0 0 -1 0 207.2756)">
		<stop  offset="0" style="stop-color:#F0DA82"/>
		<stop  offset="1" style="stop-color:#ECC045"/>
	</linearGradient>
	<path class="st1" d="M139.51,58.01l64.43,4.04c0,0,4.04-0.39,4.17,0.52s-0.13,1.7-2.22,3S158.28,98.7,158.28,98.7
		s-1.7,1.7-2.48-1.04s-3.52-13.3-3.52-13.3s-0.65-0.52,0.65-1.83c1.3-1.3,14.35-13.7,14.35-13.7s1.83-1.17,1.43-2.09
		c-0.39-0.91-1.04-0.91-2.61-0.65s-23.74,2.87-23.74,2.87L139.51,58.01z"/>
	
		<linearGradient id="SVGID_3_" gradientUnits="userSpaceOnUse" x1="125.13" y1="187.4815" x2="125.13" y2="78.2227" gradientTransform="matrix(1 0 0 -1 0 207.2756)">
		<stop  offset="0" style="stop-color:#5A4892"/>
		<stop  offset="0.5" style="stop-color:#4C4391"/>
		<stop  offset="1" style="stop-color:#584691"/>
	</linearGradient>
	<path class="st2" d="M127.51,12.1l33.59,126.65l-14.67-8.87L119.3,55.14c0,0-0.52-2.09-1.43-2.09s-1.43,0.65-1.57,2.35
		c-0.13,1.7-9,51.26-9,51.26L89.16,95.58l35.09-83.48c0,0,0.65-1.83,1.57-1.83S127.38,11.32,127.51,12.1z"/>
	
		<linearGradient id="SVGID_4_" gradientUnits="userSpaceOnUse" x1="79.9537" y1="98.3956" x2="79.9537" y2="31.568" gradientTransform="matrix(1 0 0 -1 0 207.2756)">
		<stop  offset="0" style="stop-color:#4C4391"/>
		<stop  offset="1" style="stop-color:#5A4892"/>
	</linearGradient>
	<path class="st3" d="M83.68,108.88l20.35,15.65l-3.65,19.17l-40.83,30.65c0,0-2.09,1.96-3.26,1.17c-1.17-0.78,0.52-3.65,0.52-3.65
		L83.68,108.88z"/>
</g>
</svg>
