<svg xmlns="http://www.w3.org/2000/svg" width="103" height="69.829" viewBox="0 0 103 69.829">
  <path id="pt_logo" d="M331.3,98.628c0-1.6-.011-3.2,0-4.806a4.71,4.71,0,0,1,1.231-3.3,5.163,5.163,0,0,1,6.528-.775c1.356.8,2.7,1.619,4.05,2.428,2.015,1.206,4.04,2.395,6.037,3.628a1.51,1.51,0,0,0,1.414.14,96.353,96.353,0,0,1,10.81-2.9,73.344,73.344,0,0,1,18.3-1.523,40.642,40.642,0,0,1,11.089,1.892,23.863,23.863,0,0,1,8.018,4.235,15.22,15.22,0,0,1,5.645,12.843,23.265,23.265,0,0,1-2.33,8.759,40.872,40.872,0,0,1-6.89,10.263,75.07,75.07,0,0,1-14.073,12.173,102.606,102.606,0,0,1-22.708,11.516,95.94,95.94,0,0,1-15.249,4.209,73.19,73.19,0,0,1-16,1.313,42.291,42.291,0,0,1-12.8-2.211,21.317,21.317,0,0,1-9.1-5.748,14.7,14.7,0,0,1-3.768-8.814,21.481,21.481,0,0,1,2.1-10.638,42.537,42.537,0,0,1,7.712-11.336,80.007,80.007,0,0,1,17.8-14.28c.5-.3.985-.645,1.507-.909a1.149,1.149,0,0,0,.691-1.2c-.038-1.654-.013-3.31-.013-4.965Zm-.061,24.118c-.225.2-.349.29-.449.4a31.725,31.725,0,0,0-5.6,8.62,16.437,16.437,0,0,0-1.595,7.6,8.75,8.75,0,0,0,3.247,6.537,13.793,13.793,0,0,0,7.312,2.767,30.217,30.217,0,0,0,9.237-.517,57.444,57.444,0,0,0,15.144-5.242,59.741,59.741,0,0,0,21.133-17.028,29.974,29.974,0,0,0,4.955-9.357,13.307,13.307,0,0,0,.468-5.856,8.784,8.784,0,0,0-5.034-6.79,14.668,14.668,0,0,0-6.082-1.53,32,32,0,0,0-11.461,1.331c-.212.067-.412.173-.732.309.332.2.546.349.772.474q4.062,2.245,8.127,4.486,3.365,1.852,6.738,3.692a4.5,4.5,0,0,1,2.369,2.978,4.059,4.059,0,0,1-1.49,4.363,21.944,21.944,0,0,1-2.64,1.653Q357.7,132.074,339.734,142.5c-.6.347-1.22.657-1.839.969a4.638,4.638,0,0,1-6.378-3.192,13.625,13.625,0,0,1-.211-2.464c-.024-4.7-.018-9.4-.025-14.095C331.281,123.433,331.257,123.153,331.238,122.746Zm5.572-6.421h.165c0,4.646-.012,9.291.011,13.936a26.056,26.056,0,0,0,.235,2.627,1.025,1.025,0,0,0,.184.513,3.672,3.672,0,0,0,4.688,1.07c8.61-5.044,17.263-10.017,25.9-15.018a8.219,8.219,0,0,0,.936-.612,3.1,3.1,0,0,0-.161-5.062c-.374-.255-.764-.488-1.153-.721q-10.4-6.237-20.8-12.47c-1.534-.919-3.064-1.843-4.6-2.75a3.36,3.36,0,0,0-2.445-.514,3.805,3.805,0,0,0-2.952,3.784Q336.814,108.716,336.809,116.325Zm-22.53,21.116c-.124.3-.207.467-.26.64a14.885,14.885,0,0,0-.632,5.773,11.454,11.454,0,0,0,5.866,9.37A17.068,17.068,0,0,0,325.1,155.3a27.367,27.367,0,0,0,6.2.559,56.112,56.112,0,0,0,9.181-1.3,77.015,77.015,0,0,0,20.436-8.149c.5-.283.975-.619,1.462-.931l-.076-.157c-.547.187-1.1.356-1.639.564a78.064,78.064,0,0,1-14.264,4.139,51.138,51.138,0,0,1-16.8.561,23.852,23.852,0,0,1-8.887-2.99,12.143,12.143,0,0,1-6.258-9.429A6.945,6.945,0,0,0,314.279,137.44Zm78.752-29.059.158-.046a10.744,10.744,0,0,0,.074-1.188,11.669,11.669,0,0,0-5.909-10.1,19.738,19.738,0,0,0-9.411-2.509,38.6,38.6,0,0,0-9.081.609,62.65,62.65,0,0,0-13,3.857c-.182.078-.352.18-.608.312.478.335.871.6,1.253.881a3.2,3.2,0,0,0,2.784.527,52.727,52.727,0,0,1,16.987-1.391A32.8,32.8,0,0,1,384,100.944a15.261,15.261,0,0,1,8.674,6.933A5.739,5.739,0,0,0,393.031,108.382Z" transform="translate(-301.436 -88.94)" fill="#a4e5ff"/>
</svg>
