<svg xmlns="http://www.w3.org/2000/svg" width="86" height="86.006" viewBox="0 0 86 86.006">
  <path id="mg_logo" d="M242.963,275.148a43.02,43.02,0,0,0-41.146,55.53q1.163-1.675,2.315-3.354,4.518-6.617,8.83-13.355l2.121-3.385q1.071-1.688,2.093-3.4c1.394-2.267,2.726-4.563,4.056-6.86.666-1.147,1.288-2.312,1.934-3.466s1.279-2.319,1.878-3.491,1.249-2.331,1.806-3.513l1.709-3.541.122-.249a3.937,3.937,0,0,1,5.212-1.79,4.223,4.223,0,0,1,2.221,3.924v0c0,2.04-.406,4.165-.535,6.256s-.273,4.2-.355,6.3c-.166,4.2-.268,8.4-.212,12.578s.228,8.333.673,12.383a58.539,58.539,0,0,0,.924,5.914,21.1,21.1,0,0,0,1.662,5.077,4.381,4.381,0,0,0,.961,1.346c.25.172.08.089.206.1.016.02.1-.032.158-.022l.133-.047.07-.02.029,0c.1-.044.215-.092.239-.108-.01-.009-.024,0-.024,0a3.572,3.572,0,0,0,.333-.221,11.758,11.758,0,0,0,1.716-1.63,40.569,40.569,0,0,0,3.467-4.656c1.1-1.692,2.156-3.459,3.17-5.26,2.032-3.6,3.931-7.341,5.741-11.127q1.357-2.838,2.651-5.715c.856-1.91,1.713-3.86,2.5-5.75a3.871,3.871,0,0,1,7.39.865l0,.019c.018.5.079,1.132.134,1.709l.2,1.78c.142,1.19.319,2.38.516,3.568.4,2.369.9,4.734,1.534,7.051a47.933,47.933,0,0,0,2.359,6.783,26.787,26.787,0,0,0,3.627,6.119l.014.02a1.03,1.03,0,0,1-1.465,1.436,29.483,29.483,0,0,1-5.2-5.867,52.372,52.372,0,0,1-3.909-6.747c-.761-1.55-1.443-3.132-2.09-4.73-.432.934-.855,1.872-1.3,2.8-1.868,3.9-3.825,7.767-5.972,11.589-1.078,1.91-2.2,3.805-3.433,5.684a47.408,47.408,0,0,1-4.17,5.582A19.191,19.191,0,0,1,244.922,344c-.3.222-.646.442-1,.658-.237.13-.484.259-.729.379l-.411.18-.048.014-.225.091-.157.053-.31.1c-.212.066-.413.132-.633.186a9.028,9.028,0,0,1-1.418.215,8,8,0,0,1-3.1-.384,8.355,8.355,0,0,1-2.6-1.479,11.771,11.771,0,0,1-2.877-3.708,28.426,28.426,0,0,1-2.37-7.019,65.119,65.119,0,0,1-1.058-6.709c-.486-4.424-.67-8.787-.728-13.134-.029-2.083-.019-4.157.012-6.229-.773,1.479-1.551,2.956-2.35,4.417-.645,1.2-1.3,2.4-1.972,3.588l-2,3.564q-4.044,7.108-8.328,14.046-2.765,4.495-5.6,8.923a43,43,0,1,0,35.946-66.6Z" transform="translate(-199.958 -275.148)" fill="#a4e5ff"/>
</svg>
