<svg xmlns="http://www.w3.org/2000/svg" width="109.672" height="41.93" viewBox="0 0 109.672 41.93">
  <g id="bbin_logo" transform="translate(-62.245 -504.391)">
    <path id="路径_21" data-name="路径 21" d="M62.267,529.61a16.278,16.278,0,0,0,.218,2.99c1.217,6.39,4.829,10.864,11.039,12.873,6.226,2.015,11.81.561,16.553-3.949,1.839-1.749,3.593-3.587,5.385-5.387.125-.126.235-.267.358-.409a1.22,1.22,0,0,0-.2-.147,3.958,3.958,0,0,0-.457-.17,9.18,9.18,0,0,0-9.412,2.008,10.058,10.058,0,0,1-9.253,2.774,10.4,10.4,0,0,1,3.509-20.481,11.215,11.215,0,0,1,6.489,3.532q9.066,9.167,18.2,18.263a16.26,16.26,0,0,0,22.6.485q5.682-5.229,11.35-10.472c.18-.166.37-.32.666-.575v15.391a5.036,5.036,0,0,0,4.807-2.446,9.054,9.054,0,0,0,1.181-4.814V526.01a1.583,1.583,0,0,1,.449-1c.921-.923,1.892-1.8,2.854-2.676a10.364,10.364,0,0,1,17.366,7.743c.034,3.307-.013,6.616.04,9.923a7.359,7.359,0,0,0,1.36,4.261,5.2,5.2,0,0,0,4.529,2.116c.014-.26.014-11.338,0-16.672a12.648,12.648,0,0,0-.178-2.225C170.6,521.307,167.18,516.9,161.3,514.7c-5.851-2.189-11.3-1.138-16.184,2.784-.226.182-.446.369-.675.56-1.273-2.17-3.166-3.271-5.132-2.963,0,.237,0,.487,0,.737.007,2.12.034,4.24,0,6.359a1.56,1.56,0,0,1-.432,1.007c-1.962,1.857-3.959,3.677-5.947,5.507-.113.1-.238.194-.378.308-.741-6.77-4.02-11.73-10.365-14.217s-12.143-1.077-17.329,3.387c0-2.2-.009-4.272,0-6.342a8.487,8.487,0,0,0-1.455-5.348,4.959,4.959,0,0,0-4.455-2c-.016.208-.039.366-.039.524q.008,9.4.009,18.8a.642.642,0,0,0,.549.721,9.2,9.2,0,0,0,9.641-2.007,10.338,10.338,0,1,1,14.124,15.1c-4.148,3.9-10.44,3.606-14.58-.554q-9.292-9.337-18.6-18.653a16.227,16.227,0,0,0-21.207-1.541c-.179.132-.366.254-.637.441,0-1.893-.016-3.678.005-5.462a9.551,9.551,0,0,0-.867-4.4,5.078,5.078,0,0,0-5.1-2.953v1.224Q62.251,517.66,62.267,529.61Z" transform="translate(0 -0.054)" fill="#a4e5ff"/>
    <path id="路径_22" data-name="路径 22" d="M367.613,512.4a34,34,0,0,0,2.711-2.6,3.3,3.3,0,0,0-.421-4.536,3.394,3.394,0,0,0-4.572.033,3.338,3.338,0,0,0-.311,4.6C365.829,510.817,366.785,511.607,367.613,512.4Z" transform="translate(-225.422)" fill="#a4e5ff"/>
  </g>
</svg>
