<svg xmlns="http://www.w3.org/2000/svg" xmlns:xlink="http://www.w3.org/1999/xlink" width="90" height="78.891" viewBox="0 0 90 78.891">
  <defs>
    <clipPath id="clip-path">
      <path id="路径_30" data-name="路径 30" d="M825.36,194.542l-1.164,4.982s8.669-.033,10.435,0a8.754,8.754,0,0,1-5.729,5.963,19.451,19.451,0,0,1-4.541.56c-2.464,0-6.975-2.525-7.068-7.159a15.891,15.891,0,0,1,1.112-7.261,10.532,10.532,0,0,1,4.358-4.779,12.375,12.375,0,0,1,6.116-1.547c1.9,0,5.566,2.275,5.844,5.52h6.861c.277-3.06-1.745-6.187-4.081-7.788a14.22,14.22,0,0,0-8.693-2.694,18.841,18.841,0,0,0-10.086,2.643,18.332,18.332,0,0,0-8.107,15.518c0,10.4,9.445,12.671,13.583,12.671a29.373,29.373,0,0,0,7.838-1.058c2.563-.7,8.9-3.334,10.132-15.571C839.792,194.729,825.36,194.542,825.36,194.542Z" transform="translate(-810.618 -180.34)" fill="#a4e5ff"/>
    </clipPath>
    <clipPath id="clip-path-2">
      <path id="路径_33" data-name="路径 33" d="M795.547,182.449a11.956,11.956,0,0,0-4.175-1.221,44.569,44.569,0,0,0-5.2-.2H774.738l-7,29.817H783.5c3.483,0,6.121,0,8.128-.706s4.921-4.094,4.921-8.568a6.235,6.235,0,0,0-4.172-5.635,11.381,11.381,0,0,0,5.111-3.365,6.423,6.423,0,0,0,1.551-4.3,6.571,6.571,0,0,0-.89-3.376A6.448,6.448,0,0,0,795.547,182.449Zm-6.024,21.539a4.712,4.712,0,0,1-2.281,1.576,21.064,21.064,0,0,1-5.6.479H775l1.825-7.79h8.214a6.765,6.765,0,0,1,4.107.965,2.99,2.99,0,0,1,1.232,2.452A3.716,3.716,0,0,1,789.523,203.987Zm2.025-12.834a4.644,4.644,0,0,1-2.483,1.466,23.246,23.246,0,0,1-5.43.446h-5.6l1.777-7.057h5.7a35.269,35.269,0,0,1,3.872.122,4.174,4.174,0,0,1,2.215.976,2.454,2.454,0,0,1,.78,1.871A3.383,3.383,0,0,1,791.548,191.153Z" transform="translate(-767.733 -181.025)" fill="#a4e5ff"/>
    </clipPath>
  </defs>
  <g id="bg_logo" transform="translate(-749.409 -150.377)">
    <g id="组_6" data-name="组 6" transform="translate(749.409 150.377)">
      <path id="路径_26" data-name="路径 26" d="M834.7,177.638c-.643-7.389-3.428-14.078-8.435-18.836-.469-.446-.955-.867-1.45-1.278-.135-.112-.271-.221-.408-.331q-.629-.5-1.282-.969c-.094-.067-.186-.138-.28-.2-.519-.361-1.051-.7-1.593-1.028-.139-.083-.28-.163-.421-.244q-.656-.381-1.332-.729c-.145-.074-.289-.152-.436-.225-.565-.28-1.138-.544-1.722-.789-.117-.049-.236-.092-.353-.141q-.732-.3-1.481-.558c-.174-.061-.35-.122-.525-.18-.6-.2-1.2-.384-1.817-.549l-.1-.025c-.609-.161-1.226-.3-1.847-.428-.186-.038-.371-.074-.558-.109q-.8-.15-1.605-.265c-.129-.018-.257-.041-.386-.057-.65-.085-1.305-.15-1.966-.2-.175-.014-.352-.023-.528-.033q-.8-.05-1.6-.066c-.176,0-.351-.01-.527-.011-.091,0-.18-.006-.271-.006-.564,0-1.132.017-1.7.041l-.4.021a42.108,42.108,0,0,0-4.245.442l-.365.056q-1.038.171-2.081.394c-.124.026-.248.055-.372.083-.719.16-1.439.333-2.159.531l-.031.009a55.133,55.133,0,0,0-5.946-.338c-16.608,0-30.855,7.735-35.523,20.9-3.168,8.938-1.323,18.71,4.218,27.337v0a31.3,31.3,0,0,0,8.178,19.864c10.339,11.011,28.549,12.653,44.623,4.112,14.127-1.55,25.76-8.937,29.89-20.589C840.821,194.9,839.407,185.828,834.7,177.638ZM755.157,199.3q-.047-1.112-.028-2.238c.193-11.082,5.229-23.035,15.339-32.529a53.617,53.617,0,0,1,18.454-11.467c1.161-.418,2.325-.793,3.488-1.112.09.009.18.014.271.024l.293.032c.417.047.837.106,1.256.162.282.04.565.086.847.129.477.071.956.154,1.435.238q.834.151,1.672.327c.18.038.361.076.543.116.725.161,1.451.333,2.178.523.077.02.155.043.232.064.658.174,1.317.364,1.975.563l.558.171c.731.228,1.462.467,2.192.726q1.184.419,2.334.883c.254.1.5.212.753.317.511.213,1.021.426,1.522.652.286.128.565.263.848.4.458.215.915.43,1.364.655.286.143.567.29.85.437.438.228.873.458,1.3.694.273.15.543.3.812.458q.648.371,1.282.756c.25.152.5.3.746.46.44.277.872.558,1.3.845.216.144.434.288.647.434.464.32.92.647,1.371.979.165.121.333.24.5.362q.8.6,1.577,1.233c.068.056.14.11.208.165q1.537,1.259,2.937,2.6c.727.694,1.431,1.4,2.1,2.122l.024.027q.743.8,1.438,1.622c.043.05.083.1.125.151q.644.767,1.247,1.55c.05.065.1.132.15.2q.588.772,1.135,1.56l.125.18.008.012q.553.808,1.064,1.631l.02.032.068.11q.54.878,1.03,1.769l.01.019c.073,1.069.084,2.157.068,3.25-.175,11.724-5.438,24.61-15.629,34.18a52.775,52.775,0,0,1-7.711,6.006c-1.085.694-2.183,1.345-3.292,1.941q-.761.091-1.532.162c-.658.059-1.323.1-1.99.136q-.308.016-.616.028-.866.034-1.741.041c-.119,0-.236.005-.355.005h-.026c-.7,0-1.4-.018-2.107-.046l-.38-.016-.054,0h0c-.584-.028-1.172-.069-1.759-.115-.272-.022-.544-.044-.817-.07-.586-.056-1.173-.117-1.762-.191l-.477-.062c-.35-.047-.7-.106-1.052-.16a60.015,60.015,0,0,1-10.571-2.7C770.564,216.342,760.8,208.429,755.157,199.3Z" transform="translate(-749.409 -150.377)" fill="#a4e5ff"/>
      <path id="路径_27" data-name="路径 27" d="M758.907,215.618l.013.018-.013-.019Z" transform="translate(-751.868 -166.586)" fill="#a4e5ff"/>
    </g>
    <g id="组_8" data-name="组 8" transform="translate(796.022 173.101)">
      <path id="路径_28" data-name="路径 28" d="M825.36,194.542l-1.164,4.982s8.669-.033,10.435,0a8.754,8.754,0,0,1-5.729,5.963,19.451,19.451,0,0,1-4.541.56c-2.464,0-6.975-2.525-7.068-7.159a15.891,15.891,0,0,1,1.112-7.261,10.532,10.532,0,0,1,4.358-4.779,12.375,12.375,0,0,1,6.116-1.547c1.9,0,5.566,2.275,5.844,5.52h6.861c.277-3.06-1.745-6.187-4.081-7.788a14.22,14.22,0,0,0-8.693-2.694,18.841,18.841,0,0,0-10.086,2.643,18.332,18.332,0,0,0-8.107,15.518c0,10.4,9.445,12.671,13.583,12.671a29.373,29.373,0,0,0,7.838-1.058c2.563-.7,8.9-3.334,10.132-15.571C839.792,194.729,825.36,194.542,825.36,194.542Z" transform="translate(-810.618 -180.34)" fill="#a4e5ff"/>
      <g id="组_7" data-name="组 7" clip-path="url(#clip-path)">
        <path id="路径_29" data-name="路径 29" d="M848.106,176.892C846.8,188.957,827.813,196.8,805.7,194.4s-38.98-14.116-37.675-26.179,20.291-19.9,42.405-17.511S849.411,164.829,848.106,176.892Z" transform="translate(-799.572 -172.558)" fill="#a4e5ff"/>
      </g>
    </g>
    <g id="组_10" data-name="组 10" transform="translate(763.285 173.61)">
      <path id="路径_31" data-name="路径 31" d="M795.547,182.449a11.956,11.956,0,0,0-4.175-1.221,44.569,44.569,0,0,0-5.2-.2H774.738l-7,29.817H783.5c3.483,0,6.121,0,8.128-.706s4.921-4.094,4.921-8.568a6.235,6.235,0,0,0-4.172-5.635,11.381,11.381,0,0,0,5.111-3.365,6.423,6.423,0,0,0,1.551-4.3,6.571,6.571,0,0,0-.89-3.376A6.448,6.448,0,0,0,795.547,182.449Zm-6.024,21.539a4.712,4.712,0,0,1-2.281,1.576,21.064,21.064,0,0,1-5.6.479H775l1.825-7.79h8.214a6.765,6.765,0,0,1,4.107.965,2.99,2.99,0,0,1,1.232,2.452A3.716,3.716,0,0,1,789.523,203.987Zm2.025-12.834a4.644,4.644,0,0,1-2.483,1.466,23.246,23.246,0,0,1-5.43.446h-5.6l1.777-7.057h5.7a35.269,35.269,0,0,1,3.872.122,4.174,4.174,0,0,1,2.215.976,2.454,2.454,0,0,1,.78,1.871A3.383,3.383,0,0,1,791.548,191.153Z" transform="translate(-767.733 -181.025)" fill="#a4e5ff"/>
      <g id="组_9" data-name="组 9" clip-path="url(#clip-path-2)">
        <path id="路径_32" data-name="路径 32" d="M848.106,176.892C846.8,188.957,827.813,196.8,805.7,194.4s-38.98-14.116-37.675-26.179,20.291-19.9,42.405-17.511S849.411,164.829,848.106,176.892Z" transform="translate(-767.79 -173.066)" fill="#a4e5ff"/>
      </g>
    </g>
  </g>
</svg>
