<svg xmlns="http://www.w3.org/2000/svg" width="111.389" height="60" viewBox="0 0 111.389 60">
  <g id="jdb_logo" transform="translate(-104.749 -67.435)">
    <path id="路径_24" data-name="路径 24" d="M104.749,125.994c1.848-2.4,3.712-4.787,5.531-7.208a1.115,1.115,0,0,1,1.478-.484,13.354,13.354,0,0,0,3.27.694c4.523.284,7.979-2.368,9.245-7.126,2.933-11.027,5.77-22.08,8.769-33.088a4.234,4.234,0,0,0-.881-4.431c-1.763-2.028-3.3-4.256-5.026-6.524h18.516c-.479,1.847-.95,3.683-1.43,5.517Q139.079,93,133.936,112.65c-2.2,8.414-8.532,19.043-29.187,13.569Z" transform="translate(0 -0.286)" fill="#a4e5ff"/>
    <path id="路径_25" data-name="路径 25" d="M245.388,114.292c.764-2.858,1.492-5.591,2.225-8.323Q251.5,91.485,255.4,77.008a1.834,1.834,0,0,0-.386-1.822c-1.949-2.5-3.857-5.023-5.885-7.677.466-.03.778-.068,1.09-.068q27.185,0,54.37.008c4.4.006,8.345,1.216,11.194,4.85a11.959,11.959,0,0,1,.827,14.307c-.979,1.567-2.248,2.953-3.454,4.512a12.26,12.26,0,0,1,2.512,8.138,13.654,13.654,0,0,1-4.953,10.164,18.672,18.672,0,0,1-12.561,4.894c-17.339.044-34.677.02-52.016.02C245.961,114.333,245.778,114.314,245.388,114.292Zm11.6-8.726c2.453,0,4.811.146,7.145-.025A20.258,20.258,0,0,0,283.3,86.25c.368-5.114-2.031-8.67-7.067-9.572-3.348-.6-6.83-.441-10.248-.667-.839-.056-1.157.259-1.363,1.049-1.353,5.2-2.753,10.38-4.145,15.566Q258.738,99.105,256.988,105.566Zm26.03.161c5.551,0,10.81.1,16.062-.042a8.632,8.632,0,0,0,6.621-3.292,4.528,4.528,0,0,0,.678-4.748c-.633-1.62-2.045-2.182-3.645-2.371a13.638,13.638,0,0,0-1.566-.056c-3.174,0-6.35.068-9.52-.037A2.222,2.222,0,0,0,289.1,96.79,28.573,28.573,0,0,1,283.018,105.727Zm8.859-19.238c4.078,0,8,.13,11.908-.044a6,6,0,0,0,5.484-4.567c.7-2.785-.559-4.935-3.348-5.58a11.761,11.761,0,0,0-2.555-.26c-4.108-.026-8.217-.013-12.326-.009-.317,0-.634.044-1.1.079A19.362,19.362,0,0,1,291.877,86.489Z" transform="translate(-102.466)" fill="#a4e5ff"/>
  </g>
</svg>
