<svg id="allbet_logo" xmlns="http://www.w3.org/2000/svg" xmlns:xlink="http://www.w3.org/1999/xlink" width="160.396" height="149.453" viewBox="0 0 160.396 149.453">
  <defs>
    <linearGradient id="linear-gradient" y1="0.5" x2="1" y2="0.5" gradientUnits="objectBoundingBox">
      <stop offset="0" stop-color="#eec568"/>
      <stop offset="0.509" stop-color="#7a5c07"/>
      <stop offset="1" stop-color="#e7bc68"/>
    </linearGradient>
    <linearGradient id="linear-gradient-2" x1="0" y1="0.5" x2="1" y2="0.5" xlink:href="#linear-gradient"/>
    <linearGradient id="linear-gradient-3" x1="0.001" y1="0.5" x2="0.998" y2="0.5" xlink:href="#linear-gradient"/>
    <linearGradient id="linear-gradient-4" x1="0" y1="0.5" x2="1" y2="0.5" xlink:href="#linear-gradient"/>
    <linearGradient id="linear-gradient-5" x1="-0.001" y1="0.5" x2="1" y2="0.5" xlink:href="#linear-gradient"/>
    <linearGradient id="linear-gradient-6" x1="0" y1="0.5" x2="1" y2="0.5" xlink:href="#linear-gradient"/>
    <linearGradient id="linear-gradient-7" x1="0" y1="0.5" x2="1" y2="0.5" xlink:href="#linear-gradient"/>
    <linearGradient id="linear-gradient-9" x1="0" y1="0.5" x2="1" y2="0.5" xlink:href="#linear-gradient"/>
    <linearGradient id="linear-gradient-10" x1="-0.001" y1="0.501" x2="1" y2="0.501" xlink:href="#linear-gradient"/>
    <linearGradient id="linear-gradient-12" x1="0.74" y1="1.117" x2="0.207" y2="0.159" gradientUnits="objectBoundingBox">
      <stop offset="0" stop-color="#b79671"/>
      <stop offset="0.509" stop-color="#fef1d9"/>
      <stop offset="1" stop-color="#b69672"/>
    </linearGradient>
    <linearGradient id="linear-gradient-13" x1="0.69" y1="1.152" x2="0.197" y2="-0.106" xlink:href="#linear-gradient-12"/>
    <linearGradient id="linear-gradient-14" x1="0.824" y1="0.987" x2="0.259" y2="0.062" xlink:href="#linear-gradient-12"/>
  </defs>
  <g id="组_63" data-name="组 63" transform="translate(0)">
    <path id="路径_215" data-name="路径 215" d="M682.915,235.5a12.16,12.16,0,0,0-2.152,2.344C682.421,236.287,683.379,235.206,682.915,235.5Z" transform="translate(-563.214 -110.671)" fill="url(#linear-gradient)"/>
    <path id="路径_216" data-name="路径 216" d="M656.381,70.364s.329-.731.7-1.558A2.614,2.614,0,0,0,656.381,70.364Z" transform="translate(-555.636 -58.877)" fill="url(#linear-gradient-2)"/>
    <path id="路径_217" data-name="路径 217" d="M510.363,167.082c-.13,1.329-.16,2.094-.16,2.094S510.255,168.383,510.363,167.082Z" transform="translate(-510.203 -89.422)" fill="url(#linear-gradient-3)"/>
    <path id="路径_218" data-name="路径 218" d="M624.858,101.475c1.458-1.326,2.784-2.519,2.784-2.519a3.485,3.485,0,0,0-2.519,1.326,3.389,3.389,0,0,0-.645,1.606A2.632,2.632,0,0,1,624.858,101.475Z" transform="translate(-545.721 -68.248)" fill="url(#linear-gradient-4)"/>
    <path id="路径_219" data-name="路径 219" d="M624.3,103.709a3.763,3.763,0,0,0,.113-.5C624.255,103.429,624.231,103.592,624.3,103.709Z" transform="translate(-545.654 -69.57)" fill="url(#linear-gradient-5)"/>
    <path id="路径_220" data-name="路径 220" d="M642.437,57.854a3.411,3.411,0,0,0,1.13.8C642.633,57.744,641.83,57.179,642.437,57.854Z" transform="translate(-551.237 -55.381)" fill="url(#linear-gradient-6)"/>
    <path id="路径_221" data-name="路径 221" d="M700.046,135.693a10.1,10.1,0,0,1-.418.933c.008,0,.012-.006.02-.006C700.311,136.621,700.046,135.693,700.046,135.693Z" transform="translate(-569.078 -79.666)" fill="url(#linear-gradient-7)"/>
    <path id="路径_222" data-name="路径 222" d="M666.96,100.882c-3.579-.8-5.7-.8-7.556,1.061s-.928,3.447-2.254,4.9-2.651,2.518-4.507,1.723a2.052,2.052,0,0,0-1.855-1.988,6.039,6.039,0,0,1-3.314-2.254s-1.325,0-1.193-1.723.53-4.507-1.193-5.833-4.64-2.916-4.64-3.712,1.458-4.9-.265-6.893-2.916-3.049-2.916-4.374a4.986,4.986,0,0,0-.663-2.386l1.458.4a1.74,1.74,0,0,0-.663-1.724c-.928-.8-1.855-1.193-1.988-2.254a34.858,34.858,0,0,0-.53-4.772c-.4-1.458.132-3.711.663-3.844s1.988.663,2.784-.8A3.405,3.405,0,0,0,637,62.042c-1.458-.8.8.53.8,1.988s-.265,2.121-1.193,1.724-2.518-1.193-2.386.4a13.143,13.143,0,0,1-.132,3.048s-1.724-2.518-2.254-3.181-1.591-.265-.53,1.061,2.651,3.447,2.651,4.242-.132,1.458-.928,1.458-1.325.8-.53,1.193,1.06,2.386,1.458,3.048a.558.558,0,0,0,.928.133,18.033,18.033,0,0,0,.4,4.109c.4.928,1.458,3.977,0,3.579s-1.458-2.386-1.988-3.181-1.061-.265-1.458-.265a3.394,3.394,0,0,1-1.988-2.121c-.53-1.325-1.988-1.723-1.988-3.181s1.591-2.784.265-3.579-2.784-.663-2.784-1.724-.8-.928-.928-1.458a3.936,3.936,0,0,1,.8-3.712s-1.988.928-2.121,2.651a7.148,7.148,0,0,0,0,2.121s-1.458-1.194-3.049-2.651-2.254-1.988-3.579-1.458a1.946,1.946,0,0,0-.79.742,4.167,4.167,0,0,1-1.171,3.325,4.895,4.895,0,0,0,.1,2.3c.663,1.724.53,3.844,2.121,3.844s2.651-.53,2.917.265a3.981,3.981,0,0,0,1.988,2.916c1.856,1.326,4.109,3.314,4.772,3.712s3.181,3.579,1.061,2.253-3.181-3.446-4.11-3.579-.265,1.061-1.458-.53-1.856-1.988-1.856-1.458-.132.133-.928-.8-1.458-1.458-1.06-.265.928,2.121-.663.928-3.711-2.917-3.977-3.844-.8.53-1.193-1.723-.53-2.519.265-2.651a4.536,4.536,0,0,0,2.016-1.369,8.52,8.52,0,0,1,1.171-3.325c0-.026,0-.052-.006-.079-.4-2.784-2.254-1.458-2.254-1.458s1.193-1.591-.53-1.591a1.636,1.636,0,0,0-1.158.43c-.369.828-.7,1.558-.7,1.558a2.615,2.615,0,0,1,.7-1.558c.335-.75.7-1.58.893-2.021.4-.928.4-1.193,1.193-1.591.044-.022.085-.04.125-.056a5.358,5.358,0,0,1-1.052-.21c-1.856-.53-3.314-.928-3.977-2.518a5.789,5.789,0,0,0-4.109-3.447c-2.121-.531,2.784,1.458,3.181,3.447s.663,5.037-.132,4.507-.663-2.518-1.856-3.447c-.873-.678-2.239-.794-3.378-1.323.9.875,1.919,2.066,1.919,2.782,0,1.458-.4,4.374-1.988,1.723s-2.916-5.037-3.579-5.037,2.254,4.9,2.784,6.893,2.121,4.374.132,4.374-3.579.4-3.579-1.458a10.905,10.905,0,0,1-2.386-.265c-.928-.265-1.856-.663-.265-1.988s2.254-4.374,2.254-4.374-3.049,3.711-4.374,4.374-1.591,1.458-2.916.8-2.519-1.325-3.182-1.061-1.855-.928-.53-2.916,2.917-4.242-.265-5.3l-3.048.928s3.314-.531,3.314.662-.8,1.458-1.458,3.181a6.644,6.644,0,0,0-.132,3.58c0,.662-.928.132-1.325-.531s-.4-.265-2.121-.8-2.518-1.193-2.518-.132.663,1.325-.4,1.325H577.88s-3.314-.4-4.374.531-1.458,3.579-3.314,3.579-4.9.4-2.253-1.326S571.12,64.3,572.18,63.9s5.17-1.193,5.17-1.193a8.985,8.985,0,0,0-5.833.663c-2.784,1.458-5.965,3.446-7.689,3.579s-4.374-.133-5.833.53-3.977.4-7.29,2.651-11.8,7.556-13.919,9.279a96.763,96.763,0,0,0-13.256,13.786c-4.64,6.1-9.677,16.3-11.135,23.6a149.034,149.034,0,0,0-1.962,15.27c.505-5.215,2.55-19.259,10.445-31.31,10.075-15.377,11.135-15.51,19.088-21.209a19.54,19.54,0,0,1,3.712-2.386s-4.773,4.9-5.966,6.495l2.917-1.591s-9.279,7.821-11.665,11.4-11.665,15.907-12.858,31.019-.265,28.367,8.086,42.021a100.264,100.264,0,0,0,18.16,22l6.23,5.435s-14.316-7.821-20.679-15.642-12.2-20.944-13.521-25.186a69.213,69.213,0,0,1-1.988-8.219s1.06,16.04,7.556,25.981,16.437,20.149,20.811,23.2,14.581,6.363,14.581,6.363-4.241-2.254-4.772-3.712,1.326-.132,2.651-.132,3.844-1.325,5.833.531,4.507,2.916,7.821,3.977a75.474,75.474,0,0,0,14.051,2.651c3.977.265,7.688.133,14.316-1.591s15.377-5.037,19.089-7.29,15.51-12.858,19.221-16.04a29.618,29.618,0,0,0,5.037-5.17s-9.279,7.688-12.063,9.676c0,0,.58-.837,1.295-1.765a48.783,48.783,0,0,1-8.321,6.4,83.2,83.2,0,0,0-9.942,6.893c-.8.53-2.121,1.855-3.977,1.855s-2.519,1.061-4.242,1.458-3.977.928-5.7.4a25.6,25.6,0,0,0-8.086-.928,89.554,89.554,0,0,1-9.147-.132s18.559-1.856,24.921-4.11,14.317-7.026,19.619-10.472,11.665-9.412,14.582-14.847c0,0-10.34,9.545-14.714,11.665s-4.374,1.325-6.1,2.386-5.7,2.519-7.158,4.11-12.858,5.833-15.112,6.23-14.316,3.048-20.944,1.193-5.965-.928-8.882-2.121-2.518-2.386-5.7-2.784-5.3-.928-6.893-2.518-2.784-2.386-3.844-2.386-.928-.4-3.049-.928-2.784-.8-2.784-1.458,2.386-.928-.4-2.519-6.363-5.567-7.158-6.628a10.627,10.627,0,0,0-3.049-2.518c-.928-.531-2.518-2.121-1.723-1.856s2.518.265,1.458-.8-1.988-.928-2.651-2.121-3.314-4.507-3.447-5.7a54.168,54.168,0,0,0-1.856-6.363c-.53-1.591-.265.265-1.325-2.121s-2.121-11.4-2.254-15.642,1.988-18.028,2.784-20.944,1.988-5.3,3.844-6.761,5.7-4.772,4.772-2.784-3.181,3.977-4.109,4.9-3.314,2.916-3.58,4.64c0,0,4.375-5.17,5.568-5.435s2.784.662,3.579-1.856,1.988-5.17,3.049-5.965,5.435-4.64,8.219-5.7,6.363-3.711,4.639-6.1-3.579-2.519-2.651-4.242,3.579-4.374,4.507-4.374,3.447-.8,3.712.928,1.325,1.591,1.988,1.591,1.723-.53,1.061,1.591.265,4.11.53,5.567-1.724,5.037,1.591,7.159,11.042.8,9.677.8c-4.374,0-7.159,0-8.086-1.061s-2.254-1.856-2.254-3.844.531-1.723.8-3.181-.662-1.458-.8-2.784.133-3.579.663-3.579.928,2.253,2.254,3.711,2.518,2.386,3.977,1.856,3.711-1.723,4.242-1.723,2.916.4,4.109-.4a14.323,14.323,0,0,0,3.049-2.387c.8-.928,2.121-1.193,3.447-3.048s0-1.193-.265-2.784,3.181-1.724,4.11-1.591,3.048,2.387-.4,3.712c0,0,.265.8,1.458.4s1.061.53,1.061.53-.132.265,1.458-.662,4.109-1.591,3.977-2.917,1.988-1.325,2.386.4,1.724,2.386,2.651,1.193,1.723-2.518,2.386-2.518,1.193.4,2.651.53,1.855-.928,4.242-.265,6.23.8,4.639,1.724-1.591,1.325-3.977.53-5.833-.4-6.495.265-2.784,1.061-.928,2.518a13.443,13.443,0,0,0,3.314,1.988,4.861,4.861,0,0,1-3.977-.4c-1.724-1.193-3.182-.662-2.386.265a22.265,22.265,0,0,1,1.988,3.447,4.348,4.348,0,0,0-1.724.132c-.928.265-.53,2.121-2.651,2.386s-4.639.133-2.784-1.193,3.654-3.774,2.784-3.048a8.314,8.314,0,0,1-2.916,2.121c-.886.266-2.006.351-2.216-.016-.1.31-.291.419-.833.148-1.325-.662-1.988-.4-1.988,0s.53,2.121.53,2.651-2.386-.663-2.386-.663a6.933,6.933,0,0,1,1.988,2.254c.8,1.458.8,2.386.4,2.386s-1.988.133-1.988.133a38.593,38.593,0,0,0,4.375.53c1.325,0,3.314-.4,3.579,1.458s0,2.518-.663,3.048c0,0,1.591,0,3.049-2.253s1.458-4.64,3.049-4.9,2.916.265,3.446-1.061,2.254-3.048,2.519-3.711,1.458-2.519,2.518-2.519,2.121-.132,2.519-.662a4.01,4.01,0,0,0,.265-1.988s2.121,1.458,2.121,2.651-1.458,1.591-.8,2.254,1.193-1.06,3.447-.4,3.314,1.724,4.639,1.326,3.447,1.458-.132,1.325-4.109-2.121-4.9-1.856,0,0,.8,1.458.662,2.121,2.253,2.386,2.519,1.193,1.458,2.386.265,1.458.8.928,1.061-1.856,1.988-1.326a5.611,5.611,0,0,0,2.784.265s-2.253.4-2.253,1.591a4.424,4.424,0,0,0,1.723,3.977,8.136,8.136,0,0,1,3.049,4.64,3.306,3.306,0,0,0,1.591,2.651c.8.53,1.723,1.591.8,1.325s-3.181-2.916-3.977-2.121-1.591,1.855-3.181.662a27.067,27.067,0,0,0-4.773-2.916l-.8-.265a17.943,17.943,0,0,1,3.579,2.519c1.326,1.325,1.989,1.988,3.314,1.855s2.254-1.193,3.181-.53,3.049,2.519,3.049,2.519.928.662-.663.8-.928.8-2.386-.133a6.492,6.492,0,0,0-3.844-.53,6.572,6.572,0,0,1,3.314,1.325c1.458,1.193,1.988,1.193,2.784.928s1.856-1.061,1.856-.531a5.962,5.962,0,0,0,1.193,3.447,48.855,48.855,0,0,0,4.64,3.314l.928,1.06a40.446,40.446,0,0,0-3.181,2.917c-.8.928-4.242,3.977-3.447,5.567a2.494,2.494,0,0,0,3.977.928,6.178,6.178,0,0,0,1.591-1.855s-2.386,1.591-3.579.8-.53-2.519.8-3.314a21.722,21.722,0,0,0,4.242-3.579c1.061-1.193,1.061-1.723,2.254-1.458s.662,1.724,2.916.4,2.254-1.988,2.254-1.988a5.957,5.957,0,0,1-2.519,0c-1.723-.265-2.784-.132-2.121-.8s1.723-.663,1.325-1.061-1.591-1.193-1.591-1.591a11.939,11.939,0,0,0,.265-1.723,7.1,7.1,0,0,1,.094-1.207c-.331.36-.693.522-1.022.146a3.348,3.348,0,0,1-.8-2.651c0-.662-.531-2.253.4-2.253s3.579,0,4.241.8,1.326,1.193,1.326,1.591-1.458,1.193-1.458,1.193a8.933,8.933,0,0,1,2.254.4c.4.265.928,1.061-.132,1.856a6.377,6.377,0,0,0-1.591,1.723l2.916-1.193a7.288,7.288,0,0,0,.132,2.254c.265.8,3.181,3.314,4.242,4.374s2.651,4.9,2.917,5.965c0,0-.354-5.17-2.475-6.628s-2.3-3.977-2.828-4.64c0,0,2.254,1.724,3.181,1.724s2.784.265,2.651-.8a11.32,11.32,0,0,0-1.458-3.181,6.485,6.485,0,0,1-.4-2.784s2.254.4,3.447-.4,3.181-2.386,3.579-4.639,1.724-3.712,4.64-3.712,5.7,1.458,5.833,2.917.265,3.844-1.193,4.639a2.283,2.283,0,0,0,2.121-2.386C670.671,104.461,670.539,101.677,666.96,100.882Zm-104.721,95.31c2.651,1.061,2.254-.4,2.254-.4a38.09,38.09,0,0,0,4.242,1.856c1.06.265,1.325-.4,1.723-.4s-.132.928,2.254,1.723,2.386.265,4.109,0a9.594,9.594,0,0,1,4.64.265,28.264,28.264,0,0,0,7.556,0c1.06-.132,5.7-.132,5.7-.132s-.132.265-5.567,1.458-7.556,1.326-8.749.531-4.241-.928-4.241-.928a3.484,3.484,0,0,1-2.386.8c-1.591,0-1.193-1.06-3.314-1.325s-3.049,1.325-3.977,0-2.784-1.458-3.844-2.121-6.1-4.242-6.1-4.242A46.194,46.194,0,0,0,562.238,196.192ZM576.422,74.547c2.033,0,2.121-.176,3-.618s-.176-1.591-.176-1.591c.353-.088,2.828.707,2.386,1.149a2.182,2.182,0,0,1-1.326.707,2.164,2.164,0,0,0-1.414.707c-.354.442.265,0-1.414.354a7.576,7.576,0,0,0-3,1.5S574.389,74.547,576.422,74.547ZM536.831,98.673A4.665,4.665,0,0,1,534,101.235a16.873,16.873,0,0,0-1.856.531c-.884.354-2.828,1.944-4.153,2.74s.088-.531.353-1.68,1.768-2.562,1.768-2.828l-.707,2.3a7.779,7.779,0,0,0,1.856-.884c.53-.442.972-1.5,1.5-.972s1.767-.706,2.916-1.591a18.812,18.812,0,0,0,2.651-2.916S537.538,97.259,536.831,98.673Zm2.032-6.982c-.618.53-2.651,1.767-3,2.916s-1.591,1.944-2.829,2.828-2.74,2.121-2.121.972a42.559,42.559,0,0,1,7.777-7.6,31.838,31.838,0,0,0,4.86-4.242S539.482,91.161,538.863,91.691ZM552.65,74.017c-1.5.972-6.717,5.921-9.279,7.423a13.679,13.679,0,0,0-3.977,3.535s2.3-3.712,4.241-4.6a15.854,15.854,0,0,0,4.949-3.447,28.475,28.475,0,0,1,3.447-3.093l-3.27,1.149a7.525,7.525,0,0,1,3.8-2.474c2.3-.53,3.8-1.591,5.125-2.032a22.981,22.981,0,0,1,3.535-.707l-4.153-.354a22.281,22.281,0,0,1,6.186-.265l2.209.442a33.069,33.069,0,0,0-6.1,1.149A36.58,36.58,0,0,0,552.65,74.017Zm12.018,4.507a24.854,24.854,0,0,0-3.711.619c-1.768.354-2.563.884-4.242.265s-1.856-.531-2.121-1.944c0,0,.8,1.149,3.446,1.149s3.8-.619,5.3-.707a4.948,4.948,0,0,1,2.629.606c.021.007.022.012.022.012l-.022-.012A5.274,5.274,0,0,0,564.668,78.524Zm8.926,1.237c-1.5.707-2.562,1.591-3.977,2.21a13.182,13.182,0,0,1-3.447.8s.8-.265,2.74-1.061,2.828-2.209,4.418-3.092a5.8,5.8,0,0,1,3.888-.177l2.121.707S575.1,79.054,573.594,79.761Zm12.019-5.656c.176,1.5-1.149,1.856-2.651,1.856a31.549,31.549,0,0,0-4.684.707c.972-1.238,2.3-1.061,3.977-1.414s1.768-.354,1.768-.354C586.231,73.222,585.436,72.6,585.613,74.105Zm9.1-4.86a3.63,3.63,0,0,1-1.679,1.5,3.681,3.681,0,0,0-1.856,2.121c-.354.884.442,2.828.442,2.828s-1.237-1.591-2.032-2.474a2.4,2.4,0,0,1-.176-2.828c.442-.884.176-3.182,1.237-3.182S595.6,66.682,594.715,69.245Zm44.01,18.2a8.946,8.946,0,0,1,.618,2.651c0,.707.883,2.3.354,3.27s-1.061,1.237-1.061-.088.177-3.093-.265-4.065a19.927,19.927,0,0,1-.531-4.419S638.459,86.831,638.725,87.449Zm-2.74,6.363c.706.884.8,2.21-.177,1.238s-1.944-1.591-2.121-2.917-.265-2.032-.265-2.032C633.952,90.631,635.278,92.929,635.985,93.812ZM630.86,83.031c.125-.375,1.414,3.977,1.855,4.507s1.5,1.5.884,1.5-.972.265-1.238-.618S630.506,84.091,630.86,83.031Zm-11.754-10.6c-.265.176-.8-.619-1.325-1.237a11.391,11.391,0,0,1-1.149-2.74,6.513,6.513,0,0,1,1.591,1.767C618.841,71.278,619.371,72.249,619.105,72.426Zm8.308,9.721c-.619.8-.531-1.591-.8-2.121s-.972-.088-2.3-.176.088-1.326.088-1.68-1.237-.618-1.237-.618a3.69,3.69,0,0,1-.8-2.032c-.088-1.238,1.325,0,1.944.442s.618-.442.088-.972-2.563-3.8-3.623-4.86a25.5,25.5,0,0,0-3.833-2.978c-.128-.054-.162-.07-.055-.027l.055.027c.4.172,1.725.742,2.6,1.21a9.881,9.881,0,0,1,3.093,3.27c.53.972,2.209,2.386,3.181,4.065s2.828,4.6,2.828,4.6C628.12,79.5,628.031,81.352,627.413,82.147Zm1.679,9.986c1.591,1.679,4.949,5.214,5.214,5.656a23.292,23.292,0,0,0-1.855-3.8c-.884-1.414-.707-1.591.176-.884s2.651,5.744,3.712,6.628a3.4,3.4,0,0,1-1.414-.884c-.53-.618-9.014-9.632-9.014-9.632A32.042,32.042,0,0,1,629.092,92.133Zm7.158,13.875c0,.53-.088,2.121-.088,2.121a14.214,14.214,0,0,0-.8-2.21,4.11,4.11,0,0,1,0-2.121l.619.176C635.985,104.24,636.25,105.477,636.25,106.008Zm-3.358-2.917c-.972-.176-3-.265-1.591-2.651,0,0,.088,1.326.8,1.591S633.864,103.268,632.892,103.091ZM629.8,96.729c.884.972,1.767,2.3.442,1.5s-4.507-4.6-4.507-4.6l-.265-.707S628.916,95.756,629.8,96.729Zm-5.391,3.711c-.884-.53-2.121-2.828-1.325-3.27s2.032-1.591,4.153,1.149c.306.395-2.562-1.856-2.828-.972s-1.061,1.768.707,2.74a5.754,5.754,0,0,1,2.386,2.3S625.292,100.971,624.408,100.44Zm7.953,5.126a4.018,4.018,0,0,1-1.591.177s-.8.088-.176.8.088,1.856-.53,1.414a2.828,2.828,0,0,1-1.149-1.944c-.265-1.061-1.414-2.3-1.061-2.651a6.908,6.908,0,0,0,.707-.884s1.237.089,1.5.619-.442.884.53,1.414S632.98,105.3,632.361,105.566Zm4.066,6.893c-.265.088-.707.972-.531,1.237s1.061,1.68.884,2.032-.707,1.5-1.237.354-1.238-1.5-.531-2.386,1.237-1.856.707-1.944-1.149-.707-1.325.088-.089,1.326-.531,1.238-1.5-.177-.972-.972.883-.53.883-1.061.619.177,0-1.325-.088-3,.265-4.507a8.615,8.615,0,0,0,.884,2.562c.53.707,1.944,1.061,1.944,2.386S636.692,112.371,636.427,112.459Zm1.679-6.451c-.8-.265-.618-.884-.884-1.856a3.632,3.632,0,0,1,.265-2.121,5.225,5.225,0,0,0,1.06,2.563C639.431,105.566,638.9,106.273,638.106,106.008Zm.088-9.633c.089-.53.177-1.325.177-1.325s2.3,1.325,3.093,1.855,2.474,1.591,2.386,2.386-.707,1.149-1.5.354a7.029,7.029,0,0,0-2.828-1.767C638.283,97.436,638.106,96.905,638.194,96.375Zm5.3,7.335c-.442,0-1.414.265-1.414.8s.707.884,0,.53.177-.354-.707-.8-1.5-1.325-.53-1.591,1.5-.442,1.679-.707a2.316,2.316,0,0,1,.707-.53,3.759,3.759,0,0,1,.619,1.237C644.027,103.445,643.939,103.71,643.5,103.71Zm4.6,4.242c-.8.176-1.149,0-.884-.354s.089-.884-.618-.884-1.944.354-2.121-.354,0-2.3.442-1.855-.265.707.531,1.06l1.591.707,1.591.177C648.534,106.892,648.888,107.775,648.092,107.952Zm1.855,2.562c-.972,0-2.121-.8-1.325-.972s1.237-.177,1.414-.619a7.064,7.064,0,0,0,.265-1.414s1.5,0,.972,1.238S650.92,110.515,649.948,110.515Zm2.828,5.479a1.661,1.661,0,0,1-1.856-.354l-.265-1.061a.437.437,0,0,1,.707-.265C651.892,114.668,653.748,115.464,652.776,115.994Z" transform="translate(-510.275 -54.4)" fill="url(#linear-gradient-6)"/>
    <path id="路径_223" data-name="路径 223" d="M662.593,72.72a8.519,8.519,0,0,0-1.171,3.325A4.167,4.167,0,0,0,662.593,72.72Z" transform="translate(-557.203 -60.094)" fill="url(#linear-gradient-9)"/>
    <path id="路径_224" data-name="路径 224" d="M660.6,63.45c.639.048.495-.2,0,0Z" transform="translate(-556.948 -57.188)" fill="url(#linear-gradient-10)"/>
    <path id="路径_225" data-name="路径 225" d="M698.64,138.088a4.9,4.9,0,0,0,.681-1.041C698.941,137.064,698.741,137.524,698.64,138.088Z" transform="translate(-568.771 -80.087)" fill="url(#linear-gradient-6)"/>
  </g>
  <g id="组_64" data-name="组 64" transform="translate(24.877 28.41)">
    <path id="路径_226" data-name="路径 226" d="M582.753,135.478c1.723-3.314,2.121.132,2.784,1.061s.663,2.254,1.326,3.447,4.507,2.784,5.434,3.181,4.375,3.579,7.423,5.17,3.447.663,3.712-.928-1.856-3.314-2.917-6.628-2.784-3.049-2.784-3.049-6.893-1.724-9.014-2.519a5.858,5.858,0,0,1-3.447-3.977c0-.8.4-.928,1.989-1.591s-.265-2.386-.265-2.386a7,7,0,0,0,2.386-.4,28.4,28.4,0,0,0,5.037-3.447c.8-.928,2.386-.53,4.109-.53s.8-.928.8-.928-2.784-2.917-3.977-3.977-.4-2.518-1.723-3.314A7.83,7.83,0,0,0,589.38,114a48.75,48.75,0,0,0-7.291,3.049,15.359,15.359,0,0,1-3.711,1.723c.928-1.06,6.495-12.593,7.423-14.316s.663-.663,0-2.386-4.286-6.452-4.286-6.452-.088,3.137-.088,4.2-1.061,5.435-1.591,5.965-6.628,13.654-7.556,14.98-1.458-.531-1.591-2.387a2.1,2.1,0,0,0-1.458-2.121s.928-1.325,1.458-2.254,1.591-1.193,2.651-1.988-1.723-1.325-2.518-1.591a20.193,20.193,0,0,1-3.314-1.723c-1.325-.8-2.254.4-2.916.662s-5.7,2.651-5.7,2.651,5.3-4.64,6.23-5.037a35.15,35.15,0,0,1,7.821-1.591,16.6,16.6,0,0,0,2.916-.265c.4,0-.928-2.518-2.253-3.977s-5.17-.132-7.159.531-7.423,1.988-8.219,2.651a38.629,38.629,0,0,1-6.23,3.712c-1.458.53-.8,2.916-.132,5.037s.928,2.651,2.121,2.386,1.061,1.856,1.061,3.314-.4,1.194-1.061.8-3.048-2.253-4.507-2.121-1.325,1.325-1.325,1.988.928,1.193.928,2.519-.928,2.784-1.856,5.3a21.159,21.159,0,0,0-.928,7.689c0,2.784,2.651,7.953,4.64,10.207s5.3,1.458,6.23,1.325,5.567-2.651,7.158-3.579,6.5-2.254,8.086-4.374,2.121-9.014,2.518-10.6-.265-3.314.663-4.64,2.121-.53,3.181.265,2.121.53,2.254,1.855a10.571,10.571,0,0,1-1.061,4.773c-.53.8-4.242,7.158-4.64,8.086s-2.254,2.917-3.579,4.507-3.447,2.784-7.026,3.579S563,148.469,563,148.469a29.079,29.079,0,0,0,4.9,1.988,6.538,6.538,0,0,0,6.23-1.591,32.1,32.1,0,0,0,4.9-6.495C579.571,141.178,581.03,138.792,582.753,135.478Zm3.977-14.847c1.458-.4,3.579-1.325,3.049-.265a30.071,30.071,0,0,1-3.579,4.375c-.663.662-.8.928-1.458.8a2.977,2.977,0,0,1-1.856-2.386A14.356,14.356,0,0,1,586.729,120.631Zm-22.535.531c-1.061,1.855-1.856,1.06-1.856,1.06A1.391,1.391,0,0,1,564.195,121.162Zm-.928-5.037c.928-.4.133,1.458-.53,1.988s-1.591-.133-1.591-.133C561.146,115.859,562.339,116.522,563.266,116.125Zm-2.651,11.267a35.705,35.705,0,0,1,2.254-3.048,11.583,11.583,0,0,1,3.579-2.386s1.458-.4,1.193,1.988.133,3.314-1.988,4.242a7.565,7.565,0,0,1-4.507.265S559.82,128.718,560.615,127.392Zm-7.29,13.256c-3.192-1.6-2.519-7.026-2.519-7.026.531-4.639,1.988-6.363,1.988-6.363,2.784-.928,1.458,1.988,1.458,2.651s.8,1.591.8,2.784a4.029,4.029,0,0,0,.663,2.121l3.579,4.375S555.445,141.708,553.325,140.648Zm3.579-14.979a2.79,2.79,0,0,1-1.723.132c-.8-.265-2.254-.928-2.254-1.988a4.222,4.222,0,0,1,1.723-.53c.8,0,1.856-.132,1.988-.53s-.265-1.193.8-.928,2.651.265,2.651.928S556.9,125.669,556.9,125.669Zm11.532,8.749c-.662.928-3.314,2.254-4.772,3.314s-2.386.265-2.121-.928-.928-2.253-1.326-3.181a1.823,1.823,0,0,1,0-1.591c.133-.928,1.724.265,1.724.265s2.916.928,3.711,1.061,3.447.132,3.447.132Zm.928-12.062-.928-.4v-1.193l1.326.4Zm3.447,6.76a10.26,10.26,0,0,1-1.458-2.121c-.4-.928-1.061-1.06-.53-3.314a2.345,2.345,0,0,0,1.591,1.325c1.06.133,1.458-.928,1.458.4A12.883,12.883,0,0,1,572.811,129.115Z" transform="translate(-546.299 -95.622)" fill="#604c3f"/>
    <path id="路径_227" data-name="路径 227" d="M655.738,210.325c.047.283.28.312.583.223C655.955,210.222,655.694,210.063,655.738,210.325Z" transform="translate(-580.312 -131.232)" fill="#604c3f"/>
    <path id="路径_228" data-name="路径 228" d="M647.386,192.817a6.7,6.7,0,0,0-3.579-1.856c-.928,0-6.23,1.061-6.23,1.061a22.558,22.558,0,0,0,.132-2.519c0-1.458.8-2.121,1.193-2.916a14.761,14.761,0,0,0,1.061-3.977c0-.8-1.458-2.254-1.988-2.917s-5.965-2.916-7.556-3.314.662-1.326,1.458-1.326,4.9.4,6.1.4,1.193.531,1.724,1.193a19.951,19.951,0,0,1,2.784,3.314c.8,1.458,1.723-2.121,1.855-4.374s-1.325-3.977-3.314-5.966-2.254-.928-2.254-.928.265,2.916.265,3.579-.928.4-1.458-.53-2.254-.928-2.254-.928l-3.711.8a2.268,2.268,0,0,1,.663-2.253c1.06-.928.8-1.326.4-1.591s-3.049-2.917-4.773-4.773-3.844,1.193-3.844,1.193h1.988c1.988,0,1.591,1.856,1.591,2.254s-.663,6.5-.663,6.5l-5.965,2.386c-.265-1.193,1.193-8.086,1.193-8.086-1.193,2.121-2.519,9.279-2.519,9.279a22.307,22.307,0,0,1-2.651,1.856,1.888,1.888,0,0,0-1.194,1.988c0,.663-2.651,2.651-2.651,2.651a7.114,7.114,0,0,0-1.724-2.386c-1.193-1.061-1.855.8-2.518.8s-.663,1.193-.663-.4.4-4.64,1.458-5.435.928-1.061.8-1.724-1.988-1.856-2.784-2.916-2.651-3.314-2.651-3.314c-1.193-.928-1.061,3.181-1.061,3.181a26.034,26.034,0,0,1-.8,6.23c-.8,2.651-.662,8.086-.662,8.086L599,186.851l-2.784,1.193.4-2.518-3.579,3.579s1.193,3.712,1.458,4.64,1.723.928,1.723.928a37.611,37.611,0,0,1,4.507-1.988h1.193s-.265,9.809-.265,10.34a11.952,11.952,0,0,1,.265,3.447c-.265,1.325-.4,2.121-.663,3.314a6,6,0,0,0,.928,3.712c.53.928,4.374,3.314,4.374,3.314l.4-3.049-.8.531v-8.219c0-1.193,1.325-3.844,2.386-6.23A24.111,24.111,0,0,0,610,194.01l-4.375,7.953s.4-7.556.4-9.809,1.591-3.049,2.519-3.579,4.64-2.121,5.037-2.254.53-2.254.53-2.254l4.64-3.711s.045.181.1.485a10.286,10.286,0,0,1,.03,4.154,56.9,56.9,0,0,1-2.916,7.026,1.593,1.593,0,0,0,.265,1.591l2.784,5.567-5.17,2.651,1.988-3.314a40.746,40.746,0,0,0-3.446,2.917c-.531.662-2.386,1.193-2.784,1.591s1.193,2.784,2.253,3.314,3.181-.4,4.9-2.121,12.991-6.893,15.111-7.953,1.724,1.988,1.724,1.988.265,11.532,0,13.521-1.193,2.651-3.314,3.447-4.374-.265-7.953-2.651-3.711-5.037-2.386-7.29a3.357,3.357,0,0,1,3.711-1.591,1,1,0,0,0,.531,1.326c.928.53,2.254,2.784,3.844,4.242s2.518-1.458,2.253-3.314-1.193-3.314-4.772-3.977-6.495,1.988-7.821,3.181-.53,5.17.265,7.026,5.7,7.158,11.135,8.086a20.2,20.2,0,0,0,9.014-.265v-4.109l-.265-12.461a6,6,0,0,1,1.458-2.917c1.326-1.591-.53-2.784-.53-2.784s-1.19-1.367-1.935-2.03c-.3.089-.536.06-.583-.223-.044-.262.217-.1.583.223a11.231,11.231,0,0,0,1.67-.886,46.511,46.511,0,0,1,8.616,0C648.447,195.07,648.049,193.612,647.386,192.817Zm-26.512-13.256s2.21-1.68,2.475-1.944.354.176.707.176,1.679-.884,1.944-.707.619.619.265,1.591-3.27,3.27-3.27,3.27l-.619.53h0l-.117.1h0l.117-.1c.619-.53.707-2.3,1.149-2.474s.265-1.679.265-1.679l-.707.442-1.325,1.5S619.9,180.533,620.874,179.561Zm3.712,16.879c-.972.442-3.093,1.679-3.093,1.679s-1.856,1.061-1.325-.618a29.377,29.377,0,0,0,.8-4.773l.354-1.06s1.414,2.209,1.855,3.093S625.558,196,624.586,196.44Zm1.237-6.009c-.176,1.06-.707,2.562-1.149,1.591s-1.767-1.68-1.767-2.121-.619-1.591.442-1.325a13.745,13.745,0,0,1,1.944.53C625.911,189.37,626,189.37,625.823,190.431Zm.442-5.037a8.346,8.346,0,0,1-2.032,1.414c-.442.265-1.768.089-.884-.884a14.9,14.9,0,0,1,2.121-2.121c.265-.089.53-1.238.972-.707C626.954,183.711,626.53,184.952,626.265,185.394Zm6.186,3.888c-.8.618-1.768,2.209-2.474,1.767s-.707-.618-.707-1.061a7.783,7.783,0,0,1,.176-1.237,13.835,13.835,0,0,1,2.209-1.414c.707-.442,1.414-.8,1.414-.177S633.247,188.663,632.451,189.282Zm1.944-6.628-1.591-.089a2.068,2.068,0,0,0-1.591,0c-.884.354-2.032,1.414-1.856.265a3.233,3.233,0,0,1,.884-2.121,10.465,10.465,0,0,1,2.563-1.149c.53-.177,1.5-.265,1.591,0S634.4,182.654,634.4,182.654Z" transform="translate(-560.826 -116.375)" fill="#604c3f"/>
  </g>
  <g id="组_65" data-name="组 65" transform="translate(24.126 27.571)">
    <path id="路径_229" data-name="路径 229" d="M581.662,134.26c1.724-3.314,2.121.132,2.784,1.061s.663,2.253,1.326,3.447,4.507,2.784,5.434,3.181,4.375,3.579,7.423,5.17,3.447.663,3.712-.928-1.856-3.314-2.917-6.628-2.784-3.049-2.784-3.049-6.893-1.724-9.014-2.519a5.857,5.857,0,0,1-3.446-3.977c0-.8.4-.928,1.988-1.591s-.265-2.386-.265-2.386a7,7,0,0,0,2.386-.4,28.4,28.4,0,0,0,5.037-3.447c.8-.928,2.386-.53,4.109-.53s.8-.928.8-.928-2.784-2.916-3.977-3.977-.4-2.518-1.723-3.314a7.83,7.83,0,0,0-4.242-.663A48.678,48.678,0,0,0,581,115.834a15.359,15.359,0,0,1-3.711,1.723c.928-1.06,6.5-12.593,7.423-14.316s.663-.663,0-2.386-4.286-6.452-4.286-6.452-.088,3.137-.088,4.2-1.061,5.435-1.591,5.965-6.628,13.654-7.556,14.979-1.458-.53-1.591-2.386a2.1,2.1,0,0,0-1.458-2.121s.928-1.326,1.458-2.254,1.591-1.193,2.651-1.988-1.723-1.325-2.518-1.591a20.222,20.222,0,0,1-3.314-1.723c-1.325-.8-2.254.4-2.916.662s-5.7,2.651-5.7,2.651,5.3-4.64,6.23-5.037a35.151,35.151,0,0,1,7.821-1.591,16.6,16.6,0,0,0,2.916-.265c.4,0-.928-2.518-2.253-3.977s-5.17-.132-7.159.531-7.423,1.988-8.219,2.651a38.651,38.651,0,0,1-6.23,3.712c-1.458.53-.8,2.916-.133,5.037s.928,2.651,2.121,2.386,1.06,1.856,1.06,3.314-.4,1.193-1.06.8-3.049-2.253-4.507-2.121-1.325,1.325-1.325,1.988.928,1.193.928,2.518-.928,2.784-1.856,5.3a21.158,21.158,0,0,0-.928,7.689c0,2.784,2.651,7.953,4.64,10.207s5.3,1.458,6.23,1.325,5.567-2.651,7.158-3.579,6.5-2.254,8.086-4.374,2.121-9.014,2.518-10.6-.265-3.314.663-4.64,2.121-.531,3.181.265,2.121.531,2.254,1.856a10.567,10.567,0,0,1-1.061,4.772c-.53.8-4.242,7.159-4.64,8.086s-2.254,2.917-3.579,4.507-3.447,2.784-7.026,3.579-1.723,2.121-1.723,2.121a29.075,29.075,0,0,0,4.9,1.988,6.538,6.538,0,0,0,6.23-1.591,32.1,32.1,0,0,0,4.9-6.495C578.481,139.96,579.94,137.574,581.662,134.26Zm3.977-14.847c1.458-.4,3.579-1.325,3.049-.265a30.072,30.072,0,0,1-3.579,4.375c-.663.662-.8.928-1.458.8a2.977,2.977,0,0,1-1.856-2.387A14.372,14.372,0,0,1,585.639,119.413Zm-22.535.53c-1.061,1.856-1.856,1.061-1.856,1.061A1.391,1.391,0,0,1,563.1,119.943Zm-.928-5.037c.928-.4.133,1.458-.53,1.989s-1.591-.133-1.591-.133C560.056,114.641,561.249,115.3,562.176,114.906Zm-2.651,11.268a35.7,35.7,0,0,1,2.254-3.048,11.591,11.591,0,0,1,3.579-2.387s1.458-.4,1.193,1.989.133,3.314-1.988,4.241a7.561,7.561,0,0,1-4.507.265S558.73,127.5,559.525,126.174Zm-7.29,13.256c-3.192-1.6-2.519-7.026-2.519-7.026.531-4.64,1.989-6.363,1.989-6.363,2.784-.928,1.458,1.988,1.458,2.651s.8,1.591.8,2.784a4.029,4.029,0,0,0,.663,2.121l3.579,4.375S554.355,140.49,552.235,139.43Zm3.579-14.979a2.79,2.79,0,0,1-1.723.132c-.8-.265-2.254-.928-2.254-1.988a4.222,4.222,0,0,1,1.723-.53c.8,0,1.856-.133,1.988-.531s-.265-1.193.8-.928,2.651.265,2.651.928S555.814,124.451,555.814,124.451Zm11.533,8.749c-.663.928-3.314,2.254-4.773,3.314s-2.386.265-2.121-.928-.928-2.253-1.325-3.181a1.82,1.82,0,0,1,0-1.591c.132-.928,1.723.265,1.723.265s2.916.928,3.711,1.061,3.447.132,3.447.132Zm.928-12.063-.928-.4v-1.193l1.325.4Zm3.447,6.761a10.26,10.26,0,0,1-1.458-2.121c-.4-.928-1.061-1.06-.53-3.314a2.345,2.345,0,0,0,1.591,1.325c1.06.133,1.458-.928,1.458.4A12.883,12.883,0,0,1,571.721,127.9Z" transform="translate(-545.209 -94.404)" fill="url(#linear-gradient-12)"/>
    <path id="路径_230" data-name="路径 230" d="M654.648,209.107c.047.283.281.312.583.223C654.865,209,654.6,208.845,654.648,209.107Z" transform="translate(-579.222 -130.014)" fill="url(#linear-gradient-13)"/>
    <path id="路径_231" data-name="路径 231" d="M646.3,191.6a6.689,6.689,0,0,0-3.579-1.856c-.928,0-6.23,1.06-6.23,1.06a22.515,22.515,0,0,0,.132-2.518c0-1.458.8-2.121,1.194-2.916a14.763,14.763,0,0,0,1.06-3.977c0-.8-1.458-2.253-1.988-2.916s-5.965-2.916-7.556-3.314.663-1.326,1.458-1.326,4.9.4,6.1.4,1.193.53,1.724,1.193a19.942,19.942,0,0,1,2.784,3.314c.8,1.458,1.723-2.121,1.855-4.375s-1.325-3.977-3.314-5.965-2.254-.928-2.254-.928.265,2.916.265,3.579-.928.4-1.458-.53-2.254-.928-2.254-.928l-3.711.8a2.268,2.268,0,0,1,.663-2.253c1.06-.928.8-1.326.4-1.591s-3.049-2.916-4.773-4.772-3.844,1.193-3.844,1.193h1.988c1.988,0,1.591,1.856,1.591,2.254s-.663,6.5-.663,6.5l-5.965,2.386c-.265-1.193,1.193-8.086,1.193-8.086-1.193,2.121-2.519,9.279-2.519,9.279a22.312,22.312,0,0,1-2.651,1.856,1.888,1.888,0,0,0-1.193,1.988c0,.662-2.651,2.651-2.651,2.651a7.12,7.12,0,0,0-1.724-2.386c-1.193-1.06-1.855.8-2.518.8s-.663,1.193-.663-.4.4-4.639,1.458-5.435.928-1.06.8-1.723-1.988-1.856-2.784-2.916-2.651-3.314-2.651-3.314c-1.193-.928-1.061,3.181-1.061,3.181a26.037,26.037,0,0,1-.8,6.23c-.8,2.651-.662,8.086-.662,8.086l-3.579,1.723-2.784,1.193.4-2.518-3.579,3.579s1.193,3.712,1.458,4.64,1.723.928,1.723.928a37.654,37.654,0,0,1,4.507-1.988h1.193s-.265,9.809-.265,10.34a11.948,11.948,0,0,1,.265,3.446c-.265,1.326-.4,2.121-.663,3.314a5.991,5.991,0,0,0,.928,3.711c.53.928,4.374,3.314,4.374,3.314l.4-3.049-.8.53v-8.219c0-1.193,1.325-3.844,2.386-6.23a24.117,24.117,0,0,0,1.458-5.833l-4.375,7.953s.4-7.556.4-9.809,1.591-3.049,2.519-3.579,4.64-2.121,5.037-2.254.53-2.254.53-2.254l4.64-3.711s.046.181.1.485a10.287,10.287,0,0,1,.03,4.154,56.86,56.86,0,0,1-2.916,7.025,1.594,1.594,0,0,0,.265,1.591l2.784,5.567-5.17,2.651,1.989-3.314a40.745,40.745,0,0,0-3.447,2.917c-.531.662-2.386,1.193-2.784,1.591s1.193,2.784,2.253,3.314,3.181-.4,4.905-2.121,12.991-6.893,15.112-7.954,1.723,1.988,1.723,1.988.265,11.533,0,13.521-1.193,2.651-3.314,3.447-4.374-.265-7.953-2.651-3.711-5.037-2.386-7.291a3.358,3.358,0,0,1,3.712-1.591,1,1,0,0,0,.53,1.326c.928.53,2.254,2.784,3.844,4.242s2.518-1.458,2.253-3.314-1.193-3.314-4.772-3.977-6.495,1.988-7.821,3.181-.53,5.17.265,7.026,5.7,7.158,11.135,8.086a20.2,20.2,0,0,0,9.015-.265v-4.109l-.265-12.461a6,6,0,0,1,1.458-2.917c1.325-1.591-.531-2.784-.531-2.784s-1.19-1.367-1.935-2.031c-.3.09-.536.061-.583-.223-.044-.262.217-.1.583.223a11.345,11.345,0,0,0,1.671-.885,46.507,46.507,0,0,1,8.616,0C647.357,193.852,646.959,192.394,646.3,191.6Zm-26.512-13.256s2.21-1.68,2.475-1.944.354.176.707.176,1.679-.884,1.944-.707.618.619.265,1.591-3.27,3.27-3.27,3.27l-.619.53h0l-.117.1h0l.117-.1c.619-.53.707-2.3,1.149-2.474s.265-1.68.265-1.68l-.707.442-1.325,1.5S618.812,179.315,619.784,178.343Zm3.712,16.879c-.973.442-3.093,1.679-3.093,1.679s-1.856,1.061-1.325-.618a29.366,29.366,0,0,0,.8-4.773l.354-1.06s1.414,2.209,1.855,3.093S624.468,194.78,623.5,195.222Zm1.237-6.01c-.176,1.061-.707,2.563-1.149,1.591s-1.767-1.679-1.767-2.121-.619-1.591.442-1.325a13.645,13.645,0,0,1,1.944.53C624.821,188.152,624.91,188.152,624.733,189.212Zm.442-5.037a8.329,8.329,0,0,1-2.032,1.414c-.442.265-1.767.088-.883-.884a14.908,14.908,0,0,1,2.121-2.121c.265-.088.531-1.237.972-.706C625.864,182.493,625.44,183.733,625.175,184.176Zm6.186,3.888c-.8.619-1.767,2.21-2.474,1.768s-.707-.619-.707-1.061a7.785,7.785,0,0,1,.176-1.237,13.837,13.837,0,0,1,2.21-1.414c.707-.442,1.414-.8,1.414-.177S632.157,187.445,631.361,188.064Zm1.944-6.627-1.591-.089a2.064,2.064,0,0,0-1.591,0c-.883.354-2.032,1.414-1.856.265a3.236,3.236,0,0,1,.883-2.121,10.465,10.465,0,0,1,2.563-1.149c.53-.177,1.5-.265,1.591,0S633.305,181.436,633.305,181.436Z" transform="translate(-559.735 -115.157)" fill="url(#linear-gradient-14)"/>
  </g>
</svg>
