<?xml version="1.0" encoding="utf-8"?>
<!-- Generator: Adobe Illustrator 23.0.6, SVG Export Plug-In . SVG Version: 6.00 Build 0)  -->
<svg version="1.1" id="圖層_1" xmlns="http://www.w3.org/2000/svg" xmlns:xlink="http://www.w3.org/1999/xlink" x="0px" y="0px"
	 viewBox="0 0 196.2 195" style="enable-background:new 0 0 196.2 195;" xml:space="preserve">
<path d="M157.1,56.4l-46.8-27c-5.6-3.2-12.5-3.2-18.1,0l-46.8,27c-5.6,3.2-9.1,9.2-9.1,15.7v54.1c0,6.5,3.5,12.5,9.1,15.7l46.8,27
	c5.6,3.2,12.5,3.2,18.1,0l46.8-27c5.6-3.2,9.1-9.2,9.1-15.7V72.1C166.2,65.6,162.7,59.6,157.1,56.4z M66.8,57.8
	c3.2-5.6,9.2-9.1,15.7-9.1h37.3c2.4,0,4.7,0.5,6.8,1.3L99.2,97.4H45.9c0.2-2.6,1-5.1,2.3-7.4L66.8,57.8z M82.5,149.5
	c-6.5,0-12.5-3.5-15.7-9.1l-18.6-32.3c-1.1-1.9-1.8-3.9-2.1-5.9h53.2l26.7,46.2c-1.9,0.7-4,1.1-6.1,1.1H82.5z M154.2,108.2
	l-18.6,32.3c-1.3,2.3-3.2,4.3-5.3,5.8l-26.8-46.4l27.4-47.4c1.9,1.4,3.5,3.2,4.7,5.4L154.2,90C157.4,95.7,157.4,102.6,154.2,108.2z"
	/>
</svg>
