<?xml version="1.0" encoding="utf-8"?>
<!-- Generator: Adobe Illustrator 23.0.6, SVG Export Plug-In . SVG Version: 6.00 Build 0)  -->
<svg version="1.1" id="圖層_1" xmlns="http://www.w3.org/2000/svg" xmlns:xlink="http://www.w3.org/1999/xlink" x="0px" y="0px"
	 viewBox="0 0 273.4 236" style="enable-background:new 0 0 273.4 236;" xml:space="preserve">
<style type="text/css">
	.st0{fill:#040000;}
</style>
<path class="st0" d="M154.8,165.2c-10.9,25.3-33.3,33-46.2,35.3c-16.7,3-37.2-4.1-49.8-16.7c11.8,4.7,32.3,8.8,57-3.6
	c31.3-15.7,35.9-44.5,36.2-58.2c4.6,8.7,9.9,23.3,4.8,38.3c-0.2,0.5-0.4,1.1-0.6,1.6L154.8,165.2z M113.3,175.5
	c6.6-3.3,11.8-7.3,16.1-11.5c-5,3.7-10.9,6.6-17.6,8.6c-16.7,5-31.9,0.5-40.6-12.2c-7.6-11.1-6.7-26.6,0.9-39.3
	c-15.7,15.4-22.7,33.6-20.4,53.1C56.4,177.4,80.9,191.8,113.3,175.5z M192.6,121.1c-4.6,11-9.3,22.3-19.1,30.9
	c-3.3,2.9-7.1,5.7-11.3,8.5c-0.2,0.5-0.3,1.1-0.5,1.6c-3.3,9.8-8.5,18.3-15.3,25.1c4.4-2.5,8.2-5.1,11.3-7.2
	c14.4-9.9,25.5-22.4,32.4-36.1c3.7-7.5,6.3-15.7,8.8-23.6c1.5-4.9,3.1-9.9,5-14.7c2.8-7.4,6-13.6,9.6-18.9
	c-7.7,7.5-13.2,17.5-16.4,24C195.5,114.1,194.1,117.6,192.6,121.1z M170,147.9c8.8-7.7,13.3-18.5,17.6-28.9c1.5-3.5,3-7.1,4.6-10.6
	c3-6.2,8.3-15.8,15.6-23.6c-0.6,0.5-1.2,1-1.8,1.5l-0.4,0.4c-0.7,0.6-1.3,1.1-1.9,1.8c-4.4,4.3-8.1,9.4-11.6,14.5
	c-1.9,2.7-3.9,5.5-5.9,8.1c-0.6,0.8-1.2,1.6-1.8,2.4c-3.8,4.9-7.7,9.9-12.3,14.4c-3.1,3-6.1,5.3-9.5,7.2c1.5,6.1,1.9,12.1,1.2,17.8
	C166.1,151.2,168.2,149.5,170,147.9z M186.3,56.9c-7.9-0.1-15.7-0.8-23.3-1.5l-12.8-1c-0.6,0-1.2-0.1-1.8-0.1l-1.1-0.1
	c-0.9-0.1-1.9-0.1-2.8-0.1l-0.8,0c-0.7,0-1.4,0-2.1-0.1l-1.2,0c-0.6,0-1.2,0-1.8,0l-1,0c-1.3,0-2.6,0-3.9,0.1l-0.3,0
	c-1.3,0-2.5,0.1-3.7,0.2l-0.8,0.1c-1.3,0.1-2.6,0.2-3.9,0.4l-0.8,0.1c-1.6,0.2-2.8,0.4-4,0.6c-11.2,1.8-21.5,5.5-31.7,11.1
	c-17.7,9.8-32.4,25-40.2,41.7c-8.5,18-9.3,38.3-2.4,55.6c1-19.3,10.7-37.1,28.5-51.9c9.3-7.8,21-12.6,34.6-14.4
	c11.5-2.6,23.5-3.1,33.8-3.4c1.5,0,3-0.1,4.4-0.1l0.5,0c1.4,0,2.9-0.1,4.2-0.1c42.2-1.3,78.7-35.4,94.9-53.2
	C224.6,52,205.3,57.2,186.3,56.9z M186.8,51.6L186.8,51.6l-0.2,0c-0.1,0-0.1,0-0.2,0l0,0C186.6,51.6,186.7,51.6,186.8,51.6z"/>
</svg>
