<svg xmlns="http://www.w3.org/2000/svg" xmlns:xlink="http://www.w3.org/1999/xlink" width="153.479" height="120.658" viewBox="0 0 153.479 120.658">
  <defs>
    <linearGradient id="linear-gradient" x1="0.806" y1="-0.004" x2="0.04" y2="0.821" gradientUnits="objectBoundingBox">
      <stop offset="0" stop-color="#6e77d7"/>
      <stop offset="0.714" stop-color="#4550b6"/>
      <stop offset="0.994" stop-color="#352960"/>
    </linearGradient>
    <linearGradient id="linear-gradient-2" y1="0.5" x2="1" y2="0.5" gradientUnits="objectBoundingBox">
      <stop offset="0" stop-color="#b1f5dd"/>
      <stop offset="0.07" stop-color="#a8efde"/>
      <stop offset="0.18" stop-color="#92e1e1"/>
      <stop offset="0.314" stop-color="#6ec9e6"/>
      <stop offset="0.384" stop-color="#59bce9"/>
      <stop offset="0.681" stop-color="#9caeff"/>
      <stop offset="0.994" stop-color="#bf84ff"/>
    </linearGradient>
    <linearGradient id="linear-gradient-3" x1="0.974" y1="0.095" x2="0.21" y2="0.736" xlink:href="#linear-gradient"/>
    <linearGradient id="linear-gradient-4" y1="0.5" x2="1" y2="0.5" gradientUnits="objectBoundingBox">
      <stop offset="0" stop-color="#8fc7b4"/>
      <stop offset="0.081" stop-color="#86c1b4"/>
      <stop offset="0.207" stop-color="#70b2b6"/>
      <stop offset="0.363" stop-color="#4c9aba"/>
      <stop offset="0.384" stop-color="#4797bb"/>
      <stop offset="0.681" stop-color="#808fd1"/>
      <stop offset="0.994" stop-color="#aa5dd1"/>
    </linearGradient>
  </defs>
  <g id="fb_logo" transform="translate(-1422.335 -112.241)">
    <path id="路径_262" data-name="路径 262" d="M1427.6,209.643a42.138,42.138,0,0,0,4.155,6.494,40.1,40.1,0,0,0,12.56,10.6c3.746,2.029,10.079,5.418,14.9,4.836,7.911-.955,16.792-7.434,22.767-12.732,14.72-13.053,20.612-33.916,17.153-50.434,1.554,7.409-1.527,17.634-5.755,25.115-4.594,8.126-11.731,13.086-20.41,15.7-11.02,3.315-20.834.184-26.313-7.787-6.585-9.581-3.25-25.185,8.233-33.791,12.931-9.691,32.571-9.425,46.686-9.846,41.38-1.235,74.244-45.547,74.248-45.551-16.132,9.482-32.679,16.279-50.236,16.029-15.5-.219-30.518-3.76-46.488-1.112a69.616,69.616,0,0,0-22.751,7.99c-12.514,6.945-23.091,17.661-28.911,30C1420.321,180.2,1420.907,196.77,1427.6,209.643Z" transform="translate(0)" fill="url(#linear-gradient)"/>
    <path id="路径_263" data-name="路径 263" d="M1485.057,242.661c12.834.064,27.537-8.166,37.292-14.9,9.676-6.682,18.037-15.488,23.25-25.951,4.273-8.577,6.342-18,9.739-26.941s8.551-17.825,16.9-22.64c-7.428-.406-14.442,3.231-20.046,8.63-4.9,4.718-8.274,10.706-12.42,15.991a113.718,113.718,0,0,1-9.733,11.534,28.858,28.858,0,0,1-13.094,7.517,42.743,42.743,0,0,1-3.712,11.046c-1.823,3.5-5.1,6.267-7.166,9.656a55.815,55.815,0,0,1-20.092,18.855" transform="translate(-15.739 -10.026)" fill="url(#linear-gradient-2)"/>
    <path id="路径_264" data-name="路径 264" d="M1553.739,177c4.574-9.529,13.049-22.631,25.049-24.774-7.428-.406-14.442,3.231-20.046,8.63-4.9,4.718-8.274,10.706-12.42,15.992a113.792,113.792,0,0,1-9.733,11.533A28.858,28.858,0,0,1,1523.5,195.9a42.773,42.773,0,0,1-3.712,11.046c-1.824,3.5-5.1,6.267-7.167,9.656-.462.757-.955,1.5-1.464,2.229l.889,1.5s14.952-5.792,25.685-15.159C1546.4,197.608,1549.2,186.462,1553.739,177Z" transform="translate(-22.288 -10.026)" fill="url(#linear-gradient-3)"/>
    <path id="路径_265" data-name="路径 265" d="M1432.127,232.014s19.031,14.916,45.717,1.494c23.335-11.736,25.774-35.794,23.739-46.288,0,0,13.6,16.688,7.5,34.61s-20.216,26.7-35.066,29.368C1458.218,254.031,1439.345,244.874,1432.127,232.014Z" transform="translate(-2.457 -18.815)" fill="url(#linear-gradient-4)"/>
    <path id="路径_266" data-name="路径 266" d="M1432.127,232.014c16.551,19.48,44.8,16.6,62.155-.361,16.272-15.894,7.3-44.433,7.3-44.433,2.035,10.494-.4,34.552-23.739,46.288C1451.158,246.93,1432.127,232.014,1432.127,232.014Z" transform="translate(-2.457 -18.815)" fill="url(#linear-gradient-2)"/>
    <g id="组_112" data-name="组 112" transform="translate(1422.335 112.241)">
      <path id="路径_267" data-name="路径 267" d="M1428.674,211.583c.324.548.655,1.088,1,1.616-2.326-17.346,5.443-32.031,18.871-43.228a45.044,45.044,0,0,1,23.5-9.688c10.031-2.228,20.827-2.231,29.525-2.491,41.38-1.235,74.244-45.547,74.248-45.551-16.132,9.482-32.679,16.279-50.236,16.029-15.5-.219-30.518-3.76-46.488-1.112a69.616,69.616,0,0,0-22.751,7.99c-12.514,6.945-23.091,17.661-28.911,30-7.106,15.059-6.52,31.624.169,44.5.309.595.631,1.174.962,1.742Z" transform="translate(-1422.335 -112.241)" fill="url(#linear-gradient-4)"/>
    </g>
    <path id="路径_268" data-name="路径 268" d="M1457.563,148.218c15.884-8.767,31.875-7.7,48.15-7.454,13.551.207,27.656-1.127,40.953-7.239,10.725-4.93,21.528-12.239,29.148-21.285-16.132,9.482-32.679,16.279-50.236,16.029-15.5-.219-30.518-3.76-46.488-1.112a69.616,69.616,0,0,0-22.751,7.99c-12.514,6.945-23.091,17.661-28.911,30-7.106,15.059-6.52,31.624.169,44.5.309.595.631,1.174.962,1.742l.117.2c.324.548.655,1.088,1,1.616-4.527-9.64-6.252-19.919-3.122-30.387C1430.828,168.5,1443.754,155.84,1457.563,148.218Z" transform="translate(0)" fill="url(#linear-gradient-2)"/>
  </g>
</svg>
