<?xml version="1.0" encoding="utf-8"?>
<!-- Generator: Adobe Illustrator 23.0.6, SVG Export Plug-In . SVG Version: 6.00 Build 0)  -->
<svg version="1.1" id="圖層_1" xmlns="http://www.w3.org/2000/svg" xmlns:xlink="http://www.w3.org/1999/xlink" x="0px" y="0px"
	 viewBox="0 0 387.3 386.3" style="enable-background:new 0 0 387.3 386.3;" xml:space="preserve">
<g>
	<path d="M65.8,324.6c-21.7-13.6-36.7-30.5-46.7-49c25.5,53.9,75.6,95.2,138.6,107.2c60.7,11.5,120.2-6.8,163.3-44.7
		c-7.2,5.6-15.3,10.4-24.2,14.1C233.6,378.6,159.2,383,65.8,324.6z"/>
	<path d="M202,187.5c0-10-10.7-10.2-10.7-10.2s-26.8-0.4-26.4,0v22.3h24.1C188.9,199.6,202,199.6,202,187.5z"/>
	<path d="M302.8,226.8c3.3-10.4,4.5-25,0.2-35.2c-4.2-10-11.4-16-24.9-16c0,0-22.3,0.6-25,25.8c-2.1,18.9,3.9,31.7,11.7,36
		c5,2.7,7.8,4.9,15.1,4.9S299.5,237.2,302.8,226.8z"/>
	<path d="M205.5,228.6c0-12.1-12.1-12.3-12.1-12.3l-28.6-0.4v24.9h28.4C193.2,240.7,205.5,239.7,205.5,228.6z"/>
	<path d="M229.5,3.5C124.8-16.3,23.8,52.5,4,157.3c-5.1,26.9-4.3,53.5,1.4,78.6c-8.7-47.9,6.9-96.4,23.9-116.8
		C58,84.7,125.5,39.2,235.4,53.5c78.5,10.2,97,32.7,97,32.7l-0.4,1.3c0,0-14.1-4.3-24.6-6.7c-10.6-2.3-41.2-4.7-53.2,4.7
		c-7,5.5,3.1,20.7,5.9,25.4c2.7,4.7,8.2,12.5,0.8,11c-7.4-1.6-56.4-17.6-101.7-17.6s-111.9,2.3-139.7,72c-7.4,18.6-18,71.6,45.8,119
		c19.6,14.5,66.9,40.3,164.7,38.7c23.4-0.4,92.4-13.7,134.2-67.3c14.2-18.1,14.7-19.6,14.7-19.6s1,0.4,4.5-18.1
		C403.2,124.3,334.3,23.3,229.5,3.5z M104.5,157c12.3,0,22.3,9.9,22.3,22.2c0,12.3-10,22.2-22.3,22.2s-22.3-9.9-22.3-22.2
		C82.2,166.9,92.2,157,104.5,157z M334.5,259.7H66.8v-2.7h12.5v-48.3h4.7v-7.8c0-1.2,0.7-2.4,1.7-3c1.1-0.6,2.4-0.7,3.5-0.1
		l15.6,8.4l15.6-8.4c1.1-0.6,2.4-0.6,3.5,0.1s1.7,1.8,1.7,3v7.8h5.2v48.3h66.9c-0.4,0-0.5,0-0.5,0h-52.2v-96.2c0,0,32.5,0,50.1,0
		s25.8,12.1,25.8,25.4c0,13.3-12.5,20.1-12.5,20.1l4.9,2.4c0,0,16.8,7.6,11.4,28.8c-4.6,17.8-20.8,19.5-25.9,19.6h65.6
		c-9.1-2.8-23.4-10.2-29.2-29c-6.1-19.6-0.4-41.7,5.9-50.9c13.6-19.9,38-18.2,38-18.2s12.2,0.5,19.4,3.5c24.1,10.2,28,30.1,28,49.9
		s-10,34-23.1,41.1c-3,1.6-6.2,2.7-9.5,3.5h40.8L334.5,259.7L334.5,259.7z"/>
	<polygon points="87.6,221.5 104.6,210 87.6,200.8 	"/>
	<polygon points="122,221.5 122,200.8 105,210 	"/>
</g>
</svg>
