<?xml version="1.0" encoding="utf-8"?>
<!-- Generator: Adobe Illustrator 23.0.6, SVG Export Plug-In . SVG Version: 6.00 Build 0)  -->
<svg version="1.1" id="圖層_1" xmlns="http://www.w3.org/2000/svg" xmlns:xlink="http://www.w3.org/1999/xlink" x="0px" y="0px"
	 viewBox="0 0 205.1 204.1" style="enable-background:new 0 0 205.1 204.1;" xml:space="preserve">
<g>
	<path d="M148.9,96.7c0,0-0.5-2.6-0.6-1.5l-3.2,18.6c0,0-0.7,2.3,1.1,1.2c1.9-1,3.8-2.8,3.8-2.8s1.1-0.1,0.7-3.1L148.9,96.7z"/>
	<path d="M163.3,45.6c0,0-56.8-14.5-66.4-17.1c-9.6-2.6-16.4,0.9-16.4,0.9s-33,14.4-40.8,18.5c-15.9,8.4-12.4,23.7-12.4,23.7l4,65.7
		c-0.2,14.8,8.8,17.2,8.8,17.2s49.5,17.7,62.7,22.5c16.2,5.9,25.8-2.1,25.8-2.1s30-24,37.3-30.3c6.8-5.8,6.1-17.8,6.1-17.8
		s1.3-57.3,1.6-64.8C174.3,46.3,163.3,45.6,163.3,45.6z M63.4,44.6c7.4,0,13.3,2.4,13.2,5.5c0,0.5-0.2,0.9-0.4,1.3
		c-0.2,1-2.7,2.8-7.6,3.7c-0.1,0.1-0.2,0.1-0.3,0.1c-0.3,0-0.5,0.1-0.8,0.1s-0.5,0.1-0.8,0.1c-0.1,0-0.3,0-0.4,0
		c-0.4,0-0.8,0.1-1.3,0.1s-1.1,0-1.6,0c-8,0.1-11.8-2.5-12.6-3.7c-0.5-0.5-0.7-1.1-0.7-1.7C50.1,47,56.1,44.6,63.4,44.6z
		 M56.6,147.4c-6.7-2.2-10.3-3.5-10.3-3.5s-3.2-0.2-3.1-5.5c0.1-5.3-2.6-58.9-2.6-58.9s-0.2-3.7,4.7-2.7l11.4,3.9
		c0,0,2.9,0.3,3.2,5.3c0.3,5,2.9,58,2.9,58S63.3,149.6,56.6,147.4z M102.3,163.3c-1.5,0.8-2.9-0.2-2.9-0.2l-11.3-4.2
		c-5.9-2-7.4-6.2-7.4-6.2s-14.1-29-16.6-34s0.8-8.1,0.8-8.1l13.9-19.7c2.1-2.3,4.8-1.1,4.8-1.1s12.8,3.9,15.6,4.8
		c2.9,0.9,1.1,3.2,1.1,3.2s-12.9,15.3-15.8,18.7c-3,3.5-0.4,7.5-0.4,7.5s16.6,33.1,17.4,34.6S103.8,162.5,102.3,163.3z M113.2,51.2
		c-0.2,0.6-1.3,1.6-3.4,2.5c-0.1,0.1-0.3,0.1-0.4,0.2c-0.1,0-0.2,0.1-0.3,0.1c-2.4,0.9-5.4,1.4-8.8,1.4c-8,0.1-11.8-2.5-12.6-3.7
		C87.2,51.2,87,50.6,87,50c0-3,6-5.4,13.3-5.4c7.4,0,13.3,2.4,13.3,5.3C113.6,50.4,113.4,50.8,113.2,51.2z M124.4,51.7
		c-0.5-0.5-0.7-1.1-0.7-1.7c0-3,6-5.4,13.3-5.4s13.3,2.5,13.3,5.5c0,0.5-0.2,0.9-0.4,1.3c-0.2,0.6-1.3,1.6-3.4,2.5
		c-0.1,0-0.2,0.1-0.3,0c-0.1,0-0.2,0.1-0.3,0.1c-2.4,0.9-5.5,1.4-8.9,1.4C129.1,55.6,125.2,52.9,124.4,51.7z M163,135
		c0,0-4.8,3.9-6.4,4.9c-1.6,1-1.7-1.9-1.7-1.9l-2.2-13.6l-10.8,7.7c0,0-2.5,14.2-3.1,18.7c-0.6,4.5-2.2,5.1-2.2,5.1
		s-4.2,3.2-6.2,4.7c-2.4,1.9-1.3-3.6-1.3-3.6l13.2-69.3c1.3-5.4,4.7-7.3,8.5-8.5c3.7-1.2,4,2.9,4,2.9s8.8,48.2,9.2,50.2
		C164.4,134.4,163,135,163,135z"/>
</g>
</svg>
