<?xml version="1.0" encoding="utf-8"?>
<!-- Generator: Adobe Illustrator 23.0.6, SVG Export Plug-In . SVG Version: 6.00 Build 0)  -->
<svg version="1.1" id="圖層_1" xmlns="http://www.w3.org/2000/svg" xmlns:xlink="http://www.w3.org/1999/xlink" x="0px" y="0px"
	 viewBox="0 0 218.8 225.3" style="enable-background:new 0 0 218.8 225.3;" xml:space="preserve">
<g>
	<path d="M190,75.8c0-2.9-0.8-5.6-2.2-7.9c-1.3-2.2-3.2-4-5.4-5.3l-64.1-37c-2.4-1.4-5-2.1-7.7-2.1s-5.3,0.7-7.7,2.1l-64.1,37
		c-2.3,1.3-4.2,3.2-5.5,5.4c-1.4,2.3-2.2,5-2.2,7.9v74c0,2.6,0.7,5.1,1.9,7.4c1.3,2.4,3.3,4.5,5.8,5.9l64.1,37
		c2.4,1.4,5,2.1,7.7,2.1s5.3-0.7,7.7-2.1l64.1-37c2.4-1.4,4.4-3.4,5.7-5.8c1.2-2.2,1.9-4.8,1.9-7.4l0-37h0L190,75.8z M94.9,142.7
		l-23.7-24.6v24.6H55.3v-63l15.9-0.3v24.4l22.7-24.2h18.4L82.9,110l32.4,32.6H94.9z M155.1,142.7l-23.7-24.6v24.6h-15.9v-63
		l15.9-0.3v24.4l22.7-24.2h18.4L143.1,110l32.4,32.6H155.1z"/>
</g>
</svg>
