<svg xmlns="http://www.w3.org/2000/svg" xmlns:xlink="http://www.w3.org/1999/xlink" width="187.556" height="145" viewBox="0 0 187.556 145">
  <defs>
    <linearGradient id="linear-gradient" x1="0.586" y1="0.022" x2="0.413" y2="0.979" gradientUnits="objectBoundingBox">
      <stop offset="0" stop-color="#f4ad9f"/>
      <stop offset="1" stop-color="#ca2c14"/>
    </linearGradient>
    <linearGradient id="linear-gradient-2" x1="0.421" y1="-0.055" x2="0.539" y2="0.86" gradientUnits="objectBoundingBox">
      <stop offset="0" stop-color="#f4ad9f"/>
      <stop offset="1" stop-color="#fff"/>
    </linearGradient>
    <linearGradient id="linear-gradient-3" x1="0.383" y1="0.04" x2="0.621" y2="0.975" gradientUnits="objectBoundingBox">
      <stop offset="0" stop-color="#a6e4fe"/>
      <stop offset="1" stop-color="#077bb9"/>
    </linearGradient>
    <linearGradient id="linear-gradient-4" x1="0.485" y1="0.101" x2="0.622" y2="0.9" gradientUnits="objectBoundingBox">
      <stop offset="0" stop-color="#a6e4fe"/>
      <stop offset="1" stop-color="#fff"/>
    </linearGradient>
    <filter id="路径_328" x="6.837" y="20.717" width="95.051" height="98.773" filterUnits="userSpaceOnUse">
      <feOffset dx="-2.268" dy="2.268" input="SourceAlpha"/>
      <feGaussianBlur stdDeviation="1.417" result="blur"/>
      <feFlood flood-color="#303030" flood-opacity="0.749"/>
      <feComposite operator="in" in2="blur"/>
      <feComposite in="SourceGraphic"/>
    </filter>
    <filter id="路径_329" x="96.26" y="28.373" width="81.938" height="93.063" filterUnits="userSpaceOnUse">
      <feOffset dx="-2.268" dy="2.268" input="SourceAlpha"/>
      <feGaussianBlur stdDeviation="1.417" result="blur-2"/>
      <feFlood flood-color="#303030" flood-opacity="0.749"/>
      <feComposite operator="in" in2="blur-2"/>
      <feComposite in="SourceGraphic"/>
    </filter>
  </defs>
  <g id="ky_logo" transform="translate(-65.902 -66.826)">
    <rect id="矩形_6" data-name="矩形 6" width="90.939" height="126.579" rx="7" transform="translate(163.054 76.149) rotate(6.213)" fill="url(#linear-gradient)"/>
    <g id="组_121" data-name="组 121" transform="translate(159.445 76.927)" style="mix-blend-mode: soft-light;isolation: isolate">
      <path id="路径_324" data-name="路径 324" d="M400.317,101.807l-34.8-3.788a7.614,7.614,0,0,0-8.393,6.746l-2.785,25.585C367.676,114.349,389.033,105.561,400.317,101.807Z" transform="translate(-354.342 -97.973)" fill="url(#linear-gradient-2)"/>
    </g>
    <g id="组_122" data-name="组 122" transform="translate(152.558 79.144)">
      <path id="路径_325" data-name="路径 325" d="M412.633,233.994a6.347,6.347,0,0,1-.686-.037l-73.285-7.979a6.23,6.23,0,0,1-5.519-6.868l11.839-108.745a6.237,6.237,0,0,1,6.868-5.519l73.285,7.979a6.23,6.23,0,0,1,5.519,6.868L418.815,228.438a6.231,6.231,0,0,1-6.182,5.557Zm-.581-1a5.257,5.257,0,0,0,5.8-4.658l11.839-108.745a5.257,5.257,0,0,0-4.657-5.8l-73.285-7.979a5.263,5.263,0,0,0-5.8,4.657L334.11,219.216a5.258,5.258,0,0,0,4.657,5.8Z" transform="translate(-333.106 -104.809)" fill="#fff"/>
    </g>
    <rect id="矩形_7" data-name="矩形 7" width="90.939" height="126.579" rx="8" transform="matrix(0.983, -0.184, 0.184, 0.983, 65.902, 83.524)" fill="url(#linear-gradient-3)"/>
    <g id="组_123" data-name="组 123" transform="translate(67.17 75.298)" style="mix-blend-mode: soft-light;isolation: isolate">
      <path id="路径_326" data-name="路径 326" d="M112.585,92.948,76.028,99.777a7.614,7.614,0,0,0-6.087,8.883L74.5,133.042C83.036,112.128,104.85,97.588,112.585,92.948Z" transform="translate(-69.811 -92.948)" fill="url(#linear-gradient-4)"/>
    </g>
    <g id="组_124" data-name="组 124" transform="translate(69.956 70.612)">
      <path id="路径_327" data-name="路径 327" d="M104.717,211.723a6.314,6.314,0,0,1-6.193-5.146L78.509,99.43a6.3,6.3,0,0,1,5.038-7.353l72.1-13.468A6.311,6.311,0,0,1,163,83.648l20.015,107.147a6.31,6.31,0,0,1-5.038,7.353l-72.1,13.468A6.316,6.316,0,0,1,104.717,211.723ZM156.808,79.474a5.329,5.329,0,0,0-.981.091l-72.1,13.468a5.329,5.329,0,0,0-4.26,6.218L99.48,206.4a5.336,5.336,0,0,0,6.218,4.261l72.1-13.468a5.336,5.336,0,0,0,4.261-6.218L162.045,83.826A5.339,5.339,0,0,0,156.808,79.474Z" transform="translate(-78.4 -78.501)" fill="#fff"/>
    </g>
    <g transform="matrix(1, 0, 0, 1, 65.9, 66.83)" filter="url(#路径_328)">
      <path id="路径_328-2" data-name="路径 328" d="M107.087,151.124l31.3-6.6,1.1,5.161s-8.46.931-7.191,8.291l5.584,26.9s11.167-19.628,14.89-29.357c.647-1.691,2.03-6.176,2.03-6.176s.169-2.03-2.707-1.861a41.941,41.941,0,0,0-4.315.423l-1.015-5.161,27.918-5.922,1.1,5.245a21.538,21.538,0,0,0-13.029,8.545s-2.961,4.653-4.484,7.868S151.5,170.92,151.5,170.92l25.634,28.172s5.415,6.345,8.8,7.445a15.951,15.951,0,0,0,6.768.93l.931,4.568-21.658,4.653L143.8,184.541l-3.384,7.022a4,4,0,0,0-.508,3.553c.592,2.284,3.215,14.805,3.215,14.805s1.438,5.584,5.584,5.837,5.076,0,5.076,0l.931,4.568L122.823,227.1l-1.1-4.907s7.445-.761,7.36-5.245a66.147,66.147,0,0,0-1.692-11.167L118.17,161.7s-1.692-5.837-5.668-5.669a8.5,8.5,0,0,0-4.146.339Z" transform="translate(-93.73 -114.12)" fill="#fff"/>
    </g>
    <g transform="matrix(1, 0, 0, 1, 65.9, 66.83)" filter="url(#路径_329)">
      <path id="路径_329-2" data-name="路径 329" d="M383.376,160.435l32.74,4.822-.761,5.2s-7.233-1.269-7.614,1.777,4.315,14.594,4.315,14.594l5.837,15.355s4.822-4.315,14.213-17.386c1.274-1.773,6.091-6.726,3.3-9.9-1.31-1.488-6.472-2.411-6.472-2.411l.761-5.33,26.565,3.976-.8,5.287a14.394,14.394,0,0,0-12.479,4.188,104.688,104.688,0,0,0-10.237,12.182l-12.352,15.651L417,230.7s-1.1,7.022,3.469,8.206a48.224,48.224,0,0,1,5.076,1.438l-.677,4.653-34.263-5.161.592-4.653s6.261,1.184,9.052-1.777,2.961-11.844,2.961-11.844l1.861-11.929L391.625,174.1s-2.792-6.26-6.43-7.783l-2.369-.677Z" transform="translate(-280.05 -130.08)" fill="#fff"/>
    </g>
  </g>
</svg>
