<?xml version="1.0" encoding="utf-8"?>
<!-- Generator: Adobe Illustrator 23.0.6, SVG Export Plug-In . SVG Version: 6.00 Build 0)  -->
<svg version="1.1" id="圖層_1" xmlns="http://www.w3.org/2000/svg" xmlns:xlink="http://www.w3.org/1999/xlink" x="0px" y="0px"
	 viewBox="0 0 455 177.2" style="enable-background:new 0 0 455 177.2;" xml:space="preserve">
<path d="M89.4,52.4c-1.8-1.3-3.6-3.4-3.6-3.4s-2.9-0.4-5.2-0.2c-2.2,0.2-3.4,0-3.4-1.3c0-1.3,2.2-1.1,5.8-2.9
	c3.6-1.8,2.9-3.1,3.1-5.8c0.2-2.7-2.9-4.9-3.6-6.1c-0.7-1.1-0.2-1.3-0.9-4c-0.7-2.7-6.1-5.2-9.6-6.3c-3.6-1.1-9.2-2.2-9.9-2.5
	c-0.7-0.2-1.3-1.1-2.2-2.2c-0.9-1.1-0.9,0.7-2.5,0.9c-1.6,0.2-1.3-0.7-1.3-0.7l-1.8,1.6c0,0,0.8,2.8,1.1,3.4
	c2.2,3.6,7.9,8.1,9.4,8.5s2.2,2.5,0,2.5c-2.2,0-7.6,3.6-11.7,5.6c-4,2-2,4-2,4l6.3,6.5c0,0-2,1.3-2.7,2.5c-0.7,1.1-2.7,5.2-2.7,5.2
	s-4.7,4-5.8,4.7c-1.1,0.7,0,1.6,0.9,1.8c0.9,0.2,1.1,1.8,1.1,1.8s0.2,6.3,0.9,6.5c0.7,0.2,3.1,3.1,3.1,3.1s-12.1,4.7-12.8,4.9
	c-0.7,0.2-7.6,2.9-7.6,2.9s1.6-1.3,3.6-3.8c2-2.5,1.6-2.7,0-3.4c-1.6-0.7-4.7,0.2-6.7,2c-2,1.8-6.5,2-7.9,2c-1.3,0-0.2,1.6,0,4.9
	c0.2,3.4-1.3,6.3,0.7,9.4s4,1.8,4.3,1.1c0.2-0.7,3.4-2,7.4-2.2c4-0.2,28.7-11.2,31.2-11.9c2.5-0.7-0.2,2.9-1.8,4.9
	c-1.6,2-4.9,8.1-5.6,8.1c-0.7,0-2.5,0.2-2.7,1.3c-0.2,1.1,0.2,1.8,0.2,5.8c0,4-4,11-4.9,13.9c-0.9,2.9-2.5,6.7-1.6,11.9
	c0.9,5.2,7,8.1,9,6.5c2-1.6,2.7-7.9,2.7-7.9s1.8-0.7,3.1-0.2s2.5,2.5,2.5,2.5s-0.2,7-0.2,7.2c0,3.3-1.1,10.1,0.7,12.8
	c1.8,2.7,2.2,7,3.8,8.8c1.6,1.8,4,0.9,6.1-0.4c2-1.3,2.2-8.3,2.2-8.3v-35.2c0,0,1.6-1.3,2-3.4c0.4-2,1.6-4.3,1.6-8.5
	c0-4.3,0.2-8.1,0.4-11.9c0.2-3.8-1.8-6.3-4.5-8.1c-2.7-1.8-1.1-2,1.6-1.6c2.7,0.4,4.5-1.1,7-1.8c2.5-0.7,2.2-1.3,2.2-3.4
	c0-2-3.6-4-6.1-5.4c-2.5-1.3-2-2-0.4-4c1.6-2,6.3-4.7,8.1-7.2C91.6,55.6,91.2,53.8,89.4,52.4z M63.6,68.6c-2,1.8-2.9,1.1-2.9,1.1
	l4.5-4.9C65.1,64.8,65.6,66.8,63.6,68.6z M65.1,55.1c-1.3,0.2-5.6,0.9-3.6-0.9l7.2-4.7c0,0,3.6-0.9,0.9,2
	C66.9,54.4,66.5,54.9,65.1,55.1z M68.1,109.6c-1.1,1.1-5.2,4-5.2,4s-2.5,0.7-2.2-0.9c0.2-1.6,0.9-4.9,0.9-4.9l7,0.2
	C68.5,108.1,69.2,108.5,68.1,109.6z M71,96.2c0,0-2.7-0.9-3.4-0.9c-0.7,0-2.9-1.3-2.9-1.3l2.2-2l4.3-2.5L71,96.2z M147.7,116.2
	c0.2,1.1,3.1,3.4,2.5,7.9s-2.7,15-5.4,17.5c-2.7,2.5-4.9,3.1-13.7,3.8c-8.8,0.7-15.7-0.2-23.3-1.6s-12.3-3.4-12.3-9.4
	c0-6.1,1.6-32.1,1.6-33.4s0.2-3.6-0.9-4c-1.1-0.4-4-1.3-2-3.6c2-2.2,4.3-2,4.5-4.3c0.2-2.2,2.9-3.6,3.4-4.7c0.4-1.1,4.3-4.7,2.9-5.2
	c-1.3-0.4-1.3-0.4-3.1-0.4c-1.8,0-7,0.7-8.1-4c0,0-2.2-5.4,0.4-7.6c2.7-2.2,4.3-3.6,5.6-5.8c1.3-2.2,1.6-5.2,1.6-7
	c0-1.8,0.9-4.3,0.9-4.3s-2,0.7-2-0.9s-0.2-15-0.2-15l-3.1-0.2l-4,0.9c0,0,4.9-3.4,5.6-6.1c0.7-2.7-1.6-3.6-0.2-3.8
	c1.3-0.2,0-1.3,2.9-0.9c2.9,0.4,10.3,2.2,10.8,4.7c0.4,2.5-2.2,5.4-1.8,8.8c0.4,3.4,1.1,3.1,1.1,3.1l11.4,1.3c0,0,7.4,0.4,4.9,4.7
	c-2.5,4.3-4,3.6-7.9,5.6c-3.8,2-12.1,4-9,6.5c3.1,2.5,3.8,2.5,5.8,2.7c2,0.2,5.6,0.9,7.4,2.2c1.8,1.3,3.8-0.4,1.3,4.5
	c-2.5,4.9-7.2,9.9-7.2,9.9s-3.4,3.8-2.9,4.5c0.4,0.7,2,2,2,2s0,2-0.4,2.7c-0.4,0.7-2.7,2-0.7,2.2c2,0.2,2.9,0.4,4.9,1.3
	c2,0.9,4.7,2.7,3.8,5.2c-0.9,2.5-2.2,6.3-5.6,5.4c-3.4-0.9-4.5-4.3-6.5-4.9c-2-0.7-4.5-0.9-5.8-0.4c-1.3,0.4-1.3-0.2-1.1,2
	c0.2,2.2,1.1,2.9,2.2,2.9c1.1,0,6.1,0.7,6.7,0.9c0.7,0.2,6.7,2.9,6.7,3.8s2.9,2.9-0.7,5.6c-3.6,2.7-5.4,5.4-2,5.4
	c3.4,0,8.1,0.4,9,4.7c0.9,4.3-2.9,8.3-8.5,7.9c-5.6-0.4-6.7-2.7-9-4.7c-2.2-2-3.4-5.2-4.5-3.6c-1.1,1.6-2.2,7.9-2.2,8.5
	c0,0.7-2,7.2-0.9,8.1c1.1,0.9,12.3,0.2,17.7-0.4c5.4-0.7,16.2,0.4,18.4-9.4c2.2-9.9,2.9-14.8,0.7-20.6c-1.6-4-1.3-6.5,1.1-4.9
	c2.5,1.6,5.2,3.1,6.1,6.1C147.5,111,147.5,115,147.7,116.2z M240.2,138.6c-0.7-1.3-2.7-10.5-4.5-13.9c-1.8-3.4-6.1-13.9-6.1-13.9
	s-0.2-4.9-0.7-7.9c-0.4-2.9-4.3-5.8-6.7-7.2s-3.4,0.4-3.4,0.4s1.1,2.2,0.7,4.7c-0.4,2.5-0.4,3.8-1.1,7c-0.7,3.1-3.4-1.3-3.4-1.3
	s-3.6-6.5-4.9-10.1c-1.3-3.6-1.1-9.4-0.4-12.1c0.7-2.7,6.3-8.3,7-9.4c0.7-1.1-2.2-3.8-4-4.7c-1.8-0.9-3.4,0.7-3.8,1.8
	c-0.4,1.1-2.5,1.6-4.5,0.2c-2-1.3-1.8-9.4-1.3-13.9c0.4-4.5-0.9-8.5-1.6-11.2c-0.7-2.7-3.4-7.6-5.8-7.6s-2.2,4.5-1.8,6.7
	c0.4,2.2,5.8,31.6,5.8,31.6s-2,1.8-3.1,2.2c-1.1,0.4-4.3,4-6.1,6.1c-1.8,2-4.9,3.1-4.9,3.1s-0.7,3.6-2.2,6.7
	c-1.6,3.1-11,17.5-12.6,20.4c-1.6,2.9-3.1-1.3-3.4-2.7c-0.2-1.3-0.7-8.5-0.2-9.4c0.4-0.9,7.4-5.6,10.1-8.3
	c2.7-2.7,10.1-12.6,10.3-17.1c0.2-4.5-1.3-5.4-2.5-6.1c-1.1-0.7-4.5-1.3-6.7-1.8c-2.2-0.4-5.6-6.3-6.3-7.6c-0.7-1.3,0.2-4.3,0.9-5.4
	c0.7-1.1,0.9-3.4,0-4.7c-0.9-1.3-4.9,0-6.3,2.7c-1.3,2.7-1.6,12.8-1.6,15.9s-2.9,14.4-2.5,16.4c0.4,2-3.1,4.5-5.2,6.5
	c-2,2-5.2-0.4-5.8-2c-0.7-1.6-3.4-0.7-3.4-0.7c-0.7,3.6,3.6,8.1,6.1,9.9c2.5,1.8,7,3.8,7,3.8s0.4,9.6,0.7,15
	c0.2,5.4,2.7,4.3,8.3,8.8c5.6,4.5,7.2,3.1,8.8,1.8c1.6-1.3,0.9-4.5-0.9-7.2c-1.8-2.7-0.9-5.2,1.1-5.6c2-0.4,2.9,1.6,3.6,4.7
	c0.7,3.1,3.4,0.4,5.8-3.8c2.5-4.3,5.8,0,8.5,1.3c2.7,1.3,5.8,5.6,7.2,6.7c1.3,1.1,5.2-2,8.1-2.2c4.9-0.4,5.6,3.6,5.6,3.6
	c4,7,11.7,16.4,17.3,20.6c5.6,4.3,8.8,4.9,11,3.1c2.2-1.8,1.8-3.1,1.1-4.7C246.7,146.4,240.8,139.9,240.2,138.6z M183.6,106.1
	c0,0,1.1-1.1,1.8-2.2c0.7-1.1,1.6-1.8,1.6,0.9C187,107.4,184.1,112.3,183.6,106.1z M191.7,100.2c-1.1,0.9-3.6,0.7-3.1-2.2
	c0,0-0.2-3.6,1.6-6.1c1.8-2.5,6.7-7.6,7.9-8.5s3.4-2.2,3.4-0.4c0,1.8-0.2,4.9-2,7.6C197.5,93.3,192.8,99.3,191.7,100.2z M206.5,102
	c-1.1,1.8-4.7,2.9-5.6,2c-0.9-0.9-1.6-1.8-1.6-1.8c0.7-0.9,2.2-2.9,2.9-4.5s2-3.8,2.5-1.8C205.2,98,207.6,100.2,206.5,102z
	 M227.4,131c-2.5-2-5.6-6.3-5.4-8.8l2.9-4.5c0,0,1.6-1.6,2.7-0.2c1.1,1.3,0.7,8.8,0.7,9.4C228.3,127.6,229.8,133,227.4,131z
	 M311.8,102.2c0.7-0.9,3.4-1.6,4-1.6c0.7,0,6.3,0.4,9.2-0.9c2.9-1.3-1.1-2.9-2.7-4.3c-1.6-1.3-6.5-1.8-9.2-1.1
	c-2.7,0.7-5.4,0.9-5.4,0.9V74.4c0,0,2.9-1.3,5.6-4c2.7-2.7,1.3-2.7,0-3.8c-1.3-1.1-4.3-0.4-4.3-0.4l-0.9-11.2c0,0-0.4-4.3-0.9-5.4
	c-0.4-1.1-0.9,0-2.7,0c-1.8,0-5.2-1.8-7-0.4c-1.8,1.3-3.1,1.1-1.8,3.4c1.3,2.2,2.9,0.2,4.3-0.4c1.3-0.7,2.7,2.2,2.7,2.2L302.3,69
	l-7.4,7l-2.5-0.2c0,0-2.5-1.8-4.5-2.7c-2-0.9-0.2,1.8,0.4,2.5c0.7,0.7,1.3,3.4,1.3,3.4s-3.1,2.7-5.8,2.7c-1.4,0-5.6-0.2-2.7,2
	c2.9,2.2,8.8,1.1,8.8,1.1l0.2,11.4l-5.4,4.7l-0.2,3.1c0,0-6.7,2.5-9,4c-2.2,1.6-6.1,2.2-6.1,2.2l0.7-2.9c0,0,6.7-8.3,9.9-12.6
	c3.1-4.3,2.2-4.7,2.2-4.7l-3.4,2.5l-9.4,7.9l-0.9-4.9l1.3-2l0.9-6.3c0,0,9-10.3,11.2-13.7c2.2-3.4,3.6-3.8,3.8-5.8
	c0.2-2,0-3.1,0-3.1s-3.6-1.8-4.3-2c-0.7-0.2-7.6-1.1-7.6-1.1s0.7-4.5,0.7-6.7c0-2.2-2.2-5.6-4.9-6.1c-2.7-0.4-6.5-3.4-11.4-2.5
	c-4.9,0.9-0.2,1.6,2.2,2.5c2.5,0.9,5.4,4.3,5.4,4.3l0.9,15.7c0,0-9,12.1-11.4,13.9c-2.5,1.8-3.6,1.1-3.6,1.1l-3.1-2.7h-1.6
	c2.9,7.4,9.4,9,10.8,9.6c1.3,0.7,1.6,2.7,1.6,2.7s-3.8,6.3-7,9.4c-3.1,3.1-3.8,3.4-4.9,3.4s-2,0.7-3.8,2.9c-1.8,2.2,0.4,2.9,0.4,2.9
	s3.4,3.8,4.7,5.2c1.3,1.3,2,4.5,3.8,6.1c1.8,1.6,1.6-1.1,4.3-2.7c2.7-1.6,3.1,1.8,3.1,1.8l2.7,4c0,0,4.5,5.8,6.3,7
	c1.8,1.1,1.8-0.4,1.8-0.4l0.2-15.3l3.6-2.5c0,0,2.9-1.1,3.8,1.1c0.9,2.2-0.2,3.1-0.2,3.1s4.3,4.3,8.5,7.2c4.3,2.9,4.3-2.2,4.7-3.1
	c0.4-0.9,2.9-6.3,4-8.3c1.1-2-2-0.9-2-0.9s-3.4,0.9-4.9,2.5c-1.6,1.6-4,1.1-4.9-0.2c-0.9-1.3-2.9-3.6-2.9-3.6l9.4-3.6l2.5-1.8
	c0,0,1.8-1.1,4.7-2.5c2.9-1.3,5.6,0.7,7,2.5c1.3,1.8,2,0.9,2-0.9c0-1.8,1.3-3.6,2.5-3.6C310,102.9,311.1,103.1,311.8,102.2z
	 M265.3,118.8c-0.7,1.1-3.6,0.9-3.4-0.9c0,0,0.2-2.7,1.8-2C265.3,116.6,266,117.7,265.3,118.8z M294.5,83.4c0.2-2.2,2.5-0.2,2.5-0.2
	l-0.2,2.5c0,0-1.3,0.7-2,0.7C294,86.3,294.5,83.4,294.5,83.4z M296.3,100.4c-1.1,0.4-1.1-2.7-1.1-2.7c0-2.5,2.2-0.2,2.2-0.2
	S297.4,100,296.3,100.4z M301.4,93.9c0,1.1-2-2-2-2l2-0.4C301.4,91.5,301.4,92.8,301.4,93.9z M326.6,125.8c0.4,3.1-2.5,1.8-5.2,1.8
	c-2.7,0-6.1,3.1-7.9,3.1c-1.8,0-0.7-2.5,0.2-3.4c0.9-0.9,2.7-5.2,2.5-7.2c-0.2-2-7.4-9-7.4-9s0.7-0.9,4.3-0.9c3.6,0,5.6,3.1,8.8,6.3
	C325,119.7,326.1,122.7,326.6,125.8z M364.9,115.5l-0.2,7c0,3.6,1.8,8.8,2.5,12.6c0.7,3.8-0.4,7.4-0.4,11.7c0,4.3-2.2,7-4.5,8.3
	c-2.2,1.3-4.3,1.6-4.9,1.6c-0.7,0-3.8-2.9-4-4.7c-0.2-1.8,2.2-3.4,3.8-4.9c1.6-1.6,3.4-5.8,4-11.2c0.7-5.4-1.1-14.4-1.1-14.4
	l-1.1-0.7c0,0-1.8,0.7-3.8,0.7s-2.2-2.7-3.4-4.7c-1.1-2,0.7-6.1,0.9-8.3c0.2-2.2,2-1.8,2.2-4.9c0.2-3.1-2-4.7-3.6-5.6
	c-1.6-0.9-1.1,4.9-1.1,5.6c0,0.7-0.2,23.8-2,28.5c-1.8,4.7-4.9,8.3-9,11.9s-3.1-1.3-3.1-2.5s1.6-8.3,2-10.3s1.6-6.5,1.6-8.8
	c0-2.2,1.1-14.6,0.9-17.5c-0.2-2.9,1.1-5.2,1.6-8.3s-0.2-7.6-0.7-11c-0.4-3.4-0.4-13.7-2.2-17.7c-1.8-4-7.4-7.6-7.4-7.6
	c-1.3,0,0.7-2.9,2.9-3.8c2.2-0.9,3.8,1.1,6.5,3.8c2.7,2.7,7.6,7.2,7.9,10.3c0.2,3.1,1.3,16.8,1.3,16.8l2.5,0.4c0,0,1.8-9.6,2-11.7
	c0.2-2,2.7-7.2,2.7-8.3c0-1.1-1.6-2.5-1.6-2.5s-5.4-5.6-6.5-7.4c-1.1-1.8-5.8-10.1-7-12.3c-1.1-2.2-0.4-5.8,0.7-5.8
	c1.1,0,3.4,1.8,3.4,1.8s3.8,5.2,4.9,7.9c1.1,2.7,2.9,2.7,6.1,2.7c3.1,0,4.7-3.1,4.7-3.1s-0.7,0.4,0.2-0.9c0.9-1.3,3.6,1.6,5.4,2.2
	c1.8,0.7,8.5,5.2,10.8,10.5c1.9,4.5,0.2,4.3-1.1,4.5c-1.3,0.2-4.5,0.2-5.6,0.7c-1.1,0.4-3.6,3.8-6.3,6.7c-2.7,2.9-5.6,11.2-6.5,15
	c-0.9,3.8,2,2.9,2,2.9s2.2-2.2,3.6-4.5c1.3-2.2,3.1,0,3.1,0s7,4,7.4,5.4c0.4,1.3-0.4,2.2-3.1,3.8c-2.7,1.6-10.3,10.3-10.3,10.3
	s-3.4,2.5-2.7,3.6c0.7,1.1,2.7,0.4,2.7,0.4s3.6-2.9,4.9-4c1.3-1.1,2.2-1.3,2.9-0.2c0.7,1.1,1.6,2.5,0.7,4.5
	C369.4,111.9,364.9,115.5,364.9,115.5z M427.5,73.3c-1.3-2.9-6.1-10.3-7.9-11.7c-1.8-1.3-4.5-4.7-8.3-4.7c-3.8,0-6.5,1.8-6.5,1.8
	l-3.6-2c0,0,3.1-2.5,3.8-4s-1.1-1.8-2-2.9c-0.9-1.1-10.8-6.1-13.5-7.6c-2.7-1.6-5.6-1.1-6.7-1.1c-1.1,0-2.5,2.9-2.7,3.6
	c0,0,2.5,2.7,3.4,4.3c0.9,1.6,4,4.9,4,4.9l-2.7,5.8c0,0-5.8,11.4-8.5,14.4c-2.7,2.9-1.1,4.3-0.2,6.3c0.9,2,1.3,5.4,1.3,6.1
	c0,0.7,0.7,11.4,0.9,15.5c0.2,4,7.4,8.5,7.4,8.5l-5.8,6.5c0,0-7.4,8.5-9.2,10.5c-1.8,2-0.4,4.5-0.2,8.8c0.2,4.3,3.6,3.6,3.6,3.6
	s5.8-3.1,7.4-4.3s16.6-9.9,16.6-9.9s-0.2,12.3-0.2,14.8c0,2.5-1.1,3.1-1.8,4.7c-0.7,1.6,2.9,7,4,8.3c1.1,1.3,1.3,3.4,3.4,4.5
	c2,1.1,2.7-0.9,2.7-0.9l-0.9-34.6c0,0,1.1-0.4,4.5-2.2c3.4-1.8,11-7,12.3-8.1c1.3-1.1,1.8-3.6,1.1-5.6c-0.7-2-1.8-1.1-1.8-1.1
	s-5.2,0-8.1-0.2c-2.9-0.2-4-4.5-4-4.5s-0.2-2.7,1.1-3.8c1.3-1.1,2-3.1,2-3.1l-0.2-5.8c0,0,3.6-4.3,4.9-5.4c1.3-1.1,7-0.7,10.3-0.4
	C430.9,82.3,428.9,76.2,427.5,73.3z M384.7,93.9c0.2-0.9,1.6-3.4,1.6-3.4s3.6-2.5,4.7-1.1c1.1,1.3,4.3,4.9,4.3,4.9s1.6,1.3,0.2,3.1
	c-1.3,1.8-6.7,8.5-6.7,8.5s-2.5,1.8-2-1.8c0.4-3.6,0.9-3.4-0.4-4.7C384.9,98.2,384.5,94.8,384.7,93.9z M397,117.5
	c-0.9,1.3-8.8,4.3-10.1,5.4c-1.3,1.1-4.3,2.5-4.3,2.5s-2.7-0.4-0.9-2.5l10.8-9l4.9-4.5c0,0,0.9-0.2,0.9,2
	C398.4,113.7,397.9,116.2,397,117.5z M399.9,71.5c-4.7,3.2-15.3,9.4-15,9.6c0.8,1-2.5-1.3-2.5-1.3s-1.8-4.9-1.8-5.6
	c0-0.7,3.1-2.7,3.1-2.7l10.3-11c2.7-3.1,3.6,0.9,3.6,0.9l-2.5,3.1c0,0-3.6,3.4-4.3,4.9c-0.7,1.6,0.9,2.7,0.9,2.7l5.8-2.2
	c0,0,2.9-2.2,3.1-1.1C401.1,69.9,401.3,70.6,399.9,71.5z M409.4,79.8c-1.6,1.8-3.6,2.2-3.6,2.2s-0.7-2.2-0.7-2.9
	c0-0.7,3.1-2.7,3.1-2.7C410.9,74,410.9,78,409.4,79.8z M215.9,55.6c0,0-0.7-2.2,0.9-2.7c1.6-0.4,2.2-1.1,5.2,1.1
	c2.9,2.2,13,12.3,13,12.3s3.8,4.3,4.9,5.4c1.1,1.1,1.6,2.9,1.1,5.6c-0.4,2.7,0,3.8-1.8,2.9c-1.8-0.9-2.2-2.5-4-3.1
	c-1.8-0.7-5.2-0.4-6.3,0s-2.7-0.9-1.6-2.2c1.1-1.3,0.2-5.8-0.2-6.5c-0.4-0.7-7.6-8.3-7.6-8.3S217.1,58.7,215.9,55.6z"/>
</svg>
