<?xml version="1.0" encoding="utf-8"?>
<!-- Generator: Adobe Illustrator 23.0.6, SVG Export Plug-In . SVG Version: 6.00 Build 0)  -->
<svg version="1.1" xmlns="http://www.w3.org/2000/svg" xmlns:xlink="http://www.w3.org/1999/xlink" x="0px" y="0px"
	 viewBox="0 0 387.39 176.38" style="enable-background:new 0 0 387.39 176.38;" xml:space="preserve">
<style type="text/css">
	.st0{fill:#A4DAF2;}
</style>
<g id="圖層_1">
</g>
<g id="圖層_2">
	<g>
		<path class="st0" d="M150.6,60.4l-33,84.92L88.23,55.72H46.42L0.29,176.38h40.29l28.21-71.31l24.69,71.31h11.91h0.35h36.44
			l32.58-84.1C162.51,71.26,150.6,60.4,150.6,60.4z"/>
		<path class="st0" d="M108.21,19.07c0,0,45.2,17.17,75.33,70.07c11.66,20.47,25.23,65.17,23.82,87.24h56.41
			c0,0-15.07-66.22-66.22-119.12C188.42,47.82,159.36,18.02,108.21,19.07z"/>
		<path class="st0" d="M347.86,54.44l-36.13,93.74l-21.57-94.54l-0.18,0.45h-36.72l-15.42,38.89c0,0,18.22,31.88,20.32,40.64
			l7.49-18.67l17.04,61.44h57.81l46.6-121.94H347.86z"/>
		<polygon class="st0" points="70.62,31.55 80.98,24.82 91.35,31.55 88.14,19.62 97.75,11.85 85.41,11.85 80.98,-0.33 76.56,11.85 
			64.22,11.85 73.83,19.62 		"/>
	</g>
</g>
</svg>
