<?xml version="1.0" encoding="utf-8"?>
<!-- Generator: Adobe Illustrator 23.0.6, SVG Export Plug-In . SVG Version: 6.00 Build 0)  -->
<svg version="1.1" id="圖層_1" xmlns="http://www.w3.org/2000/svg" xmlns:xlink="http://www.w3.org/1999/xlink" x="0px" y="0px"
	 viewBox="0 0 317.5 247" style="enable-background:new 0 0 317.5 247;" xml:space="preserve">
<g>
	<g>
		<path d="M182.8,124.9c1-18.6,16.4-33.4,35.3-33.4c15.2,0,28.2,9.6,33.2,23.1h16c-5.5-22.1-25.4-38.4-49.2-38.4
			c-28,0-50.7,22.7-50.7,50.7c0,0.6,0,1.3,0,1.9c-1,18.7-16.4,33.5-35.3,33.5c-19.5,0-35.4-15.8-35.4-35.4
			c0-19.5,15.8-35.4,35.4-35.4c13.6,0,25.4,7.7,31.3,19l8.3-15.2c-9.3-11.6-23.6-19.1-39.6-19.1c-28,0-50.7,22.7-50.7,50.7
			c0,28,22.7,50.7,50.7,50.7c28,0,50.7-22.7,50.7-50.7C182.8,126.2,182.8,125.6,182.8,124.9z"/>
		<path d="M259.5,134.6h-6.8h-22.9v15.7h15c-6.5,7.4-16,12.1-26.7,12.1c-14,0-26.2-8.2-31.9-20l-7.6,16.4c9.3,11.6,23.5,19,39.5,19
			c25.5,0,46.5-18.6,50.1-43H259.5z"/>
	</g>
	<path d="M151.2,73.4l13.2,6.7c0,0,5.4-1.1,14.2-1.5c7.5-0.4,15.9-4.1,17-13.8c1.2-10.4-4.8-16.8-4.8-16.8s3.8,12.9-4.7,17.3
		c-6.7,3.5-12.7,3.7-19.4,3.9C159.9,69.5,153.2,71.4,151.2,73.4z"/>
	<path d="M130.8,70.4c0,0,9.1-0.4,11,0.7c0,0,4.7-5.6,12.5-7.5c7.8-1.9,14-1.1,19.8-2.2c5.8-1.1,12-3.9,11.7-16.6
		c-0.2-9.3-9.9-19.8-9.9-19.8s4.5,15.5,1.1,21.4c-2.8,5-2.6,5.8-10.3,7.5c-7.6,1.7-15.9,0.9-15.9,0.9s5.4-9.3-4.5-18.5
		c-4.5-4.1-12.5-5.8-12.5-5.8s8.4,6.2,10.3,12.5c1.9,6.3,0.7,11-3.2,15.3C137.7,62.2,130.8,70.4,130.8,70.4z"/>
	<path d="M107.3,76.4c0,0,8-3.9,12.9-4.1c0,0,10.1-12.3,11.9-14.5s4.7-3.5,4.3-11.7C135.9,34.6,117,28.7,117,28.7s9.5,6,9.5,11
		s-0.2,8.6-5.8,15.1S107.1,69.9,107.3,76.4z"/>
	<path d="M90.5,88.3c0,0,5.8-4.8,8.6-6.9c0,0-0.7-6.9,1.9-11.7c2.6-4.8,8.4-11.4,11-14.2c2.6-2.8,7.5-7.3,6.3-15.3
		c-1.1-8-11.7-14.4-25.7-15.9c0,0,10.1,6.9,13.4,11.6c3.4,4.7,2.8,11.9-1.9,17c-5.1,5.5-9,9.1-9,9.1S85.9,45.4,65,56.3
		c0,0,16-2.3,21.8,7.8C90.6,70.6,90.1,81.8,90.5,88.3z"/>
	<path d="M50.3,68.9c0,0,13.8-8,22.2-3.4c8.4,4.7,8.2,9.7,8.4,14.5c0.2,4.8,0.9,14.7,2.8,18.1L78.4,110c0,0-5.3-5.2-5.8-11.6
		c-0.6-7.5-1.3-19.6-3.4-23.1C67.2,71.7,64.4,67.4,50.3,68.9z"/>
	<path d="M29,83.9c0,0,10.8-9.5,22.2-9.5s14,8.8,14,15.7c0,6.9,0.9,19.4,5.6,23.9c4.7,4.5,5.8,5.2,5.8,5.2l-0.7,10.4
		c0,0-5.6-2.6-11.9-8.8c-4.8-4.7-11.8-10.2-22.6-3.4c-4.7,3-8,7.5-8,7.5s2.2-11,10.6-15.1c8.4-4.1,14.2-1.9,14.2-1.9
		s2.2-18.5-6.5-24.1C46.9,80.8,38.5,81.4,29,83.9z"/>
	<path d="M77.5,140.7c0,0,2.2,8.8,4.3,11.4c0,0-8.8,0.9-16.2-5.6c-7.5-6.5-14.2-12.3-21.3-12.1s-11.7,9.1-11.7,9.1
		s1.1-11.9,9.9-16.4c8.8-4.5,14.9-1.1,19.8,2.6C67,133.5,72.1,139.1,77.5,140.7z"/>
	<path d="M86.4,160.5l6.9,7.3c0,0-2.2,1.7-10.8,1.9c-8.6,0.2-21.1,1.9-21.4,16.6l0.2,8.2c0,0-5.1-4.8-4.3-16.6
		c0.6-8.4,9.5-12.9,9.5-12.9s-11.6-10.6-16.8-11.7c-5.2-1.1-12.3,2.1-15.7,7.1c-3.4,5-6.2,9.3-6.2,9.3s0-10.6,5.2-18.1
		s12.7-11.9,20.5-6.7c7.8,5.2,16.6,13.6,21.1,14.5C79.2,160.3,86.4,160.5,86.4,160.5z"/>
	<path d="M101.2,173.9c0,0,4.8,3.4,7.5,4.5c2.6,1.1,3.4,1.3,3.4,1.3s-3.7,4.5-12.3,5.2c0,0-14.5,0.9-20.3,3.5s-9.9,7.5-7.5,18.8
		c0,0-6.9-10.1-4.3-19.8c2.6-9.7,11-10.3,15.3-10.8C87.2,176.2,97.1,175.6,101.2,173.9z"/>
	<path d="M121.5,182.3c0,0,8,1.3,11.6,0.6c0,0-2.4,4.1-6.5,7.8c0,0-9.7,9.3-7.8,17c1.9,7.6,10.6,15.5,10.6,15.5s-12.5-3-16.6-11.4
		c-4.1-8.4-0.7-13.6-0.7-13.6s-14.5-0.9-19.4,2.1s-8.6,8.2-7.8,14.9c0.7,6.7,2.2,12.5,2.2,12.5s-9.5-9.3-9.3-23.7
		c0.2-13.4,16-12.9,21.3-13.1C104.2,190.7,115,190.5,121.5,182.3z"/>
	<path d="M162.9,202.1v-13.4h2.5v13.4H162.9z"/>
	<path d="M185.9,202.2l-5.2-8.4v8.4h-2.7v-13.3h2.6l5.2,8.3v-8.3h2.7v13.3H185.9z"/>
	<path d="M194.8,191.4v10.8h-2.5v-10.8h-2.4v-2.5h7.4v2.5H194.8z"/>
	<path d="M207.9,202.3l-1.3-3.2h-4.4l-1.2,3.2h-2.7l5.1-13.4h2l5.1,13.4H207.9z M204.4,193.1l-1.2,3.3h2.5L204.4,193.1z"/>
	<path d="M212.5,202.2v-13.3h2.5v10.8h4.1v2.6H212.5z"/>
	<path d="M250.3,202.3l-1.3-3.2h-4.4l-1.2,3.2h-2.7l5.1-13.4h2l5.1,13.4H250.3z M246.8,193.1l-1.2,3.3h2.5L246.8,193.1z"/>
	<path d="M267.2,202.2l-1.3-8.8l-2.9,8.8h-2.1l-2.9-8.8l-1.3,8.8h-2.5l2.3-13.3h2.3l3.2,9.6l3.1-9.6h2.3l2.3,13.3H267.2z"/>
	<path d="M271.5,202.2v-13.3h7.6v2.5H274v2.6h5.2v2.6H274v3h5.2v2.6H271.5z"/>
	<path d="M168,202.2v-13.3h7.6v2.5h-5.2v2.6h5.2v2.6h-5.2v3h5.2v2.6H168z"/>
	<g>
		<path d="M143.1,188.2c-3.9,0-7.1,3.2-7.1,7.1c0,3.9,3.2,7.1,7.1,7.1c3.9,0,7.1-3.2,7.1-7.1C150.2,191.4,147,188.2,143.1,188.2z
			 M143.1,199.9c-2.5,0-4.5-2-4.5-4.5c0-2.5,2-4.5,4.5-4.5c2.5,0,4.5,2,4.5,4.5C147.6,197.9,145.6,199.9,143.1,199.9z"/>
	</g>
	<path d="M239.4,195.1h-2.6h-4.7v2.7h4c-0.8,1.3-2.2,2.1-3.8,2.1c-2.5,0-4.5-2-4.5-4.5c0-2.5,2-4.5,4.5-4.5c1.6,0,2.9,0.8,3.7,2
		l2-1.6c-1.3-1.8-3.4-2.9-5.7-2.9c-3.9,0-7.1,3.2-7.1,7.1c0,3.9,3.2,7.1,7.1,7.1c3.1,0,5.7-1.9,6.7-4.7c0.3-0.8,0.4-1.6,0.4-2.5
		C239.4,195.3,239.4,195.2,239.4,195.1z"/>
	<path d="M161,202l-3.2-5.8c1.5-0.4,2.6-1.8,2.6-3.4v-0.6c0-2-1.6-3.6-3.6-3.6h-2h-2.7v7.7v5.6h2.7v-5.6l3.1,5.6H161z M155.3,191.2
		c0,0,1,0,1.5,0c0.5,0,1,0.2,1,1.4c0,1.2-0.8,1.3-0.8,1.3h-1.6V191.2z"/>
</g>
</svg>
