<?xml version="1.0" encoding="utf-8"?>
<!-- Generator: Adobe Illustrator 23.0.6, SVG Export Plug-In . SVG Version: 6.00 Build 0)  -->
<svg version="1.1" id="圖層_1" xmlns="http://www.w3.org/2000/svg" xmlns:xlink="http://www.w3.org/1999/xlink" x="0px" y="0px"
	 viewBox="0 0 219.8 190" style="enable-background:new 0 0 219.8 190;" xml:space="preserve">
<style type="text/css">
	.st0{fill:#231815;}
</style>
<g>
	<path class="st0" d="M98.9,58l-6.5,16.2l-1,0.6l-26.2,3.3c0,0-2.5,0.2-2.7,0.8c-0.2,0.6,0.4,1.4,2.9,2.7
		c2.5,1.4,95.7,57.1,95.7,57.1l8.4,32.9c0,0,1.4,1.8,0,2.9s-4.5-2.7-4.5-2.7L43.1,77.3L15.9,55.8c0,0-5.4-2.4-3.7-4.1
		c1-1,8.2-0.2,8.2-0.2l73.2,4.3l3.9,0.2C97.5,56,99.7,55.4,98.9,58z"/>
	<path class="st0" d="M139.5,58l64.4,4c0,0,4-0.4,4.2,0.5s-0.1,1.7-2.2,3s-47.6,33.1-47.6,33.1s-1.7,1.7-2.5-1s-3.5-13.3-3.5-13.3
		s-0.6-0.5,0.6-1.8c1.3-1.3,14.4-13.7,14.4-13.7s1.8-1.2,1.4-2.1c-0.4-0.9-1-0.9-2.6-0.7S142.4,69,142.4,69L139.5,58z"/>
	<path class="st0" d="M127.5,12.1l33.6,126.6l-14.7-8.9l-27.1-74.7c0,0-0.5-2.1-1.4-2.1s-1.4,0.7-1.6,2.3c-0.1,1.7-9,51.3-9,51.3
		L89.2,95.6l35.1-83.5c0,0,0.7-1.8,1.6-1.8S127.4,11.3,127.5,12.1z"/>
	<path class="st0" d="M83.7,108.9l20.3,15.7l-3.7,19.2l-40.8,30.6c0,0-2.1,2-3.3,1.2c-1.2-0.8,0.5-3.6,0.5-3.6L83.7,108.9z"/>
</g>
</svg>
