<?xml version="1.0" encoding="utf-8"?>
<!-- Generator: Adobe Illustrator 23.0.6, SVG Export Plug-In . SVG Version: 6.00 Build 0)  -->
<svg version="1.1" id="圖層_1" xmlns="http://www.w3.org/2000/svg" xmlns:xlink="http://www.w3.org/1999/xlink" x="0px" y="0px"
	 viewBox="0 0 595.4 337.8" style="enable-background:new 0 0 595.4 337.8;" xml:space="preserve">
<g>
	<path d="M140.4,168.1c4.5,8.7,14.2,14.6,14.2,14.6c10-11.7,14.4-24.6,14.4-24.6c-39-25.2-60.4-61.7-60.4-61.7
		c28.1,6.8,74.3,25.2,74.3,25.2l1.7-26.1c0,0-3.4-1-10.5-2.9C121.1,78.3,74.8,58,74.8,58l-2.1,1.5c4,22.3,21.6,32.5,21.6,32.5
		c-31.8-12.7-52-22.5-52-22.5L38.9,72c0,0,3.1,11.1,8.1,23.1c9.6,22.9,31.2,22.5,31.2,22.5l-2.1,2.3l3.6,5.5
		c8.5,11.9,28.2,20,28.2,20c0.9,2.6,7.4,9.4,12.9,14.9C128.1,167.9,140.4,168.1,140.4,168.1z"/>
	<path d="M209.1,168.1c1.6-4.2,2.6-7.2,2.6-7.2s12.1,5.7,30.1,10.2l5.3,5.1l13.4-14.2l-9.8-17.8l-9.6,0.9l-24.2-7.4l1.3-17.6
		l3.2-5.9c0,0-15.9-15.5-25.5-28.9c0,0,2.3,23.5-1.9,46.7l-70.7-26.3c0,0,15.3,23.3,62.6,48.6c0,0-11,25.7-24,40.1
		c-14.6,16.1-29.3,26.5-43.5,34c0,0,41.2-3,70.4-25.7C193.6,199.1,201,189.3,209.1,168.1z"/>
	<path d="M214.8,167.6c3,42.9,11.3,49.4,11.3,49.4c19.5-4.5,22.7-16.6,22.7-16.6C224.8,189.1,214.8,167.6,214.8,167.6z"/>
	<path d="M277.9,80c7.2-2.3,39-12.9,69.8,13.1c6.6,5.5,11.9,13.1,11.9,13.1l9.1-14.6c0,0-9.6-11.7-19.5-17l1.1-0.8L346,59.4
		l-14.4,3.8l0.2,2.6c0,0-10.8-4.7-22.7-4.9l1.5-2.5l-11-10.4l-10.6,10.8l1.7,2.3c0,0-12.7,1.9-21.2,5.9l0.6-2.8l-14.8-3.2l-3.4,14
		L253,76c0,0-17,10.8-27.2,31.2l11,10.4C236.7,117.6,249.6,89.3,277.9,80z"/>
	<path d="M243,136.9l14,8.2l7.5-7.5v-10.1h33.5l3.7,3l4-3h34.5l0.9,15.2c6.5-4.3,20.3-20.9,20.3-20.9l-8.7-8.5c-3.3,3.5-7.9,6-7.9,6
		h-27.8l4.5-3.5l-20-14l-19.7,14l5.1,4.1h-28.9l-7.7-5.4l-3.5,4C254,129.1,243,136.9,243,136.9z"/>
	<path d="M267.7,136.9v5.1h71.5l-12.6-13.5l-9.1,8.2C317.5,136.7,267.4,136.6,267.7,136.9z"/>
	<path d="M287.8,87.4c-1.7-0.1-6.9,0.6-6.9,0.6s-5.7,0.6-9.9,3.8c-3.3,2.5-9.2,6.3-9.2,6.3s-1.4,0.8-0.1,1.6l9.6-0.3
		c0,0,2.4-0.1,4-1.6c1.6-1.4,12.9-9.5,12.9-9.5S289.7,87.5,287.8,87.4z M268.8,96.9c-0.5,0.3-1.6,1.1-2.2,1.4
		c-0.6,0.3-2.5,0.7-2.1-0.2c0.4-1,1.7-1.5,1.7-1.5s1.7-0.9,2.7-0.8C269.4,95.8,269.3,96.6,268.8,96.9z M275,96.4
		c-0.5,0.3-1.5,1-2.1,1.3c-0.6,0.3-2.4,0.7-2-0.2c0.4-0.9,1.6-1.5,1.6-1.5s1.7-0.9,2.6-0.8C275.6,95.4,275.4,96.2,275,96.4z
		 M276,92.1c-0.6,0.3-1.7,1-2.6,1c-0.9,0-1.1-0.5,0.2-1.6c0,0,1.9-1.3,3.2-1.1C277.8,90.5,276.6,91.8,276,92.1z M283.4,90.5
		c0,0-1.7,1.1-2.9,1.6c-1.3,0.4-1.7-0.1-0.7-1c1-0.9,2.8-1.9,3.7-1.7C284.6,89.6,283.4,90.5,283.4,90.5z"/>
	<path d="M259.4,106.7l1.8,2.9c-0.1-0.1,8.3,0,8.3,0l-0.3-1c0,0-1.4-2.7,0.3-2.5c1.7,0.2,2.9,3.3,2.9,3.3l4.2,0.1l-2.6-6
		c-1.3-1.7-3.6-1.5-5.1-1.5c-1.5,0-7.9,1.1-8.9,1.8C258.3,105,259.4,106.7,259.4,106.7z"/>
	<path d="M329.5,85.7c-1.1-0.3-3-0.8-4-0.9c-1-0.1-21.8-3.5-21.8-3.5c-4.2-0.5-4.9,3-4.9,3l-3.3,8.8l-0.7,0.1c0,0-0.8-2.3-1.7-3.4
		c-0.9-1.1-2.7,0.3-2.7,0.3s-10.7,7.2-13,9.1c-2.3,1.8-0.9,4-0.9,4l3.1,5.7h3.3c0,0,0.4-0.1,0.4-0.8c0-0.7,0.3-2.1,1.6-2.6
		c1.3-0.6,2.1,0.8,2.1,0.8l0.8,0.3c0,0,12.1-9.5,13.3-10.4s1.8-0.2,1.8-0.2l3,3c0,0,0,0,0.2-0.7c0.2-0.7,1.6-2.3,3.2-2.8
		c1.6-0.6,3.8,0.3,4,2.6c0.2,2.3-2.2,3.8-2.2,3.8l-0.1,0.8l3.6,2.8c0,0,0.9-0.3,2.7,0.1c1.8,0.4,1.6,3.2,1.6,3.2h4.3
		c0,0,6.4-15.5,7.4-18.5C331.7,87.1,330.6,85.9,329.5,85.7z M283.5,104.9c-0.9,0.1-2.5-0.5-2.3-2.7c0.2-2.5,1.8-2.5,1.8-2.5
		c1.7,0.3,2.6,1,2.5,2.5C285.4,103.5,284.5,104.8,283.5,104.9z M291.2,99.4c-2,0-2-2.9-2-2.9c0.2-1.9,1.7-2.4,2.5-2.4
		s1.8,1.2,1.9,2.4C293.6,97.6,293.2,99.4,291.2,99.4z M307.8,89.7c-0.9,3.3-3,3.2-5.1,3.1c-2.1-0.1-2.5-3.6-1.6-5.2
		c0.9-1.6,2.5-2.3,3.9-2.3C305,85.4,308.8,86.4,307.8,89.7z M325,93c-0.7,1.8-2.6,2.6-4.1,2.4c-1.4-0.3-2.5-1.7-2.5-2.9
		c0-1.2,0.7-2.5,0.7-2.5s1.6-1.9,3.9-1.4C325.3,89.1,325.7,91.2,325,93z"/>
	<path d="M333,108.9c0,0,0.4-1.5,1.7-1.5c1.3,0,1.6,1.3,1.6,1.3h5v-5.5l-4.8-12c0,0-0.4-1.2-1.5-1.3c-1.1-0.1-2.1,3.9-2.1,3.9
		l-5.8,15H333z"/>
	<path d="M335.7,151.5l-7.8-6.8l-5.2,5.1c-11.1-1.7-17.3-1.4-23.5-1.3c-14.5,0.2-20.7,1.8-20.7,1.8l-5.5-5.1l-7.6,6.7
		c0,0,0.8,1,1.4,1.5c0.7,0.5,2.3,2.9,2.3,5c0,2.1-0.9,3.3-0.9,3.3l-2.7,2.8l7.1,5.6c0,0,3.2-2.6,5.3-4.2c2.1-1.5,16.1-2.6,21.9-2.6
		c5.9,0,14.2,0.3,18.3,0.7c2.5,0.2,3.8,0.8,3.8,0.8l6.5,4.9l6.9-5.7c0,0-0.4-0.4-1.6-1.5c-1.2-1.1-1.8-3.5-1.7-5.4
		S335.7,151.5,335.7,151.5z M324.6,158.8c-0.1,2.6-1.6,3.4-2,3.3c-1.9-0.6-10.6-1.4-22.2-1.4c-11.6,0-20.7,1.5-20.7,1.5
		c-2.3,0.9-3-2.3-3-4.3c0-2,1.2-4.1,3.3-5c2.1-0.9,14.6-1.9,22.6-1.9c8,0,15.4,0.7,18.2,1.2C323.4,152.8,324.7,156.2,324.6,158.8z"
		/>
	<path d="M253.4,205.2l14.3,12.1l8.9-9.9c0,0,7.5-2.1,23.3-2.1s24.4,2.3,24.4,2.3l8.8,9.4l13.9-11.3l-5.7-7.1l0.1-11.6l8.2-6.7
		l-12.5-14.5l-10.2,7.7c0,0-13.3-3.7-27.1-3.7c-13.8,0-26.2,3.7-26.2,3.7l-9.6-7.5l-13.2,14.6l8.2,6.4v11.8L253.4,205.2z
		 M309.1,175.9c10.8-0.1,16.7,1.8,16.7,1.8l-0.7,11.5c-7.8-2.3-16-2.4-16-2.4V175.9z M308.6,190.8c12.1-0.4,16.6,2.1,16.6,2.1
		l-1,9.5c-4.4-1.4-15.6-1.4-15.6-1.4V190.8z M292.5,201.1c-11.5-0.6-16.7,1.6-16.7,1.6v-9.8c4.5-2.4,16.7-3,16.7-3V201.1z
		 M292.3,175.5v11.5c-6.8,0.3-16.7,2.3-16.7,2.3l-0.4-11.6C281.5,175.7,292.3,175.5,292.3,175.5z"/>
	<path d="M335.7,148.4c36.5-6.4,55-33.9,55-33.9c-3-7.9-10.9-19.4-10.9-19.4C362.1,133.9,335.7,148.4,335.7,148.4z"/>
	<path d="M389.3,86.2c0,0,25,48.1,69.8,65l22.4-26.8C481.5,124.4,429.3,122.7,389.3,86.2z"/>
	<path d="M565,71.8l-2.8-2.6L511,91.8c19.1-13.5,20-32.3,20-32.3l-1.6-1.1c-14.9,7.5-31.9,13.2-46.8,18.3
		c-46.4,15.9-71.4,19.1-71.4,19.1s9.6,7,31.5,13.5c21.8,6.5,50.9,8.9,50.9,8.9s-6.7,9.6-12.8,17.6c-6.1,7.9-18.6,22.4-18.6,22.4
		v10.5c0,0,3,0.3,6-0.4c8.5-2.1,11.6-4.7,14.8-7.1c3.1-2.4,14.5-16.3,14.5-16.3s5.9-2.1,12.5-6.1c11.6-7.1,19.1-18,19.1-18l-2.3-2.7
		c11.1-1.8,16.2-4.5,23.7-11.6C558.1,99.3,565,71.8,565,71.8z"/>
	<path d="M411.7,128.9l-17.9-7.4l-1.7,7l-16.5,18.2l-13.8,2.1l8.1,20l46-22.6c0,0,0.4,1.8,3.8,7.7c3.4,5.8,7.9,5.2,11.9,3.7
		c4-1.6,6.2-6.8,6.2-6.8l-3.7-2.4c-5.2-3.8-4-6.5-9.8-11.9c-5.8-5.4-14.2-0.6-14.2-0.6c5.1,3,4.1,7.1,4.1,7.1l-23,1.8
		c0,0,12.3-10.8,15-12.9C409.1,129.8,411.7,128.9,411.7,128.9z"/>
	<path d="M394.4,215.2v-34.9l6.6-8.5l-12.2-10.3l-8.5,7.4l-23.4,3.6c0,0.4-1.1,3.1-1.1,3.1l22.8-3.7l5.2,7.9l0.4,0.7l-0.1,5.3
		l-10.4,1.9l6-6.7l-7.3-6.8l-6.2,7.1l6,6.1l0.1,0.6l-11.9,2.6c0,0,3.2,4.3,3.7,4.7c0.5,0.5,0.1,1.9,1.2,1.4
		c1.1-0.5,15.2-7.2,15.2-7.2l3.7-1.6v18.6c0,0-9.7-9.8-19.4-9.3c-9.6,0.6-17.3,11.6-14.8,19c0,0,1.7-7.3,9-8.4
		c6-0.9,10.3,0.3,12.6,4.5c0,0,3,5.4,4.5,11.3L394.4,215.2z"/>
	<path d="M448.9,171.6c0.9-1.3,3.5-3.8,3.5-3.8s-6.5-4.7-8.9-7.1c-2.4-2.4-4.4-4.8-4.4-4.8l-11.2,8.9c0,0-1.6,0.6-4.4,1
		c-2.8,0.4-18.2,2.7-18.2,2.7l-2.4,3l23.5-3.5l5.5,6.8l0.1,9.5l-6.1,2l-2.7-2.7c0,0,4.5,0,5.1-3.1c0.6-3.1,0-4.3-4.1-7.1
		c-2.1-1.4-5.2-3.4-5.2-3.4l-5,7.2c0,0-1.4,2-0.9,4.1c0.6,2.1,1.6,3.1,3.5,3.1s3-0.7,3-0.7l-0.3,3.5l2.8,0.3l-20,5.8
		c0,0,3.7,2.3,4.8,3.5c1.1,1.3,1.6,3.7,1.6,3.7s-6.7,1-7.8,7.1c-1.1,6.1-0.1,10.4-0.1,10.4s0.9-10.2,7.1-10.9
		c6.2-0.7,15,0.9,18.7,6.5s9.1,13.5,9.1,13.5s1.8,5.1,5.1,4.3c3.3-0.9,12.2-7.5,12.2-7.5l-5.1-48.8C447.9,175,448,172.9,448.9,171.6
		z M421.6,202.7c-6.2-2-11.3-2.3-11.3-2.3l22.3-12.6l1.3,24C433.8,211.8,427.9,204.7,421.6,202.7z"/>
	<path d="M209.6,193.5c-10.5,14.8-24.1,21.8-24.1,21.8v30.9c0,0,6-1.1,16.7,1.1c10.8,2.3,17.3,5.7,21,11.1
		c3.7,5.4,11.3,10.5,11.3,10.5v-43.4c-4,3.4-13.1,4.8-13.1,4.8C214.7,220.1,209.6,193.5,209.6,193.5z"/>
	<path d="M375.2,234.3v34.9c0,0,8.2-6.2,11.1-10.2c2.8-4,7.1-7.7,14.5-9.6c7.4-2,18.2-3.1,20.7-2.6c2.6,0.6,2.6,0.6,2.6,0.6v-21.6
		l-7.7-4.8C416.4,221,397.7,224.7,375.2,234.3z"/>
	<path d="M325.3,217h-9.1l-13.6,4.5l-14.2-4.8l-8.2,0.3L268,230.6l-14.5-9.4l1.7,59c0,0,27.5,11.6,49.6,28.7c0,0,27-21.6,50.5-28.4
		v-59l-17.6,9.4L325.3,217z M294,270.1c0,0-3.4,0-8.1,0c-4.7,0-7.7-4.7-7.7-4.7l-7.4-9.2h-4c0,0,0,6.5,0,9.1s2.6,2.7,2.6,2.7h3.3
		v1.7h-11.8l0.7-31.1c0,0,12.8,0.1,17.3,0.1s6.6,3.3,6.6,9.1c0,5.8-6.7,7.1-6.7,7.1s5.2,6.5,8.9,10.7c3.7,4.3,6.3,3.3,6.3,3.3V270.1
		z M348.2,266.3c0,0-1,1.6-2.5,2.3c-3.4,1.6-6.8,1.6-12.6,1.6c-5,0-9-3-12-7.4c-2.6-3.9-2.7-14.6-2.7-14.6l-7.8,21.5h-5.7
		l-10.5-23.1h-0.5v20.6l-4.8-3.8v-25.2l11,0.1l8.8,22.3l7.1-22.4h10.1c0,0-0.8,1.4-1.1,2.9c-0.4,1.5-1.1,8.1-0.6,13
		c0.6,4.8,3.7,8.9,5.7,10.8c2,1.9,7.5,3.1,10.3,2.3c2.8-0.9,4.1-4.9,4.1-7.3c0-2.4-3-2.3-3-2.3h-4.9v-3h11.7V266.3z M346.8,241.8
		c2.5,3.4,1.9,7,1.9,7h-2c0,0-1.5-6.6-6.9-6.6c-6.1,0-8.6,0.8-9.6,2.5c-1,1.7-2,3.8-2.4,6L327,251c-0.2-0.4-0.4-6.6-0.1-8.5
		c0.3-1.9,2.6-3.8,3.9-4c1.3-0.2,8.5-0.3,8.5-0.3S344.3,238.4,346.8,241.8z"/>
	<path d="M266.7,241.7v11l1.9,0.2c0,0,8.4,0.4,8.4-6.1C277,240.4,266.7,241.7,266.7,241.7z"/>
</g>
</svg>
