<svg xmlns="http://www.w3.org/2000/svg" width="71.991" height="90" viewBox="0 0 71.991 90">
  <g id="sa_logo" transform="translate(-622.617 -307.456)">
    <path id="路径_59" data-name="路径 59" d="M671.691,378.723a18.681,18.681,0,0,1-2.425-3.148,8.339,8.339,0,0,1-1.214-3.162,6.74,6.74,0,0,1,.239-3.071,9.868,9.868,0,0,1,1.235-2.631,18.775,18.775,0,0,1,2.71-3.288,34.909,34.909,0,0,1,2.638-2.343c.381-.3.73-.568,1.08-.824L685.887,392s-12.29-11.253-14.2-13.278m-8.178-31.139c2.156-6.783,4.7-15.249,5.192-17.041.363,2.307,1.783,9.155,2.986,14.55a44.4,44.4,0,0,0-8.178,2.491m18.211,9.688c4.615-2.933,7.284-4.98,11.255-7.327.459-.272.381-.523-.112-.324a85.676,85.676,0,0,0-11.674,5.733s-1.393-3.558-2.971-9.339c3.65-.411,5.71-.12,5.145-.343a16.592,16.592,0,0,0-5.53-1.1,126.468,126.468,0,0,1-3.745-21.626,49.846,49.846,0,0,1,.475-11.757c-.23-.011-.168.256-.832-.217-2.369-1.689-4.667-5.322-6.674-2.436,1.114,3.97-.4,10.317-1.133,14.358-1.106,6.18-3.89,15.795-7.815,27.213a63.172,63.172,0,0,0-8.506,5.37s1.612-4.329-8.343-13.381c-9.929-9.066-8.789-14.215-8.095-16.243s8.26-11.316,9.844-7.6a10.471,10.471,0,0,1-2.848,3.891c-2.273,2.08-3.221,6,.472,3.416,3.676-2.581,9.513-7.585,9.513-7.585,4.01-4.312,2.767-10.354-.161-10.48-2.928-.144-14.718,4.237-23,15.209-8.277,10.992.982,18.783,5.5,23.025s12.116,10.134,8.107,12.762c-2.69,1.766-.537,3.274-.362,3.516.172.259-2.991,6.193-8.059,5.653-2.269-.245,1.653-2.571,2.71-3.287,1.064-.7,5.7-4.046,1.848-3.889-1.157.037-16.768,7.143-13.727,12.347s13.979.938,21.938-8.093a44.831,44.831,0,0,1,11.466-9.792,54.69,54.69,0,0,1-3.95,8.217c3.646,1.6,6.832-4.228,8.106-6.961.334-.719.979-2.568,1.769-4.973a43.1,43.1,0,0,1,9.823-4.041c.5,2.176.919,3.907,1.148,4.665.393,1.336.89,2.97,1.494,4.879.115.4.262.812.387,1.238-.5.32-1.08.67-1.708,1.1-.9.645-1.926,1.363-3.02,2.3a21.638,21.638,0,0,0-3.359,3.58,13.094,13.094,0,0,0-1.831,3.329,10.3,10.3,0,0,0-.62,4.515,12.148,12.148,0,0,0,1.461,4.671,21.957,21.957,0,0,0,2.714,3.92c1.792,2.133,11.2,10.9,13.57,12.783,0,0,3.6,4.571,7.188,2.931a6.109,6.109,0,0,0,3.168-8.212c-4.07-10.471-11.03-31.617-11.03-31.617" transform="translate(0 0)" fill="#ace7ff"/>
    <path id="路径_60" data-name="路径 60" d="M692.324,344.791c-1.316-.259-2.42.213-2.465,1.078s1.032,1.791,2.39,2.064,4.46-.227,4.469-1.1c-.017-.851-3.092-1.763-4.395-2.042" transform="translate(-2.111 -1.143)" fill="#ace7ff"/>
  </g>
</svg>
