<?xml version="1.0" encoding="UTF-8"?>
<svg width="85px" height="28px" viewBox="0 0 85 28" version="1.1" xmlns="http://www.w3.org/2000/svg" xmlns:xlink="http://www.w3.org/1999/xlink">
    <!-- Generator: Sketch 55.2 (78181) - https://sketchapp.com -->
    <title>logo_saba</title>
    <desc>Created with Sketch.</desc>
    <defs>
        <linearGradient x1="100%" y1="50%" x2="0%" y2="50%" id="linearGradient-1">
            <stop stop-color="#6A84FF" offset="0%"></stop>
            <stop stop-color="#15AAFF" offset="100%"></stop>
        </linearGradient>
    </defs>
    <g id="页面1" stroke="none" stroke-width="1" fill="none" fill-rule="evenodd">
        <g id="BOB-web3.0首页-02" transform="translate(-1370.000000, -3467.000000)" fill="url(#linearGradient-1)" fill-rule="nonzero">
            <path d="M1393.58254,3487.32205 C1393.15082,3486.9443 1392.66514,3486.7824 1392.01756,3486.7824 C1391.36999,3486.7824 1390.77638,3486.9443 1390.34466,3487.32205 L1389.91294,3487.64584 C1389.85898,3487.6998 1389.80501,3487.6998 1389.75105,3487.80773 C1389.96691,3487.48394 1390.1288,3487.16016 1390.23673,3486.9443 L1391.90963,3483.32867 C1392.01756,3483.05885 1392.17946,3482.84299 1392.28738,3482.68109 C1392.34135,3482.62713 1392.34135,3482.57316 1392.34135,3482.57316 C1392.34135,3482.5192 1392.28738,3482.46524 1392.17946,3482.46524 L1392.07153,3482.46524 L1391.69377,3482.5192 C1391.58584,3482.5192 1391.0462,3482.5192 1390.02087,3482.5192 C1389.69708,3482.5192 1389.58915,3482.57316 1389.58915,3482.62713 C1389.58915,3482.68109 1389.64312,3482.73506 1389.75105,3482.73506 C1390.39862,3482.73506 1390.72241,3482.73506 1390.72241,3482.89695 C1390.72241,3482.89695 1390.66845,3482.95092 1390.61448,3483.00488 C1390.56052,3483.05885 1390.50655,3483.16678 1390.45259,3483.2747 L1386.67507,3490.77579 C1386.29731,3491.47733 1386.13542,3491.96301 1386.13542,3492.23283 C1386.13542,3492.28679 1386.13542,3492.34076 1386.13542,3492.44869 C1386.08145,3492.50265 1386.08145,3492.50265 1386.02749,3492.55662 C1385.54181,3493.09626 1385.11009,3493.36609 1384.62441,3493.36609 C1384.30062,3493.36609 1384.13873,3493.25816 1384.13873,3492.98833 C1384.13873,3492.77248 1384.24666,3492.39472 1384.46252,3491.96301 L1386.83696,3487.32205 C1386.94489,3487.16016 1386.99885,3487.05223 1386.99885,3486.99826 C1386.99885,3486.9443 1386.94489,3486.89033 1386.89092,3486.89033 C1386.83696,3486.89033 1386.83696,3486.89033 1386.78299,3486.9443 C1386.6211,3486.99826 1386.45921,3486.99826 1386.18938,3486.99826 C1386.13542,3486.99826 1386.08145,3486.99826 1385.91956,3486.9443 C1385.81163,3486.9443 1385.7037,3486.89033 1385.7037,3486.89033 C1385.64974,3486.89033 1385.54181,3486.99826 1385.43388,3487.16016 L1385.00216,3487.96963 C1384.89423,3487.21412 1384.40855,3486.83637 1383.49115,3486.83637 C1382.62772,3486.83637 1381.71032,3487.21412 1380.68499,3488.02359 C1379.92949,3488.6172 1379.33588,3489.26478 1378.90416,3489.96632 C1378.47244,3490.66786 1378.20262,3491.31543 1378.20262,3491.90904 C1378.20262,3492.44869 1378.41848,3492.88041 1378.79623,3493.25816 C1379.17398,3493.58195 1379.71363,3493.7978 1380.30724,3493.7978 C1381.2786,3493.7978 1382.14204,3493.31212 1382.89754,3492.34076 C1382.78961,3492.55662 1382.78961,3492.71851 1382.78961,3492.88041 C1382.78961,3493.15023 1382.89754,3493.31212 1383.1134,3493.47402 C1383.32926,3493.63591 1383.65305,3493.68987 1384.0308,3493.68987 C1384.73234,3493.68987 1385.37991,3493.42005 1385.91956,3492.93437 C1386.02749,3492.82644 1386.13542,3492.71851 1386.18938,3492.61058 C1386.29731,3492.82644 1386.45921,3493.0423 1386.72903,3493.25816 C1387.16075,3493.52798 1387.70039,3493.68987 1388.34797,3493.68987 C1389.69708,3493.68987 1390.99223,3493.15023 1392.23342,3492.07094 C1393.47461,3490.99164 1394.12218,3489.91235 1394.12218,3488.72513 C1394.23011,3488.18548 1394.01425,3487.6998 1393.58254,3487.32205 Z M1383.22133,3491.3694 C1382.89754,3491.90904 1382.57375,3492.39472 1382.08807,3492.71851 C1381.65636,3493.09626 1381.22464,3493.25816 1380.84689,3493.25816 C1380.19931,3493.25816 1379.82156,3492.88041 1379.82156,3492.17887 C1379.82156,3491.58525 1380.03742,3490.93768 1380.41517,3490.12821 C1380.79292,3489.37271 1381.2786,3488.6172 1381.92618,3487.91566 C1382.46583,3487.32205 1383.05944,3486.99826 1383.65305,3486.99826 C1383.97683,3486.99826 1384.30062,3487.10619 1384.51648,3487.26809 C1384.73234,3487.42998 1384.84027,3487.6998 1384.84027,3488.02359 C1384.84027,3488.13152 1384.7863,3488.34738 1384.62441,3488.6172 L1383.22133,3491.3694 Z M1391.63981,3491.09957 C1390.72241,3492.66455 1389.64312,3493.42005 1388.4559,3493.42005 C1387.80832,3493.42005 1387.48453,3493.20419 1387.48453,3492.77248 C1387.48453,3492.44869 1387.70039,3491.90904 1388.13211,3490.99164 L1388.56383,3490.07425 C1389.53519,3488.02359 1390.61448,3486.99826 1391.8017,3486.99826 C1392.39531,3486.99826 1392.7191,3487.37601 1392.7191,3488.07755 C1392.77307,3488.83306 1392.39531,3489.85839 1391.63981,3491.09957 Z M1377.0154,3487.64584 L1375.93611,3486.72844 C1375.07267,3485.97294 1374.64096,3485.32536 1374.64096,3484.73175 C1374.64096,3484.1921 1374.91078,3483.70642 1375.39646,3483.32867 C1375.88214,3482.95092 1376.47575,3482.78902 1377.23126,3482.78902 C1377.87883,3482.78902 1378.41848,3482.95092 1378.79623,3483.22074 C1379.17398,3483.54453 1379.38984,3483.92228 1379.38984,3484.46193 C1379.38984,3484.62382 1379.38984,3484.83968 1379.33588,3485.05554 L1379.33588,3485.16347 C1379.33588,3485.21743 1379.38984,3485.2714 1379.44381,3485.2714 C1379.55174,3485.2714 1379.6057,3485.16347 1379.65967,3485.00157 C1379.82156,3484.24607 1380.03742,3483.70642 1380.25328,3483.32867 C1380.46913,3482.95092 1380.57706,3482.73506 1380.57706,3482.68109 C1380.57706,3482.62713 1380.5231,3482.57316 1380.46913,3482.57316 C1380.41517,3482.57316 1380.36121,3482.62713 1380.25328,3482.73506 C1380.03742,3483.00488 1379.82156,3483.11281 1379.6057,3483.11281 C1379.49777,3483.11281 1379.28191,3483.05885 1378.90416,3482.89695 C1378.31055,3482.68109 1377.71694,3482.57316 1377.12333,3482.57316 C1376.04404,3482.57316 1375.12664,3482.89695 1374.31717,3483.49056 C1373.5077,3484.08417 1373.12995,3484.83968 1373.12995,3485.64915 C1373.12995,3486.45862 1373.61563,3487.26809 1374.64096,3488.07755 L1375.66628,3488.88702 C1376.47575,3489.5346 1376.90747,3490.2901 1376.90747,3491.04561 C1376.90747,3491.74715 1376.63765,3492.28679 1376.098,3492.71851 C1375.55836,3493.15023 1374.85682,3493.36609 1374.04735,3493.36609 C1372.37444,3493.36609 1371.56497,3492.71851 1371.56497,3491.42336 C1371.56497,3491.04561 1371.61894,3490.77579 1371.6729,3490.66786 C1371.72687,3490.55993 1371.72687,3490.50596 1371.72687,3490.50596 C1371.72687,3490.452 1371.6729,3490.39803 1371.61894,3490.39803 C1371.45704,3490.39803 1371.34912,3490.50596 1371.24119,3490.77579 C1370.9174,3491.58525 1370.59361,3492.39472 1370.16189,3493.25816 C1370.05396,3493.47402 1370,3493.58195 1370,3493.63591 C1370,3493.74384 1370.05396,3493.7978 1370.16189,3493.7978 C1370.26982,3493.7978 1370.32379,3493.74384 1370.37775,3493.58195 C1370.53965,3493.09626 1370.80947,3492.82644 1371.07929,3492.82644 C1371.18722,3492.82644 1371.34912,3492.88041 1371.45704,3492.93437 C1371.94273,3493.25816 1372.15858,3493.42005 1372.26651,3493.42005 C1372.7522,3493.63591 1373.34581,3493.74384 1374.04735,3493.74384 C1375.28853,3493.74384 1376.31386,3493.42005 1377.17729,3492.71851 C1378.04073,3492.01697 1378.47244,3491.2075 1378.47244,3490.23614 C1378.47244,3489.31874 1377.98676,3488.50927 1377.0154,3487.64584 Z M1402.27084,3486.7824 C1402.21687,3486.7824 1402.21687,3486.7824 1402.16291,3486.83637 C1402.00101,3486.89033 1401.83912,3486.89033 1401.5693,3486.89033 C1401.51533,3486.89033 1401.46137,3486.89033 1401.29947,3486.83637 C1401.19155,3486.83637 1401.08362,3486.7824 1401.08362,3486.7824 C1401.02965,3486.7824 1400.92172,3486.89033 1400.81379,3487.05223 L1400.38208,3487.8617 C1400.27415,3487.10619 1399.78847,3486.72844 1398.87107,3486.72844 C1398.00763,3486.72844 1397.09024,3487.10619 1396.06491,3487.91566 C1395.3094,3488.50927 1394.71579,3489.15685 1394.28408,3489.85839 C1393.85236,3490.55993 1393.58254,3491.2075 1393.58254,3491.80111 C1393.58254,3492.34076 1393.79839,3492.77248 1394.17615,3493.15023 C1394.5539,3493.47402 1395.09354,3493.68987 1395.68716,3493.68987 C1396.65852,3493.68987 1397.52195,3493.20419 1398.27746,3492.23283 C1398.16953,3492.44869 1398.16953,3492.61058 1398.16953,3492.77248 C1398.16953,3493.0423 1398.27746,3493.20419 1398.49332,3493.36609 C1398.70917,3493.52798 1399.03296,3493.58195 1399.41071,3493.58195 C1400.11225,3493.58195 1400.75983,3493.31212 1401.29947,3492.82644 C1401.5693,3492.55662 1401.67723,3492.39472 1401.67723,3492.28679 C1401.67723,3492.23283 1401.67723,3492.23283 1401.62326,3492.23283 C1401.5693,3492.23283 1401.51533,3492.28679 1401.4074,3492.39472 C1400.92172,3492.93437 1400.49001,3493.20419 1400.00432,3493.20419 C1399.68054,3493.20419 1399.51864,3493.09626 1399.51864,3492.82644 C1399.51864,3492.61058 1399.62657,3492.23283 1399.84243,3491.80111 L1402.21687,3487.16016 C1402.3248,3486.99826 1402.37877,3486.89033 1402.37877,3486.83637 C1402.37877,3486.7824 1402.3248,3486.7824 1402.27084,3486.7824 Z M1399.89639,3488.77909 L1398.49332,3491.3694 C1398.16953,3491.90904 1397.84574,3492.39472 1397.36006,3492.71851 C1396.92834,3493.09626 1396.49662,3493.25816 1396.11887,3493.25816 C1395.4713,3493.25816 1395.09354,3492.88041 1395.09354,3492.17887 C1395.09354,3491.58525 1395.3094,3490.93768 1395.68716,3490.12821 C1396.06491,3489.37271 1396.55059,3488.6172 1397.19816,3487.91566 C1397.73781,3487.32205 1398.33142,3486.99826 1398.92503,3486.99826 C1399.24882,3486.99826 1399.57261,3487.10619 1399.78847,3487.26809 C1400.00432,3487.42998 1400.11225,3487.6998 1400.11225,3488.02359 C1400.11225,3488.29341 1400.05829,3488.45531 1399.89639,3488.77909 Z M1433.03067,3489.21081 C1432.92274,3489.10288 1432.76084,3488.99495 1432.59895,3488.88702 C1432.43706,3488.83306 1432.2212,3488.77909 1431.95137,3488.77909 C1431.68155,3488.77909 1431.41173,3488.83306 1431.24983,3488.94099 C1431.08794,3489.04892 1430.92605,3489.21081 1430.76415,3489.48063 C1430.71019,3489.42667 1430.71019,3489.31874 1430.65622,3489.26478 C1430.60226,3489.15685 1430.54829,3489.10288 1430.44037,3489.04892 C1430.33244,3488.99495 1430.22451,3488.94099 1430.11658,3488.88702 C1430.00865,3488.83306 1429.79279,3488.83306 1429.6309,3488.83306 C1429.469,3488.83306 1429.36107,3488.83306 1429.19918,3488.88702 C1429.09125,3488.94099 1428.92936,3488.99495 1428.82143,3489.04892 C1428.7135,3489.10288 1428.60557,3489.21081 1428.5516,3489.26478 C1428.49764,3489.37271 1428.38971,3489.42667 1428.38971,3489.5346 L1428.38971,3489.5346 C1428.38971,3489.42667 1428.38971,3489.31874 1428.38971,3489.21081 C1428.38971,3489.10288 1428.38971,3488.99495 1428.38971,3488.88702 L1427.7961,3488.88702 C1427.7961,3488.99495 1427.7961,3489.15685 1427.7961,3489.26478 C1427.7961,3489.42667 1427.7961,3489.58856 1427.7961,3489.75046 L1427.7961,3492.55662 L1428.38971,3492.55662 L1428.38971,3490.77579 C1428.38971,3490.55993 1428.38971,3490.39803 1428.44367,3490.18217 C1428.49764,3489.96632 1428.5516,3489.85839 1428.65953,3489.75046 C1428.76746,3489.64253 1428.87539,3489.5346 1429.03729,3489.48063 C1429.19918,3489.42667 1429.36107,3489.37271 1429.57693,3489.37271 C1429.84675,3489.37271 1430.00865,3489.48063 1430.11658,3489.64253 C1430.22451,3489.80442 1430.27847,3490.12821 1430.27847,3490.50596 L1430.27847,3492.61058 L1430.87208,3492.61058 L1430.87208,3490.452 C1430.87208,3490.2901 1430.87208,3490.12821 1430.92605,3490.02028 C1430.98001,3489.91235 1431.03398,3489.75046 1431.14191,3489.69649 C1431.24983,3489.58856 1431.3038,3489.5346 1431.46569,3489.48063 C1431.57362,3489.42667 1431.68155,3489.42667 1431.84345,3489.42667 C1432.00534,3489.42667 1432.16723,3489.48063 1432.27516,3489.5346 C1432.38309,3489.58856 1432.49102,3489.64253 1432.54499,3489.75046 C1432.59895,3489.85839 1432.65291,3489.96632 1432.70688,3490.07425 C1432.70688,3490.18217 1432.76084,3490.34407 1432.76084,3490.452 L1432.76084,3492.66455 L1433.35445,3492.66455 L1433.35445,3490.34407 C1433.35445,3490.12821 1433.35445,3489.91235 1433.30049,3489.69649 C1433.24653,3489.48063 1433.1386,3489.31874 1433.03067,3489.21081 Z M1413.87323,3491.96301 L1413.87323,3490.34407 C1413.87323,3489.80442 1413.7653,3489.42667 1413.49548,3489.15685 C1413.22565,3488.88702 1412.8479,3488.77909 1412.30826,3488.77909 C1412.03843,3488.77909 1411.76861,3488.83306 1411.49879,3488.94099 C1411.22896,3489.04892 1411.0131,3489.15685 1410.79725,3489.37271 L1411.175,3489.75046 C1411.33689,3489.58856 1411.49879,3489.5346 1411.66068,3489.42667 C1411.87654,3489.37271 1412.03843,3489.31874 1412.25429,3489.31874 C1412.52411,3489.31874 1412.79394,3489.37271 1412.95583,3489.5346 C1413.11772,3489.69649 1413.17169,3489.85839 1413.17169,3490.12821 L1413.17169,3490.23614 L1412.95583,3490.23614 C1412.73997,3490.23614 1412.47015,3490.23614 1412.20033,3490.2901 C1411.9305,3490.2901 1411.66068,3490.34407 1411.44482,3490.452 C1411.22896,3490.55993 1411.0131,3490.66786 1410.85121,3490.82975 C1410.68932,3490.99164 1410.63535,3491.26147 1410.63535,3491.53129 C1410.63535,3491.69318 1410.68932,3491.85508 1410.74328,3492.01697 C1410.79725,3492.17887 1410.90518,3492.28679 1411.06707,3492.34076 C1411.175,3492.44869 1411.33689,3492.50265 1411.49879,3492.55662 C1411.66068,3492.61058 1411.82257,3492.61058 1412.03843,3492.61058 C1412.30826,3492.61058 1412.57808,3492.55662 1412.79394,3492.44869 C1413.0098,3492.34076 1413.17169,3492.17887 1413.27962,3491.96301 L1413.27962,3491.96301 C1413.27962,3492.01697 1413.27962,3492.1249 1413.27962,3492.23283 C1413.27962,3492.34076 1413.27962,3492.44869 1413.33358,3492.50265 L1413.92719,3492.50265 C1413.92719,3492.39472 1413.87323,3492.28679 1413.87323,3492.17887 C1413.87323,3492.17887 1413.87323,3492.07094 1413.87323,3491.96301 Z M1413.27962,3491.04561 C1413.27962,3491.2075 1413.22565,3491.3694 1413.22565,3491.47733 C1413.17169,3491.58525 1413.11772,3491.74715 1413.0098,3491.85508 C1412.90187,3491.96301 1412.79394,3492.01697 1412.68601,3492.07094 C1412.57808,3492.1249 1412.41618,3492.17887 1412.20033,3492.17887 C1411.98447,3492.17887 1411.76861,3492.1249 1411.60672,3492.01697 C1411.44482,3491.90904 1411.39086,3491.74715 1411.39086,3491.53129 C1411.39086,3491.26147 1411.49879,3491.09957 1411.71464,3490.99164 C1411.9305,3490.88371 1412.25429,3490.82975 1412.63204,3490.82975 L1413.22565,3490.82975 L1413.22565,3491.04561 L1413.27962,3491.04561 Z M1423.47893,3489.31874 C1423.31704,3489.15685 1423.10118,3488.99495 1422.83135,3488.94099 C1422.56153,3488.83306 1422.34567,3488.77909 1422.02189,3488.77909 C1421.75206,3488.77909 1421.48224,3488.83306 1421.21242,3488.94099 C1420.94259,3489.04892 1420.7807,3489.15685 1420.56484,3489.31874 C1420.34898,3489.48063 1420.24105,3489.69649 1420.13312,3489.91235 C1420.0252,3490.12821 1419.97123,3490.39803 1419.97123,3490.72182 C1419.97123,3491.04561 1420.0252,3491.26147 1420.13312,3491.53129 C1420.24105,3491.74715 1420.34898,3491.96301 1420.56484,3492.1249 C1420.7807,3492.28679 1420.94259,3492.44869 1421.21242,3492.50265 C1421.42828,3492.61058 1421.6981,3492.66455 1422.02189,3492.66455 C1422.29171,3492.66455 1422.56153,3492.61058 1422.83135,3492.50265 C1423.04721,3492.39472 1423.26307,3492.28679 1423.47893,3492.1249 C1423.69479,3491.96301 1423.80272,3491.74715 1423.91065,3491.53129 C1424.01858,3491.31543 1424.07254,3491.04561 1424.07254,3490.72182 C1424.07254,3490.39803 1424.01858,3490.18217 1423.91065,3489.91235 C1423.80272,3489.69649 1423.64082,3489.48063 1423.47893,3489.31874 Z M1423.26307,3491.26147 C1423.20911,3491.42336 1423.10118,3491.58525 1422.99325,3491.69318 C1422.88532,3491.80111 1422.72343,3491.90904 1422.56153,3491.96301 C1422.39964,3492.01697 1422.23774,3492.07094 1422.02189,3492.07094 C1421.80603,3492.07094 1421.64413,3492.01697 1421.48224,3491.96301 C1421.32035,3491.90904 1421.15845,3491.80111 1421.05052,3491.69318 C1420.94259,3491.58525 1420.83466,3491.42336 1420.7807,3491.26147 C1420.72674,3491.09957 1420.67277,3490.93768 1420.67277,3490.72182 C1420.67277,3490.50596 1420.72674,3490.34407 1420.7807,3490.18217 C1420.83466,3490.02028 1420.94259,3489.85839 1421.05052,3489.75046 C1421.15845,3489.64253 1421.32035,3489.5346 1421.48224,3489.48063 C1421.64413,3489.42667 1421.80603,3489.37271 1422.02189,3489.37271 C1422.23774,3489.37271 1422.39964,3489.42667 1422.56153,3489.48063 C1422.72343,3489.5346 1422.88532,3489.64253 1422.99325,3489.75046 C1423.10118,3489.85839 1423.20911,3490.02028 1423.26307,3490.18217 C1423.31704,3490.34407 1423.371,3490.50596 1423.371,3490.72182 C1423.371,3490.93768 1423.371,3491.09957 1423.26307,3491.26147 Z M1416.78732,3492.07094 C1416.67939,3492.07094 1416.62542,3492.1249 1416.5175,3492.1249 C1416.3556,3492.1249 1416.30164,3492.1249 1416.19371,3492.07094 C1416.13974,3492.01697 1416.08578,3491.96301 1416.03181,3491.90904 C1415.97785,3491.85508 1415.97785,3491.74715 1415.97785,3491.63922 C1415.97785,3491.53129 1415.97785,3491.42336 1415.97785,3491.31543 L1415.97785,3489.48063 L1417.05714,3489.48063 L1417.05714,3488.94099 L1415.97785,3488.94099 L1415.97785,3487.8617 L1415.38424,3487.8617 L1415.38424,3488.94099 L1414.57477,3488.94099 L1414.57477,3489.48063 L1415.38424,3489.48063 L1415.38424,3491.53129 C1415.38424,3491.74715 1415.38424,3491.90904 1415.4382,3492.07094 C1415.49217,3492.23283 1415.49217,3492.34076 1415.6001,3492.44869 C1415.65406,3492.55662 1415.76199,3492.61058 1415.92388,3492.71851 C1416.03181,3492.77248 1416.24767,3492.82644 1416.46353,3492.82644 C1416.57146,3492.82644 1416.67939,3492.82644 1416.84128,3492.77248 C1416.94921,3492.77248 1417.11111,3492.71851 1417.21904,3492.66455 L1417.21904,3492.1249 C1416.94921,3492.01697 1416.89525,3492.07094 1416.78732,3492.07094 Z M1409.07038,3492.55662 L1409.66399,3492.55662 L1409.66399,3486.56655 L1409.07038,3486.56655 L1409.07038,3492.55662 Z M1419.43158,3486.51258 C1419.16176,3486.51258 1418.99987,3486.56655 1418.78401,3486.62051 C1418.62212,3486.67447 1418.46022,3486.7824 1418.35229,3486.9443 C1418.24436,3487.10619 1418.1904,3487.26809 1418.13643,3487.42998 C1418.08247,3487.59187 1418.08247,3487.80773 1418.08247,3488.07755 L1418.08247,3488.88702 L1417.273,3488.88702 L1417.273,3489.42667 L1418.08247,3489.42667 L1418.08247,3492.61058 L1418.67608,3492.61058 L1418.67608,3489.42667 L1419.59348,3489.42667 L1419.59348,3488.88702 L1418.67608,3488.88702 L1418.67608,3488.18548 C1418.67608,3488.02359 1418.67608,3487.8617 1418.67608,3487.75377 C1418.67608,3487.64584 1418.73004,3487.48394 1418.73004,3487.37601 C1418.78401,3487.26809 1418.83797,3487.21412 1418.9459,3487.16016 C1419.05383,3487.10619 1419.16176,3487.05223 1419.32366,3487.05223 C1419.43158,3487.05223 1419.59348,3487.05223 1419.75537,3487.10619 L1419.8633,3486.56655 C1419.80934,3486.51258 1419.75537,3486.51258 1419.64744,3486.51258 C1419.59348,3486.51258 1419.53951,3486.51258 1419.43158,3486.51258 Z M1407.45144,3487.32205 C1407.28955,3487.21412 1407.07369,3487.10619 1406.80387,3487.05223 C1406.58801,3486.99826 1406.31818,3486.99826 1406.04836,3486.99826 L1404.37546,3486.99826 L1404.37546,3492.61058 L1405.02303,3492.61058 L1405.02303,3490.07425 L1406.15629,3490.07425 C1406.37215,3490.07425 1406.53404,3490.07425 1406.7499,3490.02028 C1406.96576,3489.96632 1407.18162,3489.91235 1407.34351,3489.75046 C1407.50541,3489.64253 1407.6673,3489.48063 1407.77523,3489.26478 C1407.88316,3489.04892 1407.93712,3488.83306 1407.93712,3488.50927 C1407.93712,3488.23945 1407.88316,3487.96963 1407.77523,3487.75377 C1407.77523,3487.59187 1407.61333,3487.42998 1407.45144,3487.32205 Z M1407.01972,3489.21081 C1406.80387,3489.37271 1406.53404,3489.42667 1406.21025,3489.42667 L1405.077,3489.42667 L1405.077,3487.59187 L1406.21025,3487.59187 C1406.53404,3487.59187 1406.80387,3487.64584 1407.01972,3487.80773 C1407.23558,3487.96963 1407.34351,3488.18548 1407.34351,3488.50927 C1407.34351,3488.83306 1407.23558,3489.04892 1407.01972,3489.21081 Z M1426.82474,3488.77909 C1426.66284,3488.77909 1426.55491,3488.77909 1426.39302,3488.83306 C1426.28509,3488.88702 1426.1232,3488.94099 1426.01527,3488.99495 C1425.90734,3489.04892 1425.79941,3489.15685 1425.74544,3489.21081 C1425.69148,3489.31874 1425.58355,3489.37271 1425.58355,3489.48063 L1425.58355,3489.48063 C1425.58355,3489.37271 1425.58355,3489.26478 1425.58355,3489.15685 C1425.58355,3489.04892 1425.58355,3488.94099 1425.58355,3488.83306 L1424.98994,3488.83306 C1424.98994,3488.94099 1424.98994,3489.10288 1424.98994,3489.21081 C1424.98994,3489.37271 1424.98994,3489.5346 1424.98994,3489.69649 L1424.98994,3492.50265 L1425.58355,3492.50265 L1425.58355,3490.72182 C1425.58355,3490.2901 1425.69148,3489.96632 1425.85337,3489.69649 C1426.01527,3489.42667 1426.28509,3489.31874 1426.66284,3489.31874 C1426.77077,3489.31874 1426.8787,3489.31874 1426.98663,3489.37271 L1427.04059,3488.72513 C1426.98663,3488.72513 1426.93267,3488.72513 1426.93267,3488.67117 C1426.93267,3488.77909 1426.8787,3488.77909 1426.82474,3488.77909 Z M1447.76301,3475.77362 L1447.76301,3475.77362 C1447.76301,3475.77362 1447.70904,3475.77362 1447.76301,3475.77362 C1447.70904,3475.77362 1447.70904,3475.77362 1447.70904,3475.77362 C1446.68371,3475.44984 1435.24322,3471.88817 1429.57693,3469.78355 C1422.56153,3467.62497 1408.96245,3465.79017 1401.46137,3468.00272 C1398.27746,3468.97408 1396.60455,3470.53906 1396.01094,3472.05007 C1395.25544,3474.10072 1396.60455,3476.96084 1400.11225,3480.19872 C1400.11225,3480.19872 1401.08362,3480.03683 1400.22018,3477.3386 C1399.08693,3473.93883 1399.68054,3472.21196 1402.75652,3471.51042 C1402.00101,3471.51042 1400.59793,3471.67231 1399.95036,3471.94214 C1398.54728,3472.64368 1398.22349,3474.15469 1398.22349,3474.15469 C1397.68385,3473.56107 1398.27746,3471.94214 1400.05829,3471.34853 C1407.12765,3468.92012 1421.91396,3475.23398 1426.33905,3478.84961 C1431.89741,3483.4366 1435.45907,3487.8617 1435.78286,3488.29341 C1437.13198,3491.96301 1440.63968,3494.60727 1444.79495,3494.60727 C1450.08348,3494.60727 1454.40065,3490.2901 1454.40065,3485.00157 C1454.45462,3480.63044 1451.64846,3477.01481 1447.76301,3475.77362 Z M1447.87093,3476.36723 C1449.86763,3477.06877 1451.59449,3478.47185 1452.67379,3480.30665 L1451.97225,3481.27801 L1449.32798,3481.54784 L1445.65839,3478.90357 L1445.65839,3476.96084 L1447.87093,3476.36723 Z M1449.11212,3481.81766 L1448.8423,3485.21743 L1445.3346,3486.99826 L1442.42051,3484.56986 L1442.69033,3480.90026 L1445.49649,3479.22736 L1449.11212,3481.81766 Z M1444.84892,3475.88155 C1445.76631,3475.88155 1446.62975,3476.04345 1447.43922,3476.2593 L1445.44253,3476.85292 L1442.63637,3476.15138 C1443.33791,3475.98948 1444.09341,3475.88155 1444.84892,3475.88155 Z M1442.42051,3476.20534 L1440.31589,3478.57978 L1437.18594,3480.14476 C1438.3192,3478.256 1440.20796,3476.79895 1442.42051,3476.20534 Z M1437.07801,3480.46854 L1440.36985,3478.84961 L1442.42051,3480.73837 L1442.15069,3484.56986 L1439.34453,3486.67447 L1437.02405,3484.56986 L1437.02405,3480.46854 L1437.07801,3480.46854 Z M1435.78286,3485.91897 L1436.97008,3484.89364 L1439.18263,3486.89033 L1440.85554,3490.12821 L1439.34453,3492.23283 C1437.4018,3490.72182 1436.10665,3488.45531 1435.78286,3485.91897 Z M1446.52182,3493.85177 C1445.98217,3493.9597 1445.44253,3494.01366 1444.84892,3494.01366 C1442.90619,3494.01366 1441.07139,3493.36609 1439.61435,3492.34076 L1441.12536,3490.23614 L1443.93152,3490.23614 L1446.84561,3492.50265 L1446.52182,3493.85177 Z M1446.95354,3492.28679 L1444.14738,3490.12821 L1445.38856,3487.26809 L1448.95023,3485.43329 L1451.27071,3486.99826 L1450.40727,3490.99164 L1446.95354,3492.28679 Z M1451.4326,3491.15354 L1450.73106,3490.99164 L1451.59449,3486.9443 L1453.75308,3484.67778 L1452.1881,3481.49387 L1452.78171,3480.63044 C1453.48325,3481.92559 1453.91497,3483.38263 1453.91497,3485.00157 C1453.91497,3487.32205 1452.99757,3489.48063 1451.4326,3491.15354 Z" id="logo_saba"></path>
        </g>
    </g>
</svg>