<?xml version="1.0" encoding="utf-8"?>
<!-- Generator: Adobe Illustrator 23.0.6, SVG Export Plug-In . SVG Version: 6.00 Build 0)  -->
<svg version="1.1" id="圖層_1" xmlns="http://www.w3.org/2000/svg" xmlns:xlink="http://www.w3.org/1999/xlink" x="0px" y="0px"
	 viewBox="0 0 281.2 206.8" style="enable-background:new 0 0 281.2 206.8;" xml:space="preserve">
<path d="M237.9,56.9L203.5,37c-10.2-5.9-22.7-5.9-32.8,0l-27.1,15.6L116.5,37c-10.2-5.9-22.7-5.9-32.8,0L49.2,56.9
	C39,62.7,32.8,73.6,32.8,85.3V125c0,11.7,6.3,22.6,16.4,28.4l34.4,19.9c10.2,5.9,22.7,5.9,32.8,0l27.1-15.6l27.1,15.6
	c10.2,5.9,22.7,5.9,32.8,0l34.4-19.9c10.2-5.9,16.4-16.7,16.4-28.4V85.3C254.3,73.6,248.1,62.7,237.9,56.9z M107.4,82.8v55.3
	c0,4.2-3.4,7.6-7.6,7.6s-7.6-3.4-7.6-7.6V82.8H67.1c-4.2,0-7.6-3.4-7.6-7.6c0-4.2,3.4-7.6,7.6-7.6h57.9c-2.9,4.5-4.7,9.7-5.1,15.2
	H107.4z M232.8,142.7c-0.9,0.3-1.7,0.5-2.6,0.5c-3.1,0-6-1.9-7.2-5l-14.4-39.7l-14.4,39.7c-1.1,3-4,5-7.2,5c0,0,0,0,0,0
	c-3.2,0-6.1-2-7.2-5l-12.6-34.8l-1.8-5l-14.5,39.7c-1.4,4-5.8,6-9.8,4.5c-4-1.4-6-5.8-4.5-9.8l21.7-59.4c0.8-2.2,2.5-3.8,4.6-4.6
	c0.8-0.3,1.7-0.4,2.5-0.4c0,0,0,0,0,0c3.2,0,6.1,2,7.2,5l14.4,39.7l14.4-39.7c1.1-3,4-5,7.2-5c3.2,0,6.1,2,7.2,5l21.6,59.4
	C238.8,136.9,236.8,141.3,232.8,142.7z"/>
</svg>
