<?xml version="1.0" encoding="utf-8"?>
<!-- Generator: Adobe Illustrator 23.0.6, SVG Export Plug-In . SVG Version: 6.00 Build 0)  -->
<svg version="1.1" id="圖層_1" xmlns="http://www.w3.org/2000/svg" xmlns:xlink="http://www.w3.org/1999/xlink" x="0px" y="0px"
	 viewBox="0 0 179.4 191.1" style="enable-background:new 0 0 179.4 191.1;" xml:space="preserve">
<g>
	<path d="M90.2,167.2c-38.7,0-70-31.4-70-70c0-10.4,2.3-20.3,6.4-29.2l18.8,47.6L60,76.3l15.2,39.2l24-65h-9.3L75.2,86.9L60,50.5
		L45.4,87L28,47.2c-11,13.7-17.6,31-17.6,50c0,44.1,35.7,79.8,79.8,79.8c20.1,0,38.4-7.4,52.4-19.6l-4.2-9.3
		C125.8,159.9,108.9,167.2,90.2,167.2z"/>
	<path d="M90.2,17.3c-20.4,0-38.9,7.6-53,20.2l4.2,9.4C54,34.6,71.2,27.1,90.2,27.1c38.7,0,70,31.4,70,70c0,10.8-2.5,21-6.8,30.1
		l-19.3-48.8l-14.7,39.2l-15.2-39.2l-24,65h9.3l14.7-36.4l15.2,36.4l14.7-36.5l17.7,40.9C163.1,134,170,116.4,170,97.1
		C170,53.1,134.3,17.3,90.2,17.3z"/>
</g>
</svg>
