<svg id="bbin_logo" xmlns="http://www.w3.org/2000/svg" xmlns:xlink="http://www.w3.org/1999/xlink" width="170.657" height="65.511" viewBox="0 0 170.657 65.511">
  <defs>
    <linearGradient id="linear-gradient" x1="0.5" y1="0.076" x2="0.5" y2="0.985" gradientUnits="objectBoundingBox">
      <stop offset="0.331" stop-color="#ac1018"/>
      <stop offset="1" stop-color="#701119"/>
    </linearGradient>
    <linearGradient id="linear-gradient-2" x1="0.5" y1="0.057" x2="0.5" y2="1.098" xlink:href="#linear-gradient"/>
    <linearGradient id="linear-gradient-3" x1="0.5" y1="0.076" x2="0.5" y2="0.971" gradientUnits="objectBoundingBox">
      <stop offset="0.076" stop-color="#ac1018"/>
      <stop offset="0.242" stop-color="#7c121a"/>
      <stop offset="0.262" stop-color="#7f1119"/>
      <stop offset="0.383" stop-color="#931119"/>
      <stop offset="0.523" stop-color="#a11018"/>
      <stop offset="0.696" stop-color="#a91018"/>
      <stop offset="1" stop-color="#ac1018"/>
    </linearGradient>
    <linearGradient id="linear-gradient-4" x1="0.392" y1="0.079" x2="0.667" y2="0.954" xlink:href="#linear-gradient"/>
  </defs>
  <path id="路径_176" data-name="路径 176" d="M203.109,28.957V59.881l9.054-.1V39.028S212.366,29.16,203.109,28.957Z" transform="translate(-145.941 -28.957)" fill="url(#linear-gradient)"/>
  <path id="路径_177" data-name="路径 177" d="M56.506,28.957V69.749l9.053-9.969V39.028S65.763,29.16,56.506,28.957Z" transform="translate(-56.506 -28.957)" fill="url(#linear-gradient-2)"/>
  <path id="路径_178" data-name="路径 178" d="M364.327,70.7v49.235s9.359-.1,9.359-10.885V80.157S373.482,71.408,364.327,70.7Z" transform="translate(-244.293 -54.42)" fill="url(#linear-gradient-3)"/>
  <path id="路径_179" data-name="路径 179" d="M203.109,82.2s9.969-11.8,16.174-14.343S235.153,63.585,244,69.79s10.173,13.021,10.579,14.75a21.8,21.8,0,0,1-.508,13.021l-10.274,11.9-7.731-3.052a17.735,17.735,0,0,0,10.173-14.648s.54-11.444-10.58-15.869c-9.969-3.967-17.6,4.272-17.6,4.272S212.773,85.558,203.109,82.2Z" transform="translate(-145.941 -51.276)" fill="url(#linear-gradient-4)"/>
  <path id="路径_180" data-name="路径 180" d="M108.79,100.321,98.364,110.748S92.413,116.8,81.325,116.8,62.2,109.578,58.436,101.542s-1.526-19.531,2.441-24.516c3.058-3.842,8.952-10.986,20.65-11.088,0,0,11.393-1.221,20.752,9.969l25.431,25.329a18.015,18.015,0,0,0,13.733,6.307s5.493.305,12.614-6.409c8.586-8.095,30.213-28.076,30.213-28.076s6.714-7.629,19.124-7.121c13.721.562,21.2,12.353,22.888,18.413A26.85,26.85,0,0,1,227.1,93.3V117s-9.054.2-9.054-10.478V90.759a16.607,16.607,0,0,0-9.053-14.038c-2.114-1.161-10.885-3.967-19.125,3.662-3.595,3.329-29.907,27.873-29.907,27.873s-8.138,8.545-18.005,8.545-14.648-2.034-25.126-13.123C110.256,96.724,92.514,79.06,92.514,79.06S85.7,73.16,77.052,75.7s-13.224,12.41-10.783,20.04,8.443,11.8,14.954,11.8,8.85-2.034,11.088-3.866S98.821,96.863,108.79,100.321Z" transform="translate(-56.506 -51.493)" fill="#ac1018"/>
  <path id="路径_181" data-name="路径 181" d="M367.428,41.729l3.713-3.713A5.993,5.993,0,0,0,372.717,35c.21-2.522-1.933-5.786-5.188-5.786a5.208,5.208,0,0,0-5.29,5.086,5.584,5.584,0,0,0,1.831,4.069Z" transform="translate(-243.02 -29.116)" fill="#ac1018"/>
</svg>
