<svg xmlns="http://www.w3.org/2000/svg" xmlns:xlink="http://www.w3.org/1999/xlink" width="150.63" height="81.265" viewBox="0 0 150.63 81.265">
  <defs>
    <linearGradient id="linear-gradient" y1="0.5" x2="1" y2="0.5" gradientUnits="objectBoundingBox">
      <stop offset="0" stop-color="#c71878"/>
      <stop offset="1" stop-color="#493286"/>
    </linearGradient>
  </defs>
  <g id="vr_logo" transform="translate(-126.483 -104.847)">
    <path id="路径_851" data-name="路径 851" d="M167.267,186.112h-.019a2.426,2.426,0,0,1-2.056-1.169s-30.712-50.686-36.23-59.8c-2.507-4.143-3.117-8.041-1.813-11.587,2.229-6.06,9.308-8.482,9.608-8.582a2.422,2.422,0,0,1,2.834,1.033l28.319,46.165,28.144-45.383a2.426,2.426,0,0,1,4.123,2.557l-30.217,48.727a2.429,2.429,0,0,1-2.062,1.147h-.006a2.424,2.424,0,0,1-2.061-1.157l-29.266-47.709c-1.642.868-3.99,2.476-4.871,4.9-.76,2.089-.284,4.573,1.418,7.382,4.655,7.691,27.239,44.965,34.188,56.434l45.212-72.128a2.428,2.428,0,0,1,2.056-1.138H251.59a2.425,2.425,0,0,1,.276.016c.215.025,21.45,2.714,21.45,24.559,0,14.428-10.96,20.67-19.346,22.625l22.584,27.243a2.425,2.425,0,0,1-.026,3.127c-.4.462-4.17,4.443-14.107,1.371-5.777-1.786-9.451-7.014-10.1-8L223.46,141.886a2.426,2.426,0,0,1,1.868-3.973h22.107c1.143-.212,6.792-1.616,6.792-8.649,0-7.725-8.48-8.008-9.448-8.015H225.012a2.426,2.426,0,1,1,0-4.851h19.775c4.943,0,14.292,2.689,14.292,12.866a13.094,13.094,0,0,1-11.107,13.477,2.415,2.415,0,0,1-.337.024H230.486l25.662,30.99a2.529,2.529,0,0,1,.188.26c.026.041,3.016,4.7,7.519,6.088a15.391,15.391,0,0,0,6.963.819L247.508,152.8a2.425,2.425,0,0,1,1.707-3.968c.781-.055,19.25-1.545,19.25-18.463,0-16.968-15.346-19.5-17.026-19.723H215.912l-46.59,74.326A2.426,2.426,0,0,1,167.267,186.112Z" transform="translate(0)" fill="url(#linear-gradient)"/>
  </g>
</svg>
